<?xml version="1.0" encoding="UTF-8" standalone="no"?>
<!-- Created with Inkscape (http://www.inkscape.org/) -->
<svg
   xmlns:dc="http://purl.org/dc/elements/1.1/"
   xmlns:cc="http://web.resource.org/cc/"
   xmlns:rdf="http://www.w3.org/1999/02/22-rdf-syntax-ns#"
   xmlns:svg="http://www.w3.org/2000/svg"
   xmlns="http://www.w3.org/2000/svg"
   xmlns:sodipodi="http://sodipodi.sourceforge.net/DTD/sodipodi-0.dtd"
   xmlns:inkscape="http://www.inkscape.org/namespaces/inkscape"
   width="31.119209"
   height="30.340752"
   id="svg2476"
   sodipodi:version="0.32"
   inkscape:version="0.45.1"
   sodipodi:docbase="/home/scott/work/cc/livecd/icons"
   sodipodi:docname="cc-education.svg"
   inkscape:output_extension="org.inkscape.output.svg.inkscape"
   version="1.0">
  <defs
     id="defs2478" />
  <sodipodi:namedview
     id="base"
     pagecolor="#ffffff"
     bordercolor="#666666"
     borderopacity="1.0"
     gridtolerance="10000"
     guidetolerance="10"
     objecttolerance="10"
     inkscape:pageopacity="0.0"
     inkscape:pageshadow="2"
     inkscape:zoom="4"
     inkscape:cx="64.268428"
     inkscape:cy="32.886764"
     inkscape:document-units="px"
     inkscape:current-layer="layer1"
     inkscape:window-width="746"
     inkscape:window-height="612"
     inkscape:window-x="3"
     inkscape:window-y="435" />
  <metadata
     id="metadata2481">
    <rdf:RDF>
      <cc:Work
         rdf:about="">
        <dc:format>image/svg+xml</dc:format>
        <dc:type
           rdf:resource="http://purl.org/dc/dcmitype/StillImage" />
      </cc:Work>
    </rdf:RDF>
  </metadata>
  <g
     inkscape:label="Layer 1"
     inkscape:groupmode="layer"
     id="layer1"
     transform="translate(-745.50425,-503.09821)">
    <g
       id="g177"
       transform="translate(349.55225,416.74221)">
	<path
   d="M 402.27,91.598 C 402.284,91.535 402.332,91.486 402.381,91.438 C 402.768,91.18 403.088,90.858 403.346,90.473 C 403.893,90.522 404.246,90.375 404.44,90.055 C 404.458,90.005 404.489,89.958 404.551,89.894 C 404.615,89.847 404.649,89.766 404.696,89.685 C 404.762,89.509 404.874,89.348 405.034,89.236 C 405.1,89.187 405.132,89.123 405.163,89.026 C 405.179,88.962 405.227,88.914 405.276,88.866 C 405.758,88.705 406.225,88.512 406.69,88.304 C 406.708,88.304 406.721,88.272 406.721,88.224 C 407.27,88.143 407.639,88.126 407.848,88.126 C 407.912,88.126 407.959,88.126 408.008,88.126 C 408.699,88.063 409.279,87.965 409.793,87.821 C 410.002,87.756 410.162,87.756 410.291,87.803 C 410.484,87.868 410.693,87.915 410.887,87.964 C 410.951,87.964 411.014,87.997 411.063,88.062 C 411.127,88.11 411.174,88.159 411.223,88.223 C 411.383,87.949 411.705,87.788 412.172,87.74 C 412.172,87.74 412.205,87.692 412.252,87.594 C 412.252,87.579 412.299,87.579 412.348,87.579 C 412.621,87.739 412.977,87.803 413.473,87.739 C 413.539,87.739 413.586,87.739 413.635,87.739 C 413.795,88.061 414.182,88.19 414.76,88.141 C 414.824,88.124 414.858,88.158 414.889,88.222 C 414.907,88.27 414.92,88.318 414.92,88.381 C 415.389,88.204 415.918,88.204 416.529,88.365 C 416.593,88.365 416.64,88.381 416.689,88.381 C 417.187,88.687 417.718,88.96 418.281,89.218 C 418.746,89.427 419.181,89.684 419.566,89.989 C 419.63,90.037 419.679,90.086 419.712,90.15 C 419.728,90.198 419.743,90.247 419.743,90.31 C 420.29,90.359 420.643,90.568 420.837,90.953 C 420.853,91.003 420.868,91.051 420.868,91.114 C 421.077,91.114 421.255,91.163 421.366,91.226 C 421.415,91.258 421.462,91.275 421.511,91.275 C 421.929,91.919 422.38,92.545 422.863,93.107 C 423.136,93.428 423.408,93.767 423.668,94.105 C 423.891,94.411 424.084,94.749 424.246,95.133 C 424.262,95.84 424.391,96.451 424.631,96.95 C 424.695,97.061 424.76,97.207 424.824,97.32 C 424.873,97.415 424.953,97.479 425.049,97.544 C 425.033,97.978 425.049,98.348 425.129,98.67 L 425.049,98.67 C 425.451,99.28 425.643,100.132 425.611,101.241 C 425.611,101.338 425.611,101.45 425.611,101.562 C 425.611,101.61 425.595,101.673 425.58,101.722 C 425.435,102.092 425.387,102.366 425.435,102.527 C 425.499,102.896 425.531,103.266 425.531,103.652 C 425.338,103.877 425.193,104.199 425.129,104.599 C 425.129,104.599 425.115,104.617 425.049,104.617 C 425.065,105.597 424.807,106.304 424.293,106.739 C 424.262,106.771 424.246,106.802 424.246,106.867 C 424.422,107.044 424.406,107.285 424.164,107.574 L 424.164,107.574 C 424.053,107.622 424.019,107.752 424.084,107.993 C 423.748,108.025 423.586,108.234 423.602,108.635 C 423.602,108.685 423.602,108.734 423.602,108.797 C 423.362,108.828 423.184,108.908 423.071,109.07 C 423.04,109.102 423.024,109.118 422.96,109.118 C 422.96,109.6 422.8,109.906 422.462,110.052 C 422.204,110.18 422.155,110.405 422.317,110.726 C 422.155,110.984 422.028,111.065 421.915,110.951 C 421.915,110.951 421.884,110.984 421.819,110.999 C 421.786,111.033 421.739,111.048 421.674,111.048 C 421.19,111.53 420.758,112.044 420.307,112.561 C 420.307,112.561 420.307,112.593 420.307,112.657 L 420.227,112.657 C 420.131,112.849 419.938,112.883 419.696,112.753 L 419.663,112.722 C 419.567,112.609 419.44,112.625 419.263,112.818 C 419.103,113.252 418.732,113.493 418.138,113.526 C 418.089,113.526 418.025,113.558 417.96,113.573 C 417.702,113.719 417.48,113.846 417.253,114.009 L 417.3,114.121 C 417.318,114.153 417.333,114.201 417.333,114.266 C 417.013,114.444 416.675,114.412 416.319,114.202 C 416.288,114.186 416.255,114.202 416.192,114.219 C 416.159,114.25 416.112,114.267 416.046,114.267 C 416.112,114.718 415.952,114.861 415.532,114.686 C 415.501,114.668 415.452,114.668 415.389,114.686 C 415.194,114.718 415.034,114.718 414.889,114.686 C 414.858,114.668 414.809,114.686 414.744,114.701 C 414.551,114.781 414.342,114.847 414.117,114.91 C 414.021,114.654 413.941,114.701 413.861,115.039 C 413.828,115.297 413.763,115.28 413.65,114.96 C 413.634,114.928 413.586,114.91 413.472,114.91 C 413.376,114.91 413.263,114.91 413.152,114.91 C 413.121,115.248 412.943,115.248 412.636,114.942 C 412.607,114.927 412.574,114.91 412.509,114.91 C 412.347,115.169 412.22,115.248 412.107,115.135 C 412.107,115.135 412.076,115.169 412.011,115.2 C 411.913,115.28 411.818,115.328 411.704,115.392 C 411.464,115.296 411.206,115.247 410.901,115.247 C 410.547,115.231 410.465,115.134 410.659,114.975 L 410.579,114.91 C 410.114,114.813 409.841,114.91 409.696,115.135 L 409.614,115.072 C 409.518,114.961 409.405,114.847 409.294,114.75 C 408.956,114.606 408.618,114.702 408.296,115.024 C 408.265,115.04 408.232,115.072 408.167,115.072 C 407.847,115.009 407.589,114.911 407.349,114.782 C 407.316,114.75 407.269,114.75 407.204,114.75 C 406.946,114.461 406.688,114.204 406.384,113.979 C 406.335,113.962 406.304,113.947 406.238,113.947 C 406.111,114.059 405.902,114.011 405.582,113.802 C 405.131,113.495 404.68,113.175 404.213,112.853 C 404.166,112.837 404.135,112.773 404.068,112.693 C 403.988,112.531 403.797,112.468 403.506,112.499 C 403.395,112.081 403.106,111.809 402.688,111.712 C 402.655,111.696 402.606,111.696 402.542,111.696 C 401.659,110.797 400.888,109.816 400.194,108.754 C 400.147,108.673 400.116,108.593 400.067,108.513 C 400.003,108.385 399.954,108.241 399.889,108.112 C 399.827,107.983 399.809,107.839 399.809,107.677 C 399.455,107.501 399.151,107.243 398.957,106.906 C 398.924,106.874 398.908,106.874 398.846,106.874 C 398.604,106.183 398.362,105.492 398.121,104.801 C 398.121,104.784 398.105,104.784 398.041,104.784 C 397.992,104.35 398.025,104.028 398.121,103.819 L 398.041,103.819 C 397.639,102.966 397.479,101.906 397.543,100.604 C 397.559,100.541 397.559,100.492 397.559,100.443 C 398.106,100.541 398.379,100.395 398.426,99.962 C 398.426,99.85 398.444,99.736 398.459,99.625 C 398.508,99.255 398.572,98.9 398.668,98.548 C 398.668,98.516 398.748,98.516 398.846,98.516 C 398.668,98.146 398.653,97.809 398.813,97.519 C 398.958,97.23 399.022,96.86 399.004,96.426 C 399.391,96.378 399.551,96.104 399.488,95.621 C 399.488,95.558 399.488,95.51 399.488,95.461 C 399.826,95.252 400.082,94.979 400.258,94.641 C 400.276,94.594 400.291,94.545 400.291,94.496 C 400.131,94.047 400.18,93.71 400.404,93.469 C 400.629,93.21 400.806,92.905 400.933,92.568 C 401.594,92.466 402.043,92.144 402.27,91.598 z M 401.096,90.794 C 401.047,90.843 400.998,90.892 400.967,90.954 C 400.678,91.5 400.324,91.935 399.889,92.305 C 399.842,92.369 399.793,92.417 399.762,92.466 C 399.455,92.884 399.086,93.237 398.684,93.527 C 398.684,93.576 398.668,93.625 398.668,93.673 C 398.443,94.349 398.121,94.943 397.719,95.457 C 397.719,95.394 397.703,95.345 397.688,95.297 C 397.655,95.233 397.622,95.216 397.608,95.216 C 397.206,95.377 396.883,95.617 396.594,95.94 C 396.432,96.358 396.354,96.904 396.354,97.547 C 396.354,97.596 396.354,97.644 396.336,97.708 C 396.289,98.239 396.256,98.77 396.223,99.3 C 396.192,99.508 396.192,99.733 396.192,99.958 C 396.223,100.504 396.128,100.938 395.952,101.244 C 396.112,101.502 396.192,101.871 396.192,102.369 C 396.192,102.417 396.192,102.48 396.21,102.53 C 396.257,102.802 396.306,103.044 396.355,103.301 C 396.498,103.879 396.58,104.522 396.595,105.262 C 396.659,105.262 396.675,105.262 396.675,105.279 C 396.964,106.002 397.206,106.742 397.4,107.513 C 397.462,107.513 397.48,107.513 397.496,107.544 C 397.56,107.705 397.705,107.786 397.881,107.834 C 397.881,108.027 397.93,108.204 397.979,108.348 C 398.077,108.541 398.188,108.718 398.284,108.896 C 399.491,110.84 400.954,112.513 402.706,113.944 C 403.317,114.201 403.895,114.474 404.442,114.796 C 404.635,114.908 404.858,115.006 405.102,115.086 C 405.969,115.343 406.772,115.663 407.528,116.034 C 407.592,116.034 407.641,116.034 407.688,116.034 C 407.915,116.034 408.124,116.034 408.333,116.034 C 408.333,116.083 408.333,116.097 408.349,116.113 C 408.896,116.243 409.378,116.419 409.779,116.676 C 409.845,116.676 409.892,116.661 409.925,116.644 C 409.989,116.612 410.038,116.596 410.068,116.612 C 410.214,116.644 410.375,116.644 410.568,116.612 C 410.632,116.596 410.697,116.596 410.728,116.612 C 411.306,116.725 412.015,116.725 412.82,116.612 C 412.882,116.596 412.947,116.581 412.996,116.581 C 414.314,116.517 415.439,116.275 416.371,115.872 C 416.693,115.776 417.176,115.648 417.803,115.454 C 417.963,115.407 418.141,115.358 418.317,115.295 C 418.688,115.198 418.895,114.958 418.944,114.587 C 419.171,114.523 419.346,114.443 419.538,114.33 C 419.876,114.153 420.247,114.009 420.712,113.944 C 421.114,113.526 421.517,113.14 421.919,112.722 C 421.983,112.674 422.017,112.625 422.079,112.562 C 422.145,112.513 422.177,112.481 422.225,112.448 C 422.385,112.368 422.53,112.272 422.627,112.144 C 423.188,111.532 423.766,110.937 424.41,110.407 C 424.41,110.343 424.41,110.295 424.443,110.263 C 425.119,108.91 425.824,107.576 426.5,106.227 C 426.5,106.164 426.5,106.115 426.5,106.066 C 426.467,105.488 426.564,105.052 426.82,104.78 C 426.886,104.716 426.886,104.683 426.886,104.652 C 426.82,104.491 426.82,104.265 426.886,103.975 C 426.886,103.927 426.902,103.847 426.917,103.798 C 427.046,103.172 427.093,102.753 427.062,102.512 C 427.015,101.661 426.966,100.809 426.902,99.957 C 426.886,99.603 426.838,99.217 426.82,98.832 C 426.771,98.077 426.611,97.434 426.34,96.902 C 426.387,96.259 426.227,95.825 425.873,95.6 C 425.809,95.552 425.762,95.504 425.744,95.44 C 425.664,95.231 425.551,95.038 425.439,94.861 C 425.119,94.314 424.81,93.705 424.57,93.045 C 424.521,93.045 424.474,93.028 424.459,92.996 C 423.639,92.143 422.77,91.356 421.838,90.634 C 421.838,90.57 421.822,90.536 421.807,90.488 C 421.725,90.361 421.678,90.2 421.678,89.991 C 421.356,89.766 421.051,89.525 420.762,89.284 C 420.471,89.026 420.182,88.817 419.86,88.641 C 419.733,88.561 419.604,88.512 419.491,88.432 C 419.233,88.286 418.977,88.142 418.735,87.997 C 418.608,87.915 418.479,87.868 418.35,87.803 C 417.963,87.611 417.577,87.435 417.176,87.257 C 416.694,87.24 416.276,87.16 415.906,87.032 C 415.535,86.904 415.086,86.791 414.619,86.694 C 413.799,86.517 412.9,86.421 411.871,86.356 C 411.822,86.356 411.775,86.356 411.725,86.373 C 411.454,86.437 411.131,86.437 410.745,86.373 C 410.698,86.356 410.649,86.373 410.6,86.373 C 410.28,86.437 409.911,86.485 409.459,86.518 C 409.01,86.55 408.672,86.535 408.494,86.454 L 408.494,86.518 C 408.205,86.502 408.045,86.582 408.012,86.776 C 407.963,86.776 407.916,86.776 407.852,86.776 C 407.594,86.776 407.321,86.776 407.047,86.776 C 406.936,86.967 406.711,87.096 406.404,87.161 C 406.162,87.194 405.906,87.258 405.617,87.338 C 405.166,87.484 404.765,87.692 404.426,87.982 C 404.235,88.143 404.072,88.287 403.912,88.448 C 403.848,88.513 403.816,88.562 403.752,88.609 C 402.912,89.396 402.027,90.119 401.096,90.794 z "
   id="path179" />

	<path
   d="M 402.381,91.438 C 402.332,91.486 402.283,91.535 402.27,91.598 C 402.043,92.144 401.594,92.466 400.934,92.563 C 400.807,92.9 400.629,93.206 400.405,93.464 C 400.18,93.705 400.132,94.042 400.292,94.491 C 400.292,94.54 400.276,94.589 400.259,94.636 C 400.083,94.974 399.827,95.247 399.489,95.456 C 399.489,95.505 399.489,95.553 399.489,95.616 C 399.551,96.098 399.391,96.373 399.005,96.421 C 399.023,96.855 398.958,97.225 398.814,97.514 C 398.654,97.804 398.669,98.141 398.847,98.511 C 398.749,98.511 398.669,98.511 398.669,98.543 C 398.573,98.896 398.509,99.25 398.46,99.62 C 398.444,99.731 398.427,99.845 398.427,99.957 C 398.38,100.391 398.107,100.536 397.56,100.438 C 397.56,100.487 397.56,100.536 397.544,100.599 C 397.48,101.901 397.64,102.961 398.042,103.814 L 398.122,103.814 C 398.026,104.023 397.993,104.345 398.042,104.779 C 398.106,104.779 398.122,104.779 398.122,104.796 C 398.362,105.487 398.604,106.178 398.847,106.869 C 398.909,106.869 398.925,106.869 398.958,106.901 C 399.151,107.239 399.456,107.497 399.81,107.672 C 399.81,107.833 399.828,107.978 399.89,108.107 C 399.954,108.236 400.003,108.38 400.068,108.508 C 400.117,108.588 400.148,108.668 400.195,108.749 C 400.888,109.811 401.66,110.792 402.543,111.691 C 402.607,111.691 402.656,111.691 402.689,111.707 C 403.107,111.804 403.396,112.076 403.507,112.494 C 403.798,112.464 403.989,112.526 404.069,112.688 C 404.135,112.768 404.167,112.833 404.214,112.848 C 404.681,113.17 405.132,113.491 405.583,113.797 C 405.903,114.006 406.112,114.054 406.239,113.942 C 406.305,113.942 406.337,113.958 406.385,113.974 C 406.69,114.199 406.947,114.455 407.205,114.745 C 407.269,114.745 407.316,114.745 407.35,114.777 C 407.59,114.906 407.848,115.004 408.168,115.067 C 408.232,115.067 408.266,115.035 408.297,115.019 C 408.619,114.697 408.957,114.601 409.295,114.745 C 409.406,114.843 409.52,114.956 409.615,115.067 L 409.697,115.13 C 409.842,114.905 410.115,114.809 410.58,114.905 L 410.66,114.97 C 410.467,115.129 410.549,115.227 410.902,115.242 C 411.207,115.242 411.464,115.291 411.705,115.387 C 411.818,115.323 411.914,115.275 412.012,115.195 C 412.076,115.164 412.108,115.13 412.108,115.13 C 412.221,115.243 412.348,115.164 412.51,114.905 C 412.574,114.905 412.608,114.923 412.637,114.937 C 412.944,115.243 413.121,115.243 413.153,114.905 C 413.264,114.905 413.378,114.905 413.473,114.905 C 413.586,114.905 413.635,114.923 413.651,114.955 C 413.764,115.275 413.829,115.292 413.862,115.034 C 413.942,114.696 414.022,114.649 414.118,114.905 C 414.343,114.842 414.552,114.776 414.745,114.696 C 414.809,114.681 414.858,114.664 414.89,114.681 C 415.035,114.713 415.195,114.713 415.39,114.681 C 415.452,114.663 415.501,114.663 415.533,114.681 C 415.953,114.856 416.113,114.713 416.047,114.262 C 416.113,114.262 416.16,114.245 416.193,114.214 C 416.255,114.197 416.289,114.182 416.32,114.197 C 416.675,114.407 417.013,114.439 417.334,114.261 C 417.334,114.197 417.318,114.149 417.301,114.116 L 417.254,114.004 C 417.481,113.842 417.703,113.715 417.961,113.568 C 418.025,113.553 418.09,113.521 418.139,113.521 C 418.733,113.488 419.104,113.247 419.264,112.813 C 419.442,112.621 419.569,112.604 419.664,112.717 L 419.697,112.748 C 419.939,112.878 420.133,112.845 420.228,112.652 L 420.308,112.652 C 420.308,112.589 420.308,112.556 420.308,112.556 C 420.759,112.039 421.191,111.526 421.675,111.043 C 421.739,111.043 421.786,111.028 421.82,110.994 C 421.884,110.979 421.916,110.946 421.916,110.946 C 422.029,111.06 422.156,110.979 422.318,110.721 C 422.156,110.4 422.205,110.175 422.463,110.047 C 422.801,109.901 422.961,109.596 422.961,109.113 C 423.025,109.113 423.041,109.097 423.072,109.065 C 423.185,108.903 423.363,108.823 423.603,108.792 C 423.603,108.729 423.603,108.68 423.603,108.63 C 423.587,108.23 423.749,108.021 424.085,107.988 C 424.021,107.747 424.054,107.617 424.165,107.569 L 424.165,107.569 C 424.407,107.28 424.423,107.039 424.247,106.862 C 424.247,106.798 424.263,106.766 424.294,106.734 C 424.808,106.298 425.065,105.592 425.05,104.612 C 425.116,104.612 425.13,104.594 425.13,104.594 C 425.194,104.194 425.339,103.871 425.532,103.647 C 425.532,103.261 425.501,102.891 425.436,102.522 C 425.387,102.361 425.436,102.087 425.581,101.717 C 425.597,101.668 425.612,101.605 425.612,101.557 C 425.612,101.445 425.612,101.332 425.612,101.236 C 425.643,100.127 425.452,99.275 425.05,98.665 L 425.13,98.665 C 425.05,98.343 425.034,97.973 425.05,97.539 C 424.954,97.475 424.874,97.41 424.825,97.315 C 424.761,97.202 424.696,97.056 424.632,96.945 C 424.392,96.446 424.263,95.835 424.247,95.128 C 424.085,94.743 423.892,94.405 423.669,94.1 C 423.409,93.762 423.138,93.423 422.864,93.102 C 422.382,92.54 421.93,91.914 421.512,91.27 C 421.463,91.27 421.416,91.253 421.367,91.221 C 421.256,91.158 421.078,91.109 420.869,91.109 C 420.869,91.046 420.853,90.998 420.838,90.948 C 420.645,90.563 420.291,90.354 419.744,90.305 C 419.744,90.242 419.728,90.193 419.713,90.145 C 419.68,90.081 419.631,90.032 419.567,89.984 C 419.182,89.678 418.747,89.422 418.282,89.213 C 417.72,88.955 417.188,88.682 416.69,88.376 C 416.641,88.376 416.594,88.36 416.53,88.36 C 415.919,88.199 415.389,88.199 414.921,88.376 C 414.921,88.313 414.907,88.265 414.89,88.217 C 414.859,88.153 414.826,88.119 414.761,88.136 C 414.183,88.185 413.796,88.056 413.636,87.734 C 413.587,87.734 413.54,87.734 413.474,87.734 C 412.978,87.797 412.622,87.734 412.349,87.574 C 412.3,87.574 412.253,87.574 412.253,87.589 C 412.206,87.687 412.173,87.735 412.173,87.735 C 411.706,87.784 411.384,87.944 411.224,88.218 C 411.175,88.154 411.128,88.105 411.064,88.057 C 411.015,87.993 410.953,87.959 410.888,87.959 C 410.695,87.91 410.486,87.863 410.292,87.798 C 410.163,87.75 410.003,87.75 409.794,87.816 C 409.28,87.96 408.7,88.057 408.009,88.121 C 407.96,88.121 407.913,88.121 407.849,88.121 C 407.64,88.121 407.271,88.138 406.722,88.219 C 406.722,88.267 406.708,88.299 406.691,88.299 C 406.226,88.508 405.759,88.7 405.277,88.861 C 405.228,88.909 405.179,88.957 405.164,89.021 C 405.133,89.118 405.102,89.182 405.035,89.231 C 404.875,89.343 404.764,89.504 404.697,89.68 C 404.65,89.761 404.617,89.842 404.552,89.889 C 404.49,89.953 404.458,90 404.441,90.05 C 404.248,90.37 403.894,90.517 403.347,90.468 C 403.088,90.857 402.768,91.18 402.381,91.438 z "
   id="path181"
   style="fill:#b2bcba" />

	<path
   d="M 415.822,98.8 C 415.836,98.832 415.853,98.849 415.853,98.896 C 416.318,98.961 416.689,99.105 416.96,99.364 C 416.993,99.394 417.058,99.443 417.122,99.475 C 418.184,100.15 419.276,100.777 420.401,101.387 C 418.778,102.32 417.089,103.204 415.37,104.056 C 414.872,104.314 414.356,104.571 413.86,104.843 C 413.714,104.924 413.553,105.004 413.393,105.086 C 413.055,105.262 412.686,105.455 412.332,105.664 C 412.17,105.535 411.994,105.407 411.848,105.262 C 411.832,105.231 411.817,105.199 411.817,105.165 C 411.495,105.133 411.288,105.004 411.19,104.764 C 411.172,104.715 411.172,104.683 411.172,104.636 C 410.916,104.652 410.738,104.619 410.627,104.538 C 410.578,104.521 410.563,104.506 410.514,104.506 C 410.323,104.137 409.985,103.879 409.518,103.734 C 409.487,103.718 409.454,103.703 409.405,103.655 C 409.358,103.606 409.294,103.575 409.212,103.575 C 408.972,103.557 408.843,103.446 408.81,103.205 C 408.539,103.141 408.265,103.076 408.023,102.963 C 407.992,102.948 407.959,102.932 407.912,102.932 C 407.574,102.449 407.123,102.064 406.627,101.758 C 406.096,101.436 405.662,101.067 405.309,100.601 C 405.051,100.601 404.889,100.504 404.809,100.329 C 404.793,100.297 404.778,100.265 404.778,100.199 C 404.489,100.199 404.278,100.119 404.167,99.927 C 404.149,99.895 404.136,99.862 404.136,99.815 C 404.458,99.83 404.763,99.911 405.019,100.008 C 405.035,100.023 405.035,100.023 405.035,100.07 C 405.533,100.07 405.969,100.088 406.353,100.135 C 406.708,100.183 407.044,100.231 407.382,100.248 C 407.655,100.264 407.913,100.264 408.169,100.264 C 408.571,100.248 408.894,100.296 409.12,100.424 C 409.182,100.44 409.263,100.472 409.343,100.472 C 409.634,100.504 409.843,100.457 410.003,100.343 C 410.148,100.553 410.405,100.633 410.806,100.537 C 411.113,100.472 411.402,100.439 411.693,100.424 C 411.851,100.407 412.029,100.392 412.207,100.392 C 412.254,100.392 412.287,100.377 412.318,100.329 C 412.336,100.297 412.336,100.265 412.336,100.199 C 412.367,99.829 412.158,99.669 411.676,99.75 C 411.643,99.75 411.612,99.75 411.547,99.75 C 411.162,99.75 410.856,99.718 410.631,99.638 C 410.582,99.638 410.567,99.622 410.502,99.638 C 410.133,99.669 409.777,99.622 409.473,99.525 C 408.975,99.366 408.541,99.301 408.155,99.332 C 407.657,99.396 407.126,99.429 406.612,99.429 C 406.421,99.22 406.083,99.173 405.567,99.285 C 405.518,99.302 405.487,99.302 405.438,99.302 C 405.213,99.045 404.811,98.932 404.264,98.964 C 404.215,98.98 404.186,98.98 404.137,98.98 C 403.83,99.013 403.719,98.899 403.733,98.659 C 404.186,98.562 404.602,98.451 405.02,98.338 C 405.036,98.321 405.036,98.306 405.036,98.257 C 405.487,98.369 405.921,98.321 406.388,98.081 C 406.484,98.033 406.597,97.969 406.71,97.92 C 407.255,97.663 407.866,97.452 408.558,97.293 C 408.847,97.229 409.105,97.1 409.331,96.939 C 409.474,96.827 409.7,96.763 410.005,96.763 C 410.052,96.763 410.085,96.747 410.101,96.683 C 410.119,96.65 410.119,96.601 410.119,96.57 C 410.568,96.634 410.89,96.554 411.066,96.328 C 411.099,96.328 411.13,96.313 411.177,96.313 C 411.404,96.184 411.677,96.216 411.982,96.393 C 412.175,96.505 412.351,96.634 412.529,96.763 C 412.578,96.81 412.593,96.875 412.593,96.956 C 413.029,97.004 413.364,97.147 413.607,97.39 C 413.623,97.39 413.638,97.438 413.638,97.47 C 414.105,97.631 414.476,97.856 414.781,98.161 C 414.812,98.178 414.812,98.209 414.812,98.257 C 415.07,98.306 415.294,98.369 415.47,98.498 C 415.519,98.515 415.552,98.515 415.583,98.515 C 415.676,98.591 415.758,98.687 415.822,98.8 z M 419.631,105.02 C 419.631,104.972 419.631,104.94 419.631,104.892 C 419.631,104.811 419.649,104.731 419.695,104.683 C 419.953,104.426 420.097,104.056 420.144,103.591 C 420.144,103.557 420.13,103.51 420.113,103.493 C 419.904,103.22 419.744,102.914 419.631,102.56 C 419.953,102.27 420.338,102.046 420.789,101.901 C 421.256,101.756 421.656,101.547 421.978,101.243 C 421.189,100.937 420.498,100.552 419.855,100.117 C 419.212,99.667 418.537,99.233 417.847,98.832 C 416.253,97.883 414.663,96.952 413.072,95.986 C 412.847,95.841 412.67,95.648 412.59,95.392 C 412.557,95.392 412.51,95.375 412.477,95.359 C 412.092,95.198 411.674,95.054 411.174,94.99 C 411.127,95.278 410.967,95.425 410.645,95.44 C 410.387,95.456 410.163,95.504 409.971,95.6 C 409.907,95.632 409.825,95.665 409.76,95.697 C 409.295,95.875 408.877,96.083 408.442,96.308 C 408.395,96.259 408.346,96.244 408.297,96.244 C 408.25,96.244 408.217,96.26 408.152,96.26 C 407.992,96.323 407.832,96.389 407.654,96.421 C 407.574,96.566 407.429,96.662 407.269,96.726 C 407.22,96.744 407.171,96.759 407.123,96.759 C 406.834,96.806 406.561,96.855 406.352,96.935 C 406.081,97.047 405.823,97.128 405.582,97.24 C 405.516,97.273 405.484,97.29 405.42,97.305 C 404.649,97.595 403.877,97.868 403.106,98.174 C 402.913,98.253 402.688,98.334 402.446,98.414 C 402.366,98.447 402.19,98.526 401.915,98.655 C 402.237,98.848 402.431,99.056 402.446,99.265 C 402.464,99.474 402.43,99.988 402.284,100.808 C 401.915,100.92 401.723,100.984 401.723,101.001 C 401.545,101.386 401.577,101.66 401.819,101.885 C 401.757,101.837 401.641,101.901 401.514,102.078 C 401.385,102.269 401.256,102.431 401.145,102.577 C 401.063,102.93 400.999,103.203 400.934,103.332 C 400.854,103.476 400.789,103.653 400.694,103.863 C 400.598,104.087 400.565,104.263 400.581,104.44 C 400.599,104.618 400.517,104.89 400.39,105.26 C 400.439,105.212 400.661,104.6 401.064,103.411 C 401.466,102.236 401.355,102.849 400.726,105.228 C 400.533,106.707 400.79,105.822 401.497,102.59 L 400.952,105.58 C 400.968,105.661 400.999,105.902 401.032,106.255 L 401.723,102.381 C 401.481,104.246 401.321,105.339 401.241,105.661 C 401.177,105.885 401.145,106.143 401.145,106.448 C 401.176,106.448 401.207,106.448 401.207,106.448 C 401.32,105.789 401.545,104.438 401.885,102.396 C 401.819,104.277 401.787,105.371 401.756,105.661 C 401.723,106.047 401.772,106.287 401.914,106.448 C 401.914,106.24 401.947,106.013 401.963,105.804 C 401.979,105.773 401.979,105.724 401.979,105.66 C 401.963,105.289 401.997,104.293 402.077,102.684 C 402.141,104.164 402.19,104.935 402.173,105.015 L 402.173,105.015 C 402.142,105.578 402.237,106.012 402.446,106.319 C 402.446,106.142 402.446,105.965 402.415,105.803 C 402.366,105.403 402.333,104.324 402.302,102.588 C 402.48,104.164 402.575,104.967 402.591,105.015 C 402.72,105.403 402.882,105.74 403.089,106.061 C 403.089,106.012 403.089,105.964 403.089,105.932 C 403.025,105.561 402.944,105.209 402.831,104.887 C 402.831,104.838 402.802,104.71 402.751,104.501 L 402.575,102.363 C 402.815,104.115 403.024,104.999 403.233,105.014 L 402.831,102.347 C 403.249,104.099 403.427,104.774 403.409,104.356 C 403.409,104.324 403.409,104.292 403.409,104.259 C 403.362,104.163 403.362,104.018 403.409,103.841 C 403.409,103.809 403.409,103.778 403.409,103.76 C 403.315,103.617 403.266,103.391 403.298,103.07 C 403.298,103.023 403.298,102.991 403.298,102.957 C 403.362,102.524 403.202,102.186 402.831,101.943 C 402.849,101.928 402.929,101.784 403.042,101.559 C 403.153,101.301 403.024,101.077 402.655,100.915 C 402.704,100.803 402.751,100.706 402.751,100.594 C 402.751,100.497 402.784,100.37 402.882,100.224 C 402.993,100.063 403.089,99.983 403.234,99.952 C 403.234,99.983 403.234,100.015 403.25,100.015 C 403.75,100.304 404.137,100.706 404.393,101.238 C 404.442,101.238 404.473,101.238 404.522,101.269 C 404.747,101.334 404.924,101.461 405.036,101.623 C 404.974,101.833 404.858,101.961 404.682,102.074 C 404.313,102.3 404.137,102.716 404.137,103.328 C 404.651,103.89 405.18,104.453 405.727,104.999 C 406.274,105.53 406.836,106.061 407.383,106.574 C 407.754,106.687 408.123,106.816 408.444,106.945 C 408.813,107.105 409.202,107.217 409.618,107.282 C 409.956,107.345 410.214,107.444 410.389,107.619 C 410.422,107.619 410.469,107.619 410.518,107.619 C 410.776,107.619 411.049,107.619 411.291,107.619 C 411.42,107.749 411.596,107.86 411.787,107.941 C 411.933,107.99 412.078,108.054 412.207,108.15 C 412.818,108.135 413.314,108.022 413.734,107.813 C 413.796,107.781 413.863,107.732 413.943,107.7 C 414.263,107.571 414.57,107.41 414.81,107.234 C 414.859,107.234 414.908,107.234 414.939,107.234 C 415.117,107.234 415.293,107.234 415.468,107.234 C 415.63,107.088 415.837,106.977 416.113,106.927 C 416.369,106.864 416.595,106.768 416.82,106.655 C 416.916,106.606 417.013,106.559 417.125,106.51 C 417.641,106.269 418.17,106.044 418.717,105.802 C 418.717,105.754 418.733,105.739 418.748,105.706 C 419.053,105.487 419.326,105.262 419.631,105.02 z "
   id="path183" />

	<path
   d="M 415.854,98.896 C 415.854,98.849 415.836,98.833 415.823,98.8 C 415.759,98.687 415.677,98.591 415.581,98.511 C 415.55,98.511 415.517,98.511 415.468,98.494 C 415.292,98.365 415.068,98.302 414.81,98.253 C 414.81,98.205 414.81,98.174 414.779,98.157 C 414.474,97.851 414.103,97.627 413.636,97.466 C 413.636,97.434 413.62,97.386 413.605,97.386 C 413.363,97.144 413.027,97 412.591,96.952 C 412.591,96.871 412.575,96.806 412.527,96.759 C 412.349,96.63 412.173,96.501 411.98,96.389 C 411.675,96.212 411.402,96.18 411.175,96.309 C 411.128,96.309 411.097,96.324 411.064,96.324 C 410.888,96.551 410.566,96.631 410.117,96.566 C 410.117,96.597 410.117,96.646 410.099,96.679 C 410.083,96.743 410.05,96.759 410.003,96.759 C 409.698,96.759 409.472,96.822 409.329,96.935 C 409.102,97.096 408.845,97.225 408.556,97.289 C 407.865,97.448 407.253,97.659 406.708,97.916 C 406.595,97.965 406.481,98.029 406.386,98.077 C 405.919,98.317 405.486,98.365 405.034,98.253 C 405.034,98.302 405.034,98.317 405.018,98.334 C 404.6,98.447 404.184,98.559 403.731,98.655 C 403.717,98.895 403.829,99.009 404.135,98.976 C 404.184,98.976 404.213,98.976 404.262,98.96 C 404.809,98.928 405.211,99.041 405.436,99.298 C 405.485,99.298 405.516,99.298 405.565,99.281 C 406.081,99.169 406.419,99.216 406.61,99.425 C 407.124,99.425 407.655,99.393 408.153,99.328 C 408.54,99.298 408.973,99.362 409.471,99.521 C 409.776,99.619 410.131,99.666 410.5,99.634 C 410.564,99.618 410.58,99.634 410.629,99.634 C 410.854,99.714 411.16,99.746 411.545,99.746 C 411.609,99.746 411.641,99.746 411.674,99.746 C 412.156,99.665 412.365,99.825 412.334,100.195 C 412.334,100.26 412.334,100.293 412.316,100.325 C 412.285,100.374 412.252,100.388 412.205,100.388 C 412.027,100.388 411.85,100.404 411.691,100.42 C 411.4,100.436 411.111,100.468 410.804,100.533 C 410.404,100.629 410.146,100.549 410.001,100.339 C 409.841,100.453 409.632,100.5 409.341,100.468 C 409.261,100.468 409.181,100.436 409.118,100.42 C 408.891,100.292 408.569,100.244 408.167,100.26 C 407.911,100.26 407.653,100.26 407.38,100.244 C 407.042,100.226 406.706,100.179 406.351,100.131 C 405.966,100.083 405.531,100.066 405.033,100.066 C 405.033,100.018 405.033,100.018 405.017,100.004 C 404.761,99.906 404.456,99.825 404.134,99.811 C 404.134,99.858 404.148,99.891 404.165,99.923 C 404.276,100.115 404.487,100.195 404.776,100.195 C 404.776,100.26 404.792,100.293 404.807,100.325 C 404.887,100.501 405.049,100.597 405.307,100.597 C 405.661,101.063 406.094,101.432 406.625,101.754 C 407.121,102.06 407.572,102.444 407.91,102.928 C 407.957,102.928 407.99,102.945 408.021,102.959 C 408.263,103.072 408.537,103.137 408.808,103.201 C 408.841,103.442 408.97,103.554 409.21,103.571 C 409.292,103.571 409.356,103.602 409.403,103.651 C 409.452,103.699 409.485,103.714 409.516,103.73 C 409.983,103.876 410.321,104.133 410.512,104.502 C 410.561,104.502 410.576,104.518 410.625,104.534 C 410.736,104.615 410.914,104.647 411.17,104.632 C 411.17,104.679 411.17,104.711 411.188,104.76 C 411.286,105 411.493,105.129 411.815,105.161 C 411.815,105.194 411.831,105.226 411.846,105.258 C 411.992,105.404 412.168,105.531 412.33,105.66 C 412.684,105.451 413.053,105.258 413.391,105.082 C 413.551,105 413.711,104.92 413.858,104.839 C 414.354,104.567 414.87,104.31 415.368,104.052 C 417.087,103.2 418.776,102.316 420.399,101.383 C 419.274,100.773 418.182,100.146 417.12,99.471 C 417.056,99.439 416.991,99.39 416.958,99.36 C 416.689,99.104 416.318,98.961 415.854,98.896 z "
   id="path185"
   style="fill:#ffffff" />

	<g
   id="g187">
		<path
   d="M 422.984,106.218 C 422.892,106.2 422.8,106.2 422.726,106.163 C 422.706,106.163 422.689,106.163 422.669,106.163 C 422.651,106.163 422.614,106.163 422.577,106.163 C 422.411,106.108 422.263,106.071 422.097,106.052 C 422.023,106.034 421.949,106.034 421.894,106.034 C 421.671,106.071 421.431,106.108 421.191,106.126 C 421.082,106.181 420.951,106.218 420.804,106.255 C 420.673,106.292 420.527,106.312 420.415,106.384 C 420.046,106.532 419.677,106.681 419.343,106.884 C 419.251,106.939 419.197,106.976 419.122,107.032 C 419.028,107.087 418.956,107.141 418.862,107.178 C 418.716,107.307 418.567,107.418 418.401,107.567 C 418.124,107.807 417.901,108.102 417.661,108.399 L 417.661,108.399 C 417.643,108.417 417.624,108.417 417.587,108.417 C 417.587,108.417 417.587,108.417 417.587,108.437 C 417.569,108.437 417.552,108.455 417.532,108.474 C 417.532,108.474 417.532,108.474 417.514,108.474 C 417.494,108.474 417.477,108.474 417.457,108.474 C 417.439,108.511 417.383,108.529 417.365,108.566 C 417.31,108.64 417.273,108.695 417.217,108.75 C 417.143,108.844 417.088,108.973 417.033,109.084 C 416.959,109.268 416.902,109.471 416.81,109.656 C 416.81,109.676 416.81,109.713 416.81,109.73 C 416.81,109.767 416.81,109.785 416.792,109.804 C 416.772,109.988 416.735,110.136 416.681,110.284 L 416.681,110.284 C 416.681,110.376 416.661,110.468 416.626,110.561 C 416.626,110.579 416.626,110.579 416.626,110.579 C 416.626,110.727 416.606,110.893 416.569,111.042 C 416.569,111.337 416.569,111.651 416.569,111.946 L 416.569,111.946 C 416.569,112.02 416.606,112.075 416.626,112.169 L 416.626,112.169 C 416.644,112.298 416.661,112.409 416.661,112.501 L 416.661,112.501 C 416.718,112.612 416.755,112.724 416.792,112.815 C 416.864,113.073 416.938,113.278 417.05,113.499 C 417.05,113.499 417.05,113.517 417.07,113.536 L 417.05,113.536 C 417.087,113.573 417.105,113.628 417.124,113.682 C 417.124,113.682 417.124,113.682 417.142,113.682 C 417.142,113.719 417.162,113.739 417.179,113.793 C 417.179,113.813 417.179,113.813 417.179,113.813 C 417.179,113.831 417.199,113.831 417.199,113.831 L 417.199,113.831 C 417.217,113.868 417.217,113.905 417.217,113.925 C 417.217,113.925 417.217,113.925 417.217,113.943 C 417.328,114.109 417.44,114.275 417.569,114.404 C 417.661,114.478 417.735,114.572 417.827,114.683 C 418.032,114.886 418.216,115.087 418.419,115.273 C 418.513,115.347 418.605,115.421 418.696,115.496 C 418.77,115.551 418.825,115.588 418.882,115.642 C 418.862,115.679 418.862,115.716 418.9,115.753 L 418.9,115.753 C 419.103,115.939 419.343,116.067 419.658,116.179 C 419.769,116.216 419.861,116.234 419.955,116.253 C 420.23,116.382 420.527,116.474 420.859,116.548 C 420.97,116.585 421.082,116.605 421.191,116.622 C 421.302,116.64 421.431,116.677 421.543,116.696 C 421.691,116.696 421.82,116.696 421.969,116.696 C 421.969,116.696 421.969,116.696 421.987,116.696 L 421.987,116.696 C 422.247,116.676 422.467,116.639 422.653,116.622 L 422.653,116.604 C 422.745,116.584 422.837,116.565 422.93,116.528 L 422.93,116.528 C 423.262,116.473 423.557,116.382 423.834,116.27 L 423.834,116.252 C 423.928,116.195 424.02,116.141 424.131,116.123 C 424.277,116.029 424.389,115.955 424.537,115.883 C 424.685,115.826 424.795,115.752 424.889,115.641 C 424.963,115.586 425.035,115.512 425.11,115.457 C 425.184,115.365 425.258,115.291 425.35,115.217 C 425.498,115.086 425.647,114.957 425.776,114.811 C 425.794,114.754 425.85,114.682 425.887,114.645 C 425.959,114.534 426.033,114.44 426.108,114.368 C 426.128,114.294 426.163,114.22 426.2,114.165 C 426.311,114.017 426.403,113.851 426.477,113.647 C 426.514,113.627 426.534,113.573 426.551,113.536 C 426.588,113.462 426.608,113.37 426.643,113.296 C 426.7,113.167 426.754,113.056 426.791,112.907 L 426.791,112.907 C 426.791,112.907 426.791,112.889 426.791,112.87 L 426.811,112.87 C 426.811,112.815 426.829,112.796 426.848,112.778 C 426.848,112.76 426.848,112.76 426.848,112.76 C 426.848,112.76 426.848,112.723 426.848,112.703 C 426.903,112.537 426.94,112.351 426.977,112.168 C 426.977,111.982 427.014,111.836 427.069,111.668 C 427.069,111.613 427.069,111.576 427.051,111.539 C 427.014,111.41 427.014,111.281 427.031,111.15 C 427.068,110.966 427.051,110.781 427.013,110.634 L 427.013,110.614 C 426.993,110.559 426.976,110.522 426.956,110.466 C 426.938,110.466 426.938,110.466 426.956,110.466 C 426.956,110.374 426.956,110.282 426.919,110.171 L 426.919,110.171 C 426.901,109.985 426.827,109.802 426.773,109.616 L 426.773,109.616 C 426.773,109.487 426.716,109.358 426.662,109.247 L 426.662,109.247 C 426.642,109.173 426.625,109.118 426.588,109.061 L 426.588,109.061 C 426.496,108.821 426.348,108.6 426.199,108.397 C 426.199,108.397 426.199,108.397 426.199,108.377 C 426.199,108.377 426.199,108.34 426.199,108.285 L 426.181,108.285 C 426.161,108.211 426.126,108.137 426.089,108.062 C 426.069,108.062 426.069,108.062 426.069,108.062 C 426.051,108.044 426.014,108.007 425.995,107.951 L 425.995,107.951 C 425.977,107.933 425.94,107.916 425.903,107.916 C 425.68,107.713 425.477,107.51 425.237,107.324 C 425.128,107.23 425.034,107.138 424.925,107.047 C 424.685,106.899 424.462,106.733 424.204,106.584 C 424.13,106.584 424.056,106.566 424.018,106.529 C 423.963,106.492 423.907,106.474 423.852,106.455 C 423.704,106.418 423.575,106.381 423.463,106.346 L 423.463,106.346 C 423.408,106.309 423.389,106.289 423.352,106.272 C 423.334,106.272 423.334,106.272 423.315,106.272 C 423.297,106.29 423.28,106.272 423.28,106.252 C 423.188,106.237 423.076,106.218 422.984,106.218 z M 423.373,107.513 C 423.742,107.659 424.074,107.863 424.371,108.085 C 424.408,108.122 424.445,108.14 424.48,108.177 C 424.757,108.4 424.998,108.62 425.238,108.88 C 425.275,108.954 425.332,109.026 425.386,109.083 C 425.386,109.083 425.386,109.083 425.406,109.083 C 425.386,109.12 425.406,109.12 425.406,109.157 L 425.406,109.157 C 425.478,109.266 425.552,109.395 425.609,109.544 L 425.609,109.544 C 425.609,109.564 425.627,109.581 425.609,109.601 C 425.609,109.601 425.609,109.601 425.609,109.619 C 425.627,109.619 425.646,109.619 425.646,109.656 L 425.664,109.656 C 425.664,109.713 425.664,109.767 425.664,109.785 C 425.664,109.785 425.664,109.785 425.664,109.805 C 425.701,109.897 425.756,109.989 425.793,110.117 L 425.793,110.137 C 425.813,110.155 425.83,110.192 425.85,110.229 L 425.85,110.229 C 425.85,110.415 425.942,110.563 426.09,110.637 L 426.09,110.637 C 426.127,110.783 426.145,110.969 426.127,111.153 C 426.127,111.173 426.127,111.19 426.127,111.21 C 426.127,111.302 426.145,111.431 426.162,111.522 C 426.162,111.653 426.182,111.764 426.182,111.856 C 426.162,112.022 426.145,112.188 426.108,112.336 C 426.09,112.354 426.09,112.373 426.09,112.391 C 426.053,112.559 425.996,112.705 425.942,112.871 C 425.868,113 425.813,113.131 425.756,113.297 C 425.664,113.445 425.572,113.611 425.479,113.76 L 425.479,113.76 C 425.424,113.832 425.35,113.906 425.313,113.981 C 425.239,114.055 425.147,114.129 425.055,114.184 C 425.035,114.202 424.998,114.221 424.981,114.239 C 424.852,114.387 424.721,114.536 424.575,114.665 C 424.481,114.757 424.335,114.851 424.206,114.942 C 424.075,115.016 423.946,115.108 423.798,115.165 C 423.632,115.237 423.466,115.311 423.318,115.386 L 423.318,115.386 C 423.3,115.406 423.283,115.406 423.283,115.406 L 423.283,115.424 C 423.078,115.498 422.857,115.535 422.635,115.572 C 422.155,115.609 421.731,115.59 421.324,115.498 C 421.25,115.498 421.138,115.478 421.047,115.498 C 420.99,115.461 420.936,115.443 420.881,115.461 L 420.881,115.461 C 420.861,115.424 420.807,115.424 420.77,115.424 L 420.77,115.424 C 420.436,115.313 420.141,115.201 419.846,115.09 C 419.826,115.09 419.826,115.09 419.809,115.09 C 419.772,115.055 419.698,115.018 419.643,114.961 L 419.643,114.961 C 419.403,114.943 419.217,114.869 419.069,114.74 C 419.069,114.722 419.051,114.722 419.051,114.703 C 418.848,114.537 418.645,114.314 418.459,114.111 C 418.422,114.056 418.385,114.019 418.367,113.965 C 418.144,113.651 417.978,113.299 417.849,112.91 L 417.849,112.91 C 417.829,112.91 417.812,112.892 417.812,112.873 L 417.812,112.873 C 417.775,112.764 417.757,112.67 417.738,112.578 C 417.738,112.449 417.72,112.338 417.72,112.264 C 417.663,112.209 417.646,112.135 417.609,112.078 L 417.609,112.078 C 417.572,111.894 417.554,111.746 417.554,111.56 C 417.572,111.468 417.554,111.414 417.554,111.376 C 417.572,111.247 417.589,111.153 417.589,111.062 L 417.589,111.062 C 417.626,110.951 417.646,110.876 417.646,110.785 C 417.646,110.785 417.646,110.767 417.664,110.73 C 417.664,110.582 417.684,110.416 417.738,110.287 C 417.775,110.156 417.812,110.01 417.849,109.881 C 417.867,109.881 417.886,109.861 417.886,109.861 L 417.904,109.861 C 417.904,109.732 417.941,109.64 417.978,109.584 C 417.998,109.584 417.998,109.584 417.998,109.584 C 417.961,109.641 417.961,109.678 417.961,109.695 C 417.961,109.715 417.961,109.715 417.961,109.715 C 417.979,109.733 418.016,109.77 418.053,109.787 C 418.053,109.787 418.053,109.787 418.071,109.787 C 418.182,109.715 418.276,109.584 418.348,109.455 C 418.385,109.398 418.405,109.344 418.459,109.289 C 418.496,109.215 418.551,109.16 418.588,109.066 C 418.791,108.714 419.031,108.439 419.328,108.199 L 419.328,108.199 C 419.476,108.068 419.623,107.957 419.789,107.865 C 419.937,107.756 420.086,107.681 420.252,107.607 C 420.4,107.552 420.547,107.478 420.713,107.404 C 420.861,107.384 421.01,107.347 421.176,107.31 C 421.268,107.292 421.362,107.273 421.434,107.273 C 421.454,107.273 421.491,107.273 421.528,107.273 C 421.731,107.236 421.934,107.201 422.174,107.144 C 422.615,107.233 423.004,107.364 423.373,107.513 z "
   id="path189" />

		<path
   d="M 424.371,108.085 C 424.074,107.862 423.742,107.659 423.373,107.513 C 423.004,107.365 422.615,107.234 422.172,107.142 C 421.932,107.199 421.729,107.234 421.526,107.271 C 421.489,107.271 421.452,107.271 421.432,107.271 C 421.36,107.271 421.266,107.291 421.174,107.308 C 421.008,107.345 420.86,107.382 420.711,107.402 C 420.545,107.476 420.399,107.55 420.25,107.605 C 420.084,107.679 419.936,107.753 419.787,107.863 C 419.621,107.955 419.475,108.066 419.326,108.197 L 419.326,108.197 C 419.029,108.437 418.789,108.713 418.586,109.064 C 418.549,109.158 418.494,109.212 418.457,109.287 C 418.402,109.342 418.383,109.396 418.346,109.453 C 418.274,109.582 418.18,109.713 418.069,109.785 C 418.051,109.785 418.051,109.785 418.051,109.785 C 418.014,109.767 417.977,109.73 417.959,109.713 C 417.959,109.713 417.959,109.713 417.959,109.693 C 417.959,109.675 417.959,109.638 417.996,109.582 C 417.996,109.582 417.996,109.582 417.976,109.582 C 417.939,109.639 417.902,109.73 417.902,109.859 L 417.884,109.859 C 417.884,109.859 417.864,109.879 417.847,109.879 C 417.81,110.008 417.773,110.154 417.736,110.285 C 417.681,110.414 417.662,110.58 417.662,110.728 C 417.644,110.765 417.644,110.783 417.644,110.783 C 417.644,110.875 417.624,110.949 417.587,111.06 L 417.587,111.06 C 417.587,111.152 417.569,111.246 417.552,111.374 C 417.552,111.411 417.57,111.466 417.552,111.558 C 417.552,111.744 417.57,111.892 417.607,112.076 L 417.607,112.076 C 417.644,112.133 417.662,112.207 417.718,112.262 C 417.718,112.336 417.736,112.448 417.736,112.576 C 417.756,112.668 417.773,112.762 417.81,112.871 L 417.81,112.871 C 417.81,112.891 417.828,112.908 417.847,112.908 L 417.847,112.908 C 417.976,113.297 418.142,113.648 418.365,113.963 C 418.383,114.018 418.42,114.055 418.457,114.109 C 418.643,114.312 418.846,114.535 419.049,114.701 C 419.049,114.721 419.067,114.721 419.067,114.738 C 419.215,114.867 419.401,114.941 419.641,114.959 L 419.641,114.959 C 419.696,115.016 419.77,115.053 419.807,115.088 C 419.825,115.088 419.825,115.088 419.844,115.088 C 420.139,115.199 420.434,115.311 420.768,115.422 L 420.768,115.422 C 420.805,115.422 420.86,115.422 420.879,115.459 L 420.879,115.459 C 420.934,115.441 420.988,115.459 421.045,115.496 C 421.137,115.476 421.248,115.496 421.322,115.496 C 421.728,115.588 422.152,115.607 422.633,115.57 C 422.856,115.533 423.076,115.496 423.281,115.422 L 423.281,115.404 C 423.281,115.404 423.299,115.404 423.316,115.384 L 423.316,115.384 C 423.464,115.31 423.63,115.236 423.796,115.163 C 423.944,115.106 424.073,115.015 424.204,114.94 C 424.333,114.848 424.479,114.754 424.573,114.663 C 424.719,114.534 424.85,114.386 424.979,114.237 C 424.997,114.219 425.034,114.2 425.053,114.182 C 425.145,114.127 425.237,114.053 425.311,113.979 C 425.348,113.905 425.422,113.831 425.477,113.758 L 425.477,113.758 C 425.571,113.61 425.663,113.444 425.754,113.295 C 425.811,113.129 425.865,112.998 425.94,112.869 C 425.995,112.703 426.051,112.557 426.088,112.389 C 426.088,112.371 426.088,112.352 426.106,112.334 C 426.143,112.186 426.161,112.02 426.18,111.854 C 426.18,111.762 426.16,111.651 426.16,111.52 C 426.142,111.428 426.125,111.299 426.125,111.208 C 426.125,111.188 426.125,111.171 426.125,111.151 C 426.143,110.967 426.125,110.782 426.088,110.635 L 426.088,110.635 C 425.94,110.561 425.848,110.412 425.848,110.227 L 425.848,110.227 C 425.828,110.19 425.811,110.153 425.791,110.135 L 425.791,110.115 C 425.754,109.986 425.699,109.894 425.662,109.803 C 425.662,109.783 425.662,109.783 425.662,109.783 C 425.662,109.765 425.662,109.711 425.662,109.654 L 425.644,109.654 C 425.644,109.617 425.624,109.617 425.607,109.617 C 425.607,109.599 425.607,109.599 425.607,109.599 C 425.625,109.579 425.607,109.562 425.607,109.542 L 425.607,109.542 C 425.55,109.394 425.476,109.265 425.404,109.155 L 425.404,109.155 C 425.404,109.118 425.384,109.118 425.404,109.081 C 425.384,109.081 425.384,109.081 425.384,109.081 C 425.329,109.024 425.273,108.952 425.236,108.878 C 424.996,108.618 424.756,108.398 424.478,108.175 C 424.445,108.14 424.408,108.122 424.371,108.085 z M 422.338,109.878 L 422.338,109.878 C 422.356,109.858 422.393,109.841 422.43,109.821 L 422.45,109.821 C 422.468,109.821 422.524,109.821 422.561,109.821 L 422.561,109.821 C 422.764,109.712 423.004,109.581 423.225,109.489 C 423.391,109.432 423.577,109.432 423.743,109.489 C 423.909,109.563 424.075,109.618 424.243,109.675 C 424.427,109.784 424.612,109.915 424.759,110.079 C 424.816,110.116 424.87,110.173 424.907,110.227 C 424.927,110.264 424.927,110.301 424.927,110.338 C 424.927,110.358 424.927,110.358 424.927,110.358 C 424.87,110.413 424.833,110.467 424.741,110.504 L 424.741,110.504 C 424.741,110.524 424.721,110.541 424.704,110.541 C 424.704,110.541 424.704,110.541 424.704,110.561 C 424.649,110.579 424.575,110.598 424.538,110.635 C 424.538,110.635 424.538,110.635 424.538,110.653 C 424.427,110.69 424.315,110.727 424.186,110.745 C 424.186,110.745 424.186,110.745 424.168,110.745 C 424.037,110.653 423.928,110.561 423.779,110.468 C 423.742,110.45 423.668,110.413 423.631,110.413 C 423.594,110.413 423.576,110.376 423.539,110.376 L 423.539,110.376 C 423.502,110.376 423.465,110.376 423.447,110.376 L 423.427,110.376 C 423.298,110.45 423.187,110.505 423.058,110.562 C 423.021,110.58 422.984,110.617 422.947,110.654 C 422.91,110.857 422.91,111.06 422.929,111.3 C 422.947,111.392 422.966,111.503 423.003,111.614 C 423.003,111.632 423.021,111.651 423.021,111.669 C 423.095,111.8 423.224,111.892 423.373,111.929 C 423.521,111.984 423.668,112.021 423.834,112.075 C 423.854,112.075 423.871,112.057 423.908,112.057 C 423.908,112.039 423.908,112.039 423.928,112.039 C 424,111.945 424.094,111.853 424.205,111.762 L 424.205,111.762 C 424.205,111.705 424.223,111.668 424.223,111.631 L 424.223,111.631 C 424.371,111.631 424.481,111.668 424.555,111.742 C 424.555,111.762 424.575,111.762 424.575,111.762 C 424.704,111.836 424.833,111.928 424.944,112.02 L 424.944,112.04 C 424.87,112.132 424.833,112.206 424.796,112.298 L 424.796,112.298 C 424.722,112.427 424.65,112.538 424.538,112.63 C 424.501,112.667 424.464,112.687 424.409,112.704 C 424.315,112.741 424.243,112.778 424.169,112.833 C 423.946,112.87 423.726,112.907 423.503,112.87 C 423.429,112.87 423.317,112.87 423.208,112.87 C 423.005,112.852 422.819,112.796 422.653,112.686 C 422.487,112.575 422.356,112.446 422.227,112.315 C 422.19,112.278 422.172,112.241 422.153,112.206 C 422.061,112.075 421.987,111.966 421.913,111.837 C 421.876,111.743 421.858,111.632 421.841,111.503 C 421.841,111.485 421.841,111.485 421.841,111.466 C 421.841,111.429 421.859,111.411 421.876,111.392 C 421.876,111.357 421.858,111.32 421.858,111.3 L 421.84,111.3 C 421.858,111.152 421.84,111.023 421.82,110.911 L 421.82,110.911 C 421.84,110.856 421.857,110.782 421.875,110.708 C 421.875,110.616 421.912,110.562 421.986,110.542 C 422.08,110.265 422.172,110.044 422.338,109.878 z M 421.986,112.132 C 422.006,112.132 422.006,112.132 422.006,112.132 C 421.969,112.206 421.932,112.298 421.895,112.353 C 421.895,112.353 421.895,112.353 421.895,112.373 C 421.875,112.391 421.858,112.391 421.84,112.391 L 421.84,112.391 C 421.803,112.448 421.803,112.485 421.803,112.522 C 421.803,112.54 421.803,112.54 421.803,112.54 C 421.783,112.577 421.783,112.595 421.766,112.632 C 421.746,112.632 421.746,112.632 421.746,112.632 C 421.617,112.763 421.432,112.855 421.266,112.946 C 421.192,112.983 421.137,113.001 421.063,113.04 C 420.989,113.075 420.879,113.095 420.786,113.095 C 420.602,113.075 420.434,113.075 420.325,113.058 C 420.251,113.058 420.177,113.058 420.122,113.021 C 419.956,112.984 419.825,112.91 419.696,112.855 C 419.585,112.781 419.493,112.726 419.401,112.652 C 419.381,112.632 419.344,112.595 419.327,112.578 C 419.253,112.504 419.179,112.412 419.104,112.338 C 419.029,112.264 419.012,112.172 418.993,112.061 C 418.975,111.95 418.958,111.84 418.921,111.766 C 418.921,111.561 418.901,111.377 418.884,111.248 C 418.884,111.211 418.884,111.191 418.884,111.154 C 418.902,111.062 418.921,110.97 418.921,110.877 L 418.921,110.877 C 418.939,110.822 418.958,110.748 418.958,110.693 L 418.958,110.673 C 419.087,110.47 419.216,110.304 419.382,110.138 C 419.382,110.138 419.382,110.138 419.402,110.138 C 419.494,109.99 419.642,109.861 419.808,109.786 C 419.937,109.731 420.048,109.677 420.16,109.62 C 420.252,109.583 420.326,109.583 420.418,109.583 C 420.547,109.64 420.695,109.677 420.881,109.714 C 420.99,109.714 421.084,109.732 421.176,109.769 C 421.416,109.917 421.619,110.081 421.785,110.287 L 421.785,110.287 C 421.73,110.453 421.637,110.545 421.508,110.639 L 421.508,110.639 C 421.471,110.639 421.434,110.657 421.379,110.657 L 421.379,110.657 C 421.361,110.675 421.324,110.694 421.305,110.731 L 421.305,110.731 C 421.25,110.749 421.176,110.768 421.121,110.749 C 421.101,110.749 421.101,110.749 421.101,110.769 C 421.009,110.749 420.898,110.732 420.806,110.695 C 420.675,110.603 420.509,110.584 420.343,110.658 C 420.325,110.658 420.306,110.658 420.288,110.676 C 420.122,110.77 419.974,110.899 419.899,111.065 C 419.844,111.213 419.825,111.342 419.862,111.491 C 419.862,111.583 419.882,111.657 419.936,111.768 C 419.973,111.842 420.028,111.934 420.102,111.989 C 420.213,112.063 420.305,112.118 420.434,112.155 C 420.545,112.192 420.674,112.212 420.805,112.175 C 420.805,112.175 420.823,112.175 420.842,112.193 C 420.86,112.175 420.879,112.175 420.897,112.175 L 420.897,112.175 C 421.008,112.081 421.083,111.972 421.137,111.843 C 421.155,111.806 421.155,111.786 421.174,111.769 C 421.34,111.769 421.469,111.806 421.617,111.898 C 421.654,111.935 421.728,111.953 421.82,111.972 C 421.894,111.99 421.931,112.027 421.986,112.081 C 421.986,112.095 421.986,112.112 421.986,112.132 z "
   id="path191"
   style="fill:#fdfdfd" />

		<path
   d="M 422.338,109.878 L 422.338,109.878 C 422.172,110.044 422.08,110.265 421.986,110.542 C 421.912,110.562 421.875,110.616 421.875,110.708 C 421.857,110.782 421.84,110.856 421.82,110.911 L 421.82,110.911 C 421.84,111.022 421.857,111.151 421.84,111.3 L 421.858,111.3 C 421.858,111.32 421.876,111.357 421.876,111.392 C 421.858,111.412 421.841,111.429 421.841,111.466 C 421.841,111.486 421.841,111.486 421.841,111.503 C 421.859,111.632 421.876,111.743 421.913,111.837 C 421.987,111.966 422.061,112.075 422.153,112.206 C 422.173,112.241 422.19,112.278 422.227,112.315 C 422.356,112.446 422.487,112.575 422.653,112.686 C 422.819,112.795 423.005,112.852 423.208,112.87 C 423.317,112.87 423.429,112.87 423.503,112.87 C 423.726,112.907 423.946,112.87 424.169,112.833 C 424.243,112.778 424.315,112.741 424.409,112.704 C 424.464,112.686 424.501,112.667 424.538,112.63 C 424.649,112.538 424.722,112.427 424.796,112.298 L 424.796,112.298 C 424.833,112.206 424.87,112.132 424.944,112.04 L 424.944,112.02 C 424.833,111.928 424.704,111.836 424.575,111.762 C 424.575,111.762 424.555,111.762 424.555,111.742 C 424.481,111.668 424.371,111.631 424.223,111.631 L 424.223,111.631 C 424.223,111.668 424.205,111.705 424.205,111.762 L 424.205,111.762 C 424.094,111.854 424,111.946 423.928,112.039 C 423.908,112.039 423.908,112.039 423.908,112.057 C 423.871,112.057 423.853,112.075 423.834,112.075 C 423.668,112.02 423.522,111.983 423.373,111.929 C 423.225,111.892 423.096,111.8 423.021,111.669 C 423.021,111.651 423.003,111.632 423.003,111.614 C 422.966,111.503 422.946,111.391 422.929,111.3 C 422.909,111.06 422.909,110.857 422.947,110.654 C 422.984,110.617 423.021,110.58 423.058,110.562 C 423.187,110.505 423.298,110.451 423.427,110.376 L 423.447,110.376 C 423.465,110.376 423.502,110.376 423.539,110.376 L 423.539,110.376 C 423.576,110.376 423.594,110.413 423.631,110.413 C 423.668,110.413 423.742,110.45 423.779,110.468 C 423.927,110.562 424.037,110.654 424.168,110.745 C 424.186,110.745 424.186,110.745 424.186,110.745 C 424.315,110.727 424.426,110.69 424.538,110.653 C 424.538,110.635 424.538,110.635 424.538,110.635 C 424.575,110.598 424.649,110.578 424.704,110.561 C 424.704,110.541 424.704,110.541 424.704,110.541 C 424.722,110.541 424.741,110.523 424.741,110.504 L 424.741,110.504 C 424.833,110.467 424.87,110.412 424.927,110.358 C 424.927,110.358 424.927,110.358 424.927,110.338 C 424.927,110.301 424.927,110.264 424.907,110.227 C 424.87,110.172 424.815,110.116 424.759,110.079 C 424.613,109.915 424.427,109.784 424.243,109.675 C 424.075,109.618 423.909,109.564 423.743,109.489 C 423.577,109.432 423.391,109.432 423.225,109.489 C 423.004,109.581 422.764,109.712 422.561,109.821 L 422.561,109.821 C 422.524,109.821 422.467,109.821 422.45,109.821 L 422.43,109.821 C 422.393,109.841 422.355,109.858 422.338,109.878 z "
   id="path193" />

		<path
   d="M 422.006,112.132 C 422.006,112.132 422.006,112.132 421.986,112.132 C 421.986,112.112 421.986,112.095 421.986,112.075 C 421.931,112.02 421.894,111.983 421.82,111.966 C 421.728,111.946 421.654,111.929 421.617,111.892 C 421.469,111.8 421.34,111.763 421.174,111.763 C 421.154,111.781 421.154,111.8 421.137,111.837 C 421.082,111.966 421.008,112.075 420.897,112.169 L 420.897,112.169 C 420.879,112.169 420.86,112.169 420.842,112.187 C 420.822,112.169 420.805,112.169 420.805,112.169 C 420.674,112.206 420.545,112.187 420.434,112.149 C 420.305,112.112 420.213,112.057 420.102,111.983 C 420.028,111.928 419.973,111.837 419.936,111.762 C 419.881,111.651 419.862,111.576 419.862,111.485 C 419.825,111.337 419.844,111.208 419.899,111.059 C 419.973,110.893 420.122,110.764 420.288,110.67 C 420.306,110.652 420.325,110.652 420.343,110.652 C 420.509,110.578 420.675,110.597 420.806,110.689 C 420.898,110.726 421.009,110.744 421.101,110.763 C 421.101,110.743 421.101,110.743 421.121,110.743 C 421.176,110.763 421.25,110.743 421.305,110.725 L 421.305,110.725 C 421.325,110.688 421.362,110.668 421.379,110.651 L 421.379,110.651 C 421.434,110.651 421.471,110.633 421.508,110.633 L 421.508,110.633 C 421.637,110.539 421.731,110.447 421.785,110.281 L 421.785,110.281 C 421.619,110.076 421.416,109.912 421.176,109.763 C 421.084,109.726 420.99,109.708 420.881,109.708 C 420.695,109.671 420.547,109.634 420.418,109.577 C 420.326,109.577 420.252,109.577 420.16,109.614 C 420.049,109.671 419.937,109.725 419.808,109.78 C 419.642,109.854 419.494,109.983 419.402,110.132 C 419.382,110.132 419.382,110.132 419.382,110.132 C 419.216,110.298 419.087,110.464 418.958,110.667 L 418.958,110.687 C 418.958,110.742 418.938,110.816 418.921,110.871 L 418.921,110.871 C 418.921,110.965 418.901,111.057 418.884,111.148 C 418.884,111.185 418.884,111.205 418.884,111.242 C 418.902,111.371 418.921,111.554 418.921,111.76 C 418.958,111.834 418.976,111.944 418.993,112.055 C 419.013,112.166 419.03,112.258 419.104,112.332 C 419.178,112.406 419.252,112.498 419.327,112.572 C 419.345,112.59 419.382,112.627 419.401,112.646 C 419.493,112.72 419.585,112.775 419.696,112.849 C 419.825,112.904 419.956,112.978 420.122,113.015 C 420.177,113.052 420.251,113.052 420.325,113.052 C 420.434,113.07 420.602,113.07 420.786,113.089 C 420.88,113.089 420.989,113.069 421.063,113.034 C 421.137,112.995 421.192,112.977 421.266,112.94 C 421.432,112.848 421.618,112.756 421.746,112.626 C 421.746,112.626 421.746,112.626 421.766,112.626 C 421.784,112.589 421.784,112.571 421.803,112.534 C 421.803,112.534 421.803,112.534 421.803,112.516 C 421.803,112.479 421.803,112.442 421.84,112.385 L 421.84,112.385 C 421.858,112.385 421.875,112.385 421.895,112.367 C 421.895,112.347 421.895,112.347 421.895,112.347 C 421.932,112.298 421.969,112.206 422.006,112.132 z "
   id="path195" />

	</g>

</g>
  </g>
</svg>
