<?xml version="1.0" encoding="UTF-8" standalone="no"?>
<!-- Created with Inkscape (http://www.inkscape.org/) -->
<svg
   xmlns:dc="http://purl.org/dc/elements/1.1/"
   xmlns:cc="http://web.resource.org/cc/"
   xmlns:rdf="http://www.w3.org/1999/02/22-rdf-syntax-ns#"
   xmlns:svg="http://www.w3.org/2000/svg"
   xmlns="http://www.w3.org/2000/svg"
   xmlns:sodipodi="http://sodipodi.sourceforge.net/DTD/sodipodi-0.dtd"
   xmlns:inkscape="http://www.inkscape.org/namespaces/inkscape"
   width="31.147999"
   height="30.342999"
   id="svg2476"
   sodipodi:version="0.32"
   inkscape:version="0.45.1"
   sodipodi:docbase="/home/scott/work/cc/livecd/icons"
   sodipodi:docname="cc-image.svg"
   inkscape:output_extension="org.inkscape.output.svg.inkscape"
   version="1.0">
  <defs
     id="defs2478" />
  <sodipodi:namedview
     id="base"
     pagecolor="#ffffff"
     bordercolor="#666666"
     borderopacity="1.0"
     gridtolerance="10000"
     guidetolerance="10"
     objecttolerance="10"
     inkscape:pageopacity="0.0"
     inkscape:pageshadow="2"
     inkscape:zoom="4"
     inkscape:cx="64.268428"
     inkscape:cy="32.886764"
     inkscape:document-units="px"
     inkscape:current-layer="layer1"
     inkscape:window-width="746"
     inkscape:window-height="612"
     inkscape:window-x="3"
     inkscape:window-y="435" />
  <metadata
     id="metadata2481">
    <rdf:RDF>
      <cc:Work
         rdf:about="">
        <dc:format>image/svg+xml</dc:format>
        <dc:type
           rdf:resource="http://purl.org/dc/dcmitype/StillImage" />
      </cc:Work>
    </rdf:RDF>
  </metadata>
  <g
     inkscape:label="Layer 1"
     inkscape:groupmode="layer"
     id="layer1"
     transform="translate(-701.81385,-507.42559)">
    <g
       id="g27"
       transform="translate(464.25385,421.07259)">
	<g
   id="g29">
		<g
   id="g31">
			<path
   d="M 242.725,90.795 C 242.677,90.826 242.613,90.891 242.596,90.955 C 242.307,91.485 241.953,91.936 241.519,92.306 C 241.47,92.355 241.407,92.404 241.374,92.467 C 241.084,92.869 240.715,93.239 240.296,93.513 C 240.296,93.562 240.296,93.626 240.279,93.674 C 240.054,94.35 239.749,94.929 239.331,95.443 C 239.331,95.396 239.331,95.331 239.315,95.298 C 239.282,95.235 239.234,95.201 239.218,95.218 C 238.831,95.379 238.494,95.605 238.204,95.926 C 238.059,96.36 237.979,96.891 237.963,97.534 C 237.963,97.583 237.963,97.646 237.963,97.694 C 237.914,98.225 237.866,98.772 237.834,99.303 C 237.818,99.512 237.802,99.738 237.818,99.947 C 237.85,100.509 237.753,100.928 237.56,101.234 C 237.737,101.507 237.818,101.878 237.801,102.359 C 237.801,102.408 237.818,102.472 237.833,102.521 C 237.865,102.794 237.93,103.051 237.979,103.292 C 238.107,103.871 238.188,104.531 238.204,105.254 C 238.268,105.254 238.284,105.254 238.3,105.271 C 238.573,106.011 238.816,106.75 239.009,107.507 C 239.073,107.507 239.105,107.507 239.121,107.538 C 239.185,107.699 239.314,107.796 239.49,107.828 C 239.507,108.037 239.539,108.198 239.603,108.343 C 239.699,108.536 239.795,108.713 239.909,108.906 C 241.099,110.836 242.579,112.509 244.316,113.941 C 244.927,114.198 245.506,114.487 246.069,114.793 C 246.262,114.906 246.472,115.003 246.729,115.083 C 247.582,115.356 248.385,115.678 249.141,116.032 C 249.205,116.032 249.254,116.032 249.302,116.032 C 249.528,116.032 249.737,116.032 249.946,116.032 C 249.946,116.08 249.962,116.112 249.962,116.112 C 250.526,116.241 250.992,116.433 251.395,116.674 C 251.459,116.674 251.508,116.674 251.54,116.642 C 251.622,116.611 251.669,116.594 251.7,116.611 C 251.831,116.642 252.008,116.642 252.2,116.611 C 252.264,116.594 252.312,116.594 252.346,116.611 C 252.941,116.723 253.633,116.723 254.452,116.611 C 254.516,116.594 254.581,116.594 254.629,116.594 C 255.948,116.514 257.075,116.273 257.991,115.87 C 258.329,115.79 258.796,115.644 259.423,115.468 C 259.6,115.404 259.777,115.356 259.954,115.307 C 260.308,115.195 260.516,114.953 260.565,114.583 C 260.791,114.535 260.983,114.438 261.175,114.342 C 261.497,114.149 261.883,114.02 262.333,113.941 C 262.736,113.538 263.138,113.136 263.54,112.734 C 263.604,112.67 263.652,112.621 263.7,112.573 C 263.765,112.509 263.813,112.493 263.846,112.461 C 264.023,112.381 264.152,112.268 264.248,112.155 C 264.81,111.528 265.406,110.932 266.033,110.402 C 266.033,110.353 266.049,110.289 266.082,110.256 C 266.757,108.921 267.448,107.569 268.123,106.219 C 268.123,106.17 268.123,106.107 268.123,106.058 C 268.107,105.495 268.204,105.061 268.445,104.771 C 268.508,104.723 268.525,104.674 268.508,104.659 C 268.445,104.482 268.445,104.257 268.508,103.983 C 268.525,103.92 268.541,103.854 268.557,103.806 C 268.669,103.178 268.718,102.761 268.702,102.52 C 268.654,101.666 268.59,100.798 268.525,99.946 C 268.508,99.592 268.477,99.222 268.445,98.82 C 268.397,98.064 268.236,97.421 267.962,96.889 C 268.011,96.245 267.866,95.812 267.496,95.586 C 267.448,95.554 267.384,95.489 267.367,95.425 C 267.287,95.233 267.19,95.039 267.078,94.847 C 266.741,94.299 266.451,93.689 266.194,93.029 C 266.145,93.029 266.097,93.012 266.082,92.997 C 265.277,92.144 264.393,91.341 263.459,90.616 C 263.459,90.568 263.443,90.52 263.428,90.471 C 263.364,90.342 263.316,90.182 263.299,89.973 C 262.978,89.763 262.671,89.522 262.399,89.281 C 262.109,89.024 261.82,88.815 261.481,88.637 C 261.353,88.557 261.224,88.492 261.112,88.411 C 260.871,88.283 260.613,88.122 260.356,87.993 C 260.227,87.913 260.098,87.848 259.985,87.784 C 259.599,87.607 259.214,87.415 258.796,87.237 C 258.329,87.237 257.911,87.157 257.525,87.028 C 257.155,86.882 256.721,86.77 256.239,86.674 C 255.434,86.514 254.517,86.402 253.488,86.353 C 253.439,86.353 253.391,86.353 253.343,86.353 C 253.07,86.417 252.748,86.417 252.378,86.353 C 252.329,86.353 252.265,86.353 252.217,86.37 C 251.911,86.433 251.54,86.482 251.091,86.515 C 250.639,86.547 250.301,86.515 250.109,86.434 L 250.109,86.515 C 249.836,86.483 249.674,86.563 249.627,86.756 C 249.579,86.756 249.53,86.756 249.466,86.756 C 249.208,86.756 248.935,86.756 248.662,86.756 C 248.549,86.965 248.34,87.078 248.034,87.142 C 247.793,87.191 247.519,87.239 247.246,87.335 C 246.796,87.48 246.393,87.689 246.04,87.979 C 245.862,88.124 245.686,88.285 245.524,88.446 C 245.476,88.494 245.428,88.542 245.364,88.606 C 244.543,89.379 243.658,90.103 242.725,90.795 z M 243.883,91.599 C 243.9,91.535 243.964,91.47 244.012,91.438 C 244.399,91.18 244.72,90.859 244.961,90.457 C 245.508,90.506 245.878,90.377 246.055,90.056 C 246.071,89.992 246.119,89.944 246.168,89.895 C 246.231,89.831 246.264,89.766 246.312,89.669 C 246.393,89.492 246.49,89.348 246.65,89.219 C 246.715,89.187 246.748,89.122 246.796,89.027 C 246.812,88.962 246.844,88.898 246.892,88.85 C 247.375,88.689 247.858,88.496 248.324,88.302 C 248.341,88.286 248.341,88.254 248.341,88.206 C 248.888,88.125 249.274,88.109 249.483,88.125 C 249.532,88.125 249.596,88.125 249.644,88.125 C 250.32,88.061 250.915,87.964 251.431,87.803 C 251.624,87.755 251.785,87.74 251.929,87.787 C 252.106,87.851 252.315,87.9 252.509,87.948 C 252.589,87.964 252.637,87.996 252.686,88.044 C 252.75,88.093 252.798,88.157 252.846,88.206 C 253.023,87.932 253.328,87.771 253.795,87.723 C 253.811,87.723 253.844,87.692 253.876,87.594 C 253.892,87.563 253.924,87.563 253.972,87.563 C 254.245,87.723 254.616,87.788 255.098,87.723 C 255.162,87.723 255.21,87.723 255.259,87.723 C 255.419,88.044 255.806,88.173 256.402,88.125 C 256.45,88.125 256.499,88.157 256.53,88.222 C 256.547,88.254 256.547,88.319 256.547,88.367 C 257.014,88.207 257.561,88.19 258.172,88.351 C 258.22,88.367 258.268,88.367 258.316,88.367 C 258.815,88.673 259.346,88.962 259.909,89.22 C 260.391,89.429 260.81,89.687 261.212,89.992 C 261.276,90.023 261.325,90.089 261.358,90.152 C 261.375,90.185 261.375,90.249 261.375,90.298 C 261.921,90.346 262.291,90.571 262.484,90.957 C 262.501,90.989 262.501,91.054 262.501,91.103 C 262.726,91.103 262.887,91.15 263.016,91.231 C 263.047,91.248 263.096,91.263 263.144,91.263 C 263.579,91.907 264.013,92.534 264.512,93.113 C 264.784,93.435 265.059,93.757 265.299,94.111 C 265.541,94.4 265.717,94.754 265.879,95.124 C 265.91,95.849 266.039,96.459 266.264,96.941 C 266.345,97.07 266.41,97.199 266.474,97.328 C 266.506,97.425 266.586,97.488 266.683,97.537 C 266.667,97.987 266.7,98.357 266.763,98.663 L 266.683,98.663 C 267.084,99.274 267.293,100.127 267.261,101.237 C 267.245,101.349 267.245,101.445 267.245,101.558 C 267.245,101.607 267.245,101.67 267.228,101.735 C 267.083,102.089 267.036,102.362 267.067,102.54 C 267.147,102.894 267.164,103.279 267.164,103.649 C 266.987,103.89 266.842,104.212 266.763,104.598 C 266.763,104.615 266.747,104.615 266.683,104.615 C 266.715,105.595 266.457,106.303 265.927,106.754 C 265.895,106.787 265.879,106.819 265.879,106.866 C 266.071,107.044 266.039,107.301 265.814,107.591 L 265.798,107.591 C 265.685,107.64 265.67,107.752 265.717,107.992 C 265.38,108.041 265.219,108.234 265.235,108.637 C 265.235,108.685 265.235,108.749 265.235,108.797 C 265.01,108.829 264.833,108.926 264.721,109.087 C 264.689,109.103 264.656,109.119 264.592,109.119 C 264.592,109.601 264.431,109.924 264.109,110.068 C 263.852,110.196 263.788,110.406 263.949,110.727 C 263.788,110.984 263.675,111.065 263.563,110.968 C 263.546,110.968 263.53,110.984 263.45,111.016 C 263.418,111.049 263.37,111.049 263.305,111.049 C 262.838,111.531 262.388,112.045 261.953,112.576 C 261.937,112.576 261.937,112.608 261.937,112.656 L 261.857,112.656 C 261.759,112.865 261.584,112.898 261.326,112.753 L 261.294,112.737 C 261.213,112.624 261.085,112.64 260.892,112.818 C 260.747,113.252 260.377,113.493 259.782,113.541 C 259.734,113.541 259.671,113.558 259.59,113.59 C 259.349,113.719 259.108,113.863 258.882,114.024 L 258.946,114.121 C 258.963,114.153 258.963,114.219 258.963,114.267 C 258.641,114.444 258.303,114.428 257.949,114.203 C 257.932,114.187 257.901,114.203 257.82,114.235 C 257.788,114.267 257.739,114.267 257.674,114.267 C 257.755,114.717 257.578,114.862 257.159,114.685 C 257.143,114.669 257.096,114.669 257.031,114.685 C 256.838,114.717 256.661,114.717 256.532,114.685 C 256.501,114.669 256.452,114.685 256.371,114.717 C 256.179,114.797 255.969,114.862 255.744,114.91 C 255.647,114.669 255.567,114.717 255.503,115.055 C 255.471,115.312 255.391,115.28 255.277,114.958 C 255.277,114.926 255.213,114.91 255.1,114.91 C 255.004,114.91 254.891,114.91 254.779,114.91 C 254.762,115.248 254.586,115.264 254.263,114.958 C 254.247,114.926 254.2,114.91 254.135,114.91 C 253.974,115.167 253.862,115.248 253.749,115.15 C 253.732,115.15 253.716,115.182 253.637,115.215 C 253.556,115.278 253.443,115.344 253.33,115.392 C 253.105,115.311 252.831,115.247 252.526,115.247 C 252.188,115.23 252.107,115.149 252.284,114.989 L 252.204,114.909 C 251.753,114.828 251.464,114.909 251.319,115.149 L 251.239,115.069 C 251.141,114.957 251.03,114.86 250.917,114.748 C 250.578,114.602 250.257,114.699 249.919,115.038 C 249.903,115.054 249.856,115.069 249.79,115.069 C 249.484,115.021 249.211,114.909 248.97,114.78 C 248.938,114.748 248.89,114.748 248.826,114.748 C 248.584,114.458 248.31,114.201 248.005,113.991 C 247.973,113.96 247.925,113.944 247.86,113.944 C 247.748,114.072 247.522,114.023 247.201,113.798 C 246.766,113.492 246.315,113.187 245.849,112.864 C 245.8,112.833 245.752,112.785 245.703,112.704 C 245.607,112.543 245.431,112.463 245.125,112.495 C 245.013,112.093 244.739,111.819 244.32,111.706 C 244.272,111.691 244.223,111.691 244.16,111.691 C 243.274,110.805 242.503,109.825 241.827,108.747 C 241.778,108.683 241.73,108.601 241.698,108.506 C 241.635,108.377 241.569,108.248 241.506,108.119 C 241.457,107.99 241.425,107.83 241.425,107.669 C 241.071,107.509 240.781,107.235 240.572,106.913 C 240.556,106.881 240.524,106.864 240.46,106.864 C 240.235,106.189 239.993,105.497 239.752,104.79 C 239.735,104.773 239.72,104.773 239.656,104.773 C 239.624,104.338 239.639,104.017 239.735,103.808 L 239.656,103.808 C 239.269,102.972 239.093,101.894 239.173,100.591 C 239.173,100.542 239.173,100.479 239.173,100.43 C 239.72,100.542 240.01,100.382 240.042,99.948 C 240.058,99.835 240.073,99.739 240.09,99.627 C 240.122,99.256 240.202,98.886 240.282,98.549 C 240.299,98.517 240.363,98.501 240.46,98.501 C 240.282,98.147 240.282,97.809 240.428,97.503 C 240.589,97.214 240.637,96.859 240.62,96.409 C 241.022,96.377 241.183,96.103 241.119,95.605 C 241.103,95.556 241.103,95.492 241.103,95.443 C 241.44,95.251 241.714,94.961 241.891,94.623 C 241.907,94.592 241.907,94.527 241.907,94.479 C 241.762,94.043 241.81,93.691 242.019,93.464 C 242.245,93.207 242.438,92.902 242.55,92.548 C 243.207,92.467 243.658,92.146 243.883,91.599 z "
   id="path33" />

			<path
   d="M 244.012,91.438 C 243.964,91.47 243.9,91.535 243.883,91.599 C 243.658,92.146 243.207,92.467 242.548,92.548 C 242.436,92.902 242.242,93.207 242.017,93.464 C 241.808,93.691 241.76,94.043 241.905,94.479 C 241.905,94.527 241.905,94.591 241.889,94.623 C 241.712,94.961 241.438,95.251 241.101,95.443 C 241.101,95.492 241.101,95.556 241.117,95.605 C 241.181,96.103 241.02,96.376 240.618,96.409 C 240.635,96.859 240.587,97.214 240.426,97.503 C 240.28,97.809 240.28,98.147 240.458,98.501 C 240.361,98.501 240.297,98.517 240.28,98.549 C 240.2,98.886 240.12,99.256 240.088,99.627 C 240.071,99.739 240.056,99.835 240.04,99.948 C 240.008,100.383 239.718,100.543 239.171,100.43 C 239.171,100.479 239.171,100.542 239.171,100.591 C 239.091,101.894 239.268,102.972 239.654,103.808 L 239.733,103.808 C 239.637,104.017 239.622,104.338 239.654,104.773 C 239.717,104.773 239.733,104.773 239.75,104.79 C 239.991,105.497 240.233,106.189 240.458,106.864 C 240.522,106.864 240.555,106.881 240.57,106.913 C 240.779,107.235 241.069,107.509 241.423,107.669 C 241.423,107.83 241.455,107.99 241.504,108.119 C 241.567,108.248 241.633,108.377 241.696,108.506 C 241.728,108.602 241.776,108.683 241.825,108.747 C 242.501,109.825 243.272,110.806 244.158,111.691 C 244.221,111.691 244.27,111.691 244.318,111.706 C 244.737,111.819 245.01,112.093 245.123,112.495 C 245.429,112.463 245.605,112.543 245.701,112.704 C 245.75,112.785 245.798,112.833 245.847,112.864 C 246.313,113.186 246.764,113.492 247.199,113.798 C 247.52,114.023 247.746,114.071 247.858,113.944 C 247.922,113.944 247.97,113.96 248.003,113.991 C 248.309,114.201 248.582,114.458 248.824,114.748 C 248.887,114.748 248.935,114.748 248.968,114.78 C 249.209,114.909 249.483,115.021 249.788,115.069 C 249.853,115.069 249.901,115.053 249.917,115.038 C 250.255,114.699 250.576,114.602 250.915,114.748 C 251.028,114.86 251.14,114.957 251.237,115.069 L 251.317,115.149 C 251.462,114.909 251.751,114.828 252.202,114.909 L 252.282,114.989 C 252.105,115.149 252.186,115.23 252.524,115.247 C 252.829,115.247 253.103,115.31 253.328,115.392 C 253.44,115.344 253.554,115.279 253.635,115.215 C 253.714,115.182 253.731,115.15 253.747,115.15 C 253.859,115.248 253.972,115.167 254.133,114.91 C 254.197,114.91 254.245,114.926 254.261,114.958 C 254.583,115.264 254.76,115.248 254.777,114.91 C 254.889,114.91 255.003,114.91 255.098,114.91 C 255.21,114.91 255.275,114.926 255.275,114.958 C 255.388,115.279 255.468,115.312 255.501,115.055 C 255.565,114.717 255.646,114.669 255.742,114.91 C 255.967,114.861 256.177,114.797 256.369,114.717 C 256.45,114.685 256.499,114.669 256.53,114.685 C 256.659,114.717 256.836,114.717 257.029,114.685 C 257.093,114.669 257.141,114.669 257.157,114.685 C 257.576,114.862 257.753,114.717 257.672,114.267 C 257.736,114.267 257.785,114.267 257.818,114.235 C 257.899,114.203 257.93,114.187 257.947,114.203 C 258.301,114.429 258.638,114.444 258.961,114.267 C 258.961,114.219 258.961,114.154 258.944,114.121 L 258.88,114.024 C 259.106,113.864 259.347,113.719 259.588,113.59 C 259.669,113.558 259.733,113.541 259.78,113.541 C 260.376,113.493 260.746,113.252 260.89,112.818 C 261.083,112.64 261.211,112.624 261.292,112.737 L 261.324,112.753 C 261.582,112.899 261.758,112.865 261.855,112.656 L 261.935,112.656 C 261.935,112.608 261.935,112.576 261.951,112.576 C 262.386,112.045 262.836,111.531 263.303,111.049 C 263.367,111.049 263.415,111.049 263.448,111.016 C 263.528,110.984 263.545,110.968 263.561,110.968 C 263.672,111.065 263.786,110.984 263.947,110.727 C 263.786,110.406 263.85,110.196 264.107,110.068 C 264.429,109.923 264.59,109.601 264.59,109.119 C 264.653,109.119 264.687,109.102 264.719,109.087 C 264.83,108.926 265.008,108.829 265.233,108.797 C 265.233,108.749 265.233,108.685 265.233,108.637 C 265.217,108.235 265.379,108.041 265.715,107.992 C 265.668,107.752 265.683,107.639 265.796,107.591 L 265.812,107.591 C 266.038,107.301 266.07,107.044 265.877,106.866 C 265.877,106.819 265.893,106.787 265.925,106.754 C 266.455,106.304 266.713,105.596 266.681,104.615 C 266.745,104.615 266.761,104.615 266.761,104.598 C 266.84,104.212 266.986,103.89 267.162,103.649 C 267.162,103.279 267.145,102.893 267.065,102.54 C 267.034,102.362 267.082,102.09 267.226,101.735 C 267.243,101.671 267.243,101.607 267.243,101.558 C 267.243,101.445 267.243,101.349 267.259,101.237 C 267.291,100.127 267.082,99.274 266.681,98.663 L 266.761,98.663 C 266.698,98.357 266.665,97.987 266.681,97.537 C 266.584,97.488 266.504,97.425 266.472,97.328 C 266.408,97.199 266.343,97.07 266.262,96.941 C 266.037,96.459 265.908,95.848 265.877,95.124 C 265.715,94.754 265.539,94.4 265.297,94.111 C 265.057,93.757 264.782,93.435 264.51,93.113 C 264.011,92.535 263.576,91.907 263.142,91.263 C 263.094,91.263 263.045,91.247 263.014,91.231 C 262.885,91.15 262.724,91.103 262.499,91.103 C 262.499,91.054 262.499,90.99 262.482,90.957 C 262.289,90.571 261.919,90.346 261.373,90.298 C 261.373,90.249 261.373,90.186 261.356,90.152 C 261.324,90.089 261.275,90.023 261.21,89.992 C 260.809,89.686 260.39,89.429 259.907,89.22 C 259.345,88.962 258.813,88.673 258.314,88.367 C 258.266,88.367 258.218,88.367 258.17,88.351 C 257.559,88.19 257.012,88.206 256.545,88.367 C 256.545,88.319 256.545,88.255 256.528,88.222 C 256.497,88.158 256.448,88.125 256.4,88.125 C 255.804,88.173 255.418,88.044 255.257,87.723 C 255.208,87.723 255.16,87.723 255.096,87.723 C 254.614,87.787 254.243,87.723 253.97,87.563 C 253.922,87.563 253.89,87.563 253.874,87.594 C 253.842,87.692 253.809,87.723 253.793,87.723 C 253.326,87.772 253.021,87.932 252.844,88.206 C 252.796,88.157 252.748,88.093 252.684,88.044 C 252.635,87.996 252.587,87.964 252.507,87.948 C 252.313,87.9 252.104,87.851 251.927,87.787 C 251.782,87.739 251.622,87.755 251.429,87.803 C 250.913,87.964 250.318,88.061 249.642,88.125 C 249.594,88.125 249.53,88.125 249.481,88.125 C 249.272,88.109 248.886,88.125 248.339,88.206 C 248.339,88.254 248.339,88.286 248.322,88.302 C 247.856,88.495 247.374,88.689 246.89,88.85 C 246.842,88.898 246.81,88.961 246.794,89.027 C 246.746,89.123 246.714,89.187 246.648,89.219 C 246.488,89.348 246.391,89.492 246.31,89.669 C 246.262,89.766 246.23,89.83 246.166,89.895 C 246.117,89.944 246.068,89.992 246.053,90.056 C 245.876,90.377 245.506,90.506 244.959,90.457 C 244.72,90.858 244.398,91.18 244.012,91.438 z "
   id="path35"
   style="fill:#b2bcba" />

		</g>

		<g
   id="g37">
			<path
   d="M 258.764,92.998 C 258.844,92.548 258.716,92.274 258.394,92.21 C 258.297,91.984 258.056,91.921 257.655,92.033 C 257.59,92.065 257.509,92.065 257.429,92.081 C 256.898,92.193 256.56,92.226 256.463,92.193 C 255.53,91.952 254.903,92.081 254.549,92.58 C 254.485,92.563 254.437,92.58 254.437,92.612 C 254.373,92.709 254.373,92.772 254.437,92.789 C 254.582,92.885 254.582,93.047 254.421,93.255 C 254.259,93.481 254.179,93.802 254.179,94.285 C 254.179,94.349 254.179,94.397 254.196,94.43 C 254.308,94.751 254.308,95.201 254.196,95.814 C 254.437,95.894 254.646,95.991 254.823,96.135 C 254.904,96.199 254.952,96.264 254.984,96.312 C 255.064,96.473 255.225,96.522 255.482,96.425 C 255.853,96.296 256.045,96.327 256.062,96.488 C 255.708,96.697 255.193,96.746 254.534,96.697 C 254.453,96.697 254.405,96.697 254.324,96.697 C 253.955,96.729 253.568,96.762 253.182,96.778 C 252.297,96.89 251.46,96.938 250.688,96.955 C 249.98,96.972 249.481,97.004 249.143,97.067 C 248.999,97.179 248.823,97.276 248.596,97.357 C 248.451,97.389 248.29,97.454 248.13,97.485 C 247.68,97.598 247.325,97.743 247.004,97.936 C 246.94,97.92 246.891,97.936 246.875,97.952 C 246.826,98.065 246.778,98.13 246.698,98.178 C 246.553,98.29 246.457,98.435 246.392,98.66 C 246.311,99.191 246.054,99.48 245.572,99.577 C 245.443,99.834 245.411,100.156 245.427,100.51 C 245.427,100.574 245.427,100.639 245.41,100.703 C 245.347,101.041 245.347,101.379 245.347,101.652 C 245.347,101.797 245.347,101.925 245.347,102.038 C 245.347,102.118 245.33,102.167 245.298,102.247 C 245.137,102.763 245.121,103.164 245.266,103.437 C 245.266,103.469 245.266,103.485 245.282,103.534 C 245.395,103.984 245.266,104.305 244.944,104.5 C 245.137,104.628 245.234,104.821 245.186,105.095 C 245.186,105.159 245.186,105.224 245.202,105.24 C 245.331,105.562 245.331,106.044 245.202,106.623 C 245.202,106.704 245.202,106.752 245.25,106.785 C 245.396,106.945 245.572,107.106 245.749,107.235 C 245.749,107.315 245.732,107.364 245.749,107.427 C 245.749,107.909 245.781,108.36 245.846,108.763 C 245.91,108.763 245.975,108.794 246.007,108.826 C 246.296,109.067 246.602,109.245 246.972,109.405 C 247.711,109.357 248.29,109.405 248.725,109.566 C 249.465,109.824 249.963,109.758 250.238,109.389 C 250.898,109.325 251.412,109.389 251.799,109.55 C 251.832,109.55 251.88,109.55 251.945,109.55 C 252.589,109.469 253.231,109.404 253.876,109.389 L 253.876,109.276 C 254.214,109.325 254.406,109.245 254.454,109.036 C 255.162,109.084 255.806,109.052 256.368,108.923 C 256.803,108.811 257.398,108.843 258.105,109.036 C 258.154,109.036 258.218,109.019 258.234,108.987 C 258.572,108.681 259.039,108.521 259.667,108.537 C 259.667,108.473 259.667,108.425 259.714,108.392 C 259.94,108.199 260.181,107.989 260.471,107.813 C 260.471,107.684 260.487,107.555 260.535,107.459 C 260.551,107.379 260.567,107.314 260.567,107.267 C 260.518,106.751 260.55,106.382 260.727,106.109 C 261.081,106.028 261.243,105.787 261.209,105.384 C 261.193,105.047 261.161,104.66 261.113,104.226 C 261.049,103.486 261.033,102.65 261.049,101.717 C 261.065,101.653 261.049,101.588 261.049,101.508 C 260.936,100.96 260.872,100.398 260.872,99.786 C 260.808,99.786 260.792,99.786 260.775,99.754 C 260.646,99.272 260.534,98.837 260.373,98.419 C 260.244,98.419 260.147,98.387 260.147,98.338 C 259.858,97.759 259.439,97.325 258.909,97.02 C 258.7,96.908 258.588,96.698 258.555,96.425 C 258.781,96.456 258.861,96.327 258.861,96.055 C 258.878,95.991 258.861,95.943 258.861,95.909 C 258.765,95.604 258.781,95.218 258.91,94.735 C 258.927,94.654 258.942,94.606 258.927,94.558 C 258.781,94.042 258.862,93.592 259.104,93.191 C 258.844,93.271 258.716,93.191 258.764,92.998 z M 257.316,94.72 C 257.316,94.72 257.316,94.768 257.316,94.817 C 256.656,94.88 256.221,94.88 255.963,94.88 C 255.626,94.864 255.416,94.751 255.401,94.526 C 255.642,94.3 255.61,93.979 255.321,93.529 C 255.289,93.496 255.272,93.448 255.272,93.383 C 255.948,93.319 256.19,93.463 256.029,93.801 L 256.206,93.785 C 256.592,93.753 256.93,93.689 257.203,93.592 C 257.524,93.512 257.718,93.625 257.733,93.882 C 257.847,94.43 257.718,94.703 257.316,94.72 z M 254.469,97.824 C 254.935,97.887 255.402,97.904 255.804,97.887 C 256.271,97.855 256.64,97.775 256.962,97.679 C 257.075,97.742 257.251,97.807 257.524,97.824 C 257.959,97.855 258.28,97.969 258.474,98.145 C 258.634,98.821 258.763,99.544 258.827,100.284 C 258.876,100.912 258.925,101.346 258.94,101.637 C 258.988,102.118 259.02,102.634 259.004,103.132 C 258.987,103.614 258.972,104.066 258.972,104.467 C 258.972,104.983 259.02,105.384 259.101,105.691 C 259.246,106.206 259.198,106.559 258.972,106.785 C 258.859,107.122 258.602,107.315 258.184,107.331 C 257.797,107.364 257.412,107.348 257.026,107.331 C 256.301,107.268 255.723,107.315 255.256,107.428 C 255.224,107.428 255.159,107.428 255.095,107.38 C 255.063,107.348 254.999,107.348 254.918,107.331 C 254.339,107.685 253.566,107.879 252.602,107.862 C 252.345,107.862 252.103,107.846 251.846,107.83 C 251.508,107.798 250.928,107.798 250.108,107.847 C 250.06,108.072 249.867,108.152 249.529,108.104 L 249.529,108.201 C 248.87,107.991 248.113,107.863 247.245,107.799 L 247.262,107.702 C 246.875,107.236 246.779,106.528 246.94,105.579 C 246.972,105.338 246.972,105.129 246.94,104.968 C 246.876,104.662 246.843,104.357 246.827,104.051 C 246.811,103.407 246.811,102.893 246.859,102.49 C 246.859,102.442 246.859,102.378 246.827,102.298 C 246.796,102.186 246.779,102.057 246.796,101.928 C 247.021,101.719 247.117,101.349 247.117,100.786 C 247.085,100.286 247.101,99.788 247.117,99.273 C 247.536,98.984 248.066,98.823 248.662,98.711 C 248.742,98.694 248.807,98.662 248.887,98.63 C 249.289,98.469 249.692,98.276 250.062,98.083 C 250.624,98.115 251.204,98.147 251.768,98.18 C 251.848,98.18 251.897,98.18 251.96,98.18 C 252.538,97.808 253.375,97.694 254.469,97.824 z "
   id="path39"
   style="fill:#040404" />

			<path
   d="M 257.316,94.816 C 257.316,94.767 257.316,94.719 257.316,94.719 C 257.717,94.702 257.846,94.429 257.733,93.882 C 257.717,93.625 257.524,93.512 257.203,93.592 C 256.93,93.69 256.592,93.753 256.206,93.785 L 256.029,93.801 C 256.19,93.463 255.948,93.319 255.272,93.383 C 255.272,93.447 255.289,93.495 255.321,93.529 C 255.61,93.979 255.642,94.3 255.401,94.526 C 255.417,94.751 255.627,94.864 255.963,94.88 C 256.222,94.88 256.656,94.88 257.316,94.816 z "
   id="path41"
   style="fill:#ffffff" />

			<path
   d="M 255.804,97.888 C 255.402,97.905 254.935,97.888 254.469,97.825 C 253.375,97.695 252.538,97.808 251.959,98.179 C 251.896,98.179 251.847,98.179 251.767,98.179 C 251.203,98.147 250.623,98.115 250.061,98.082 C 249.691,98.275 249.289,98.468 248.886,98.629 C 248.806,98.661 248.741,98.693 248.661,98.71 C 248.065,98.822 247.535,98.983 247.116,99.272 C 247.1,99.787 247.084,100.285 247.116,100.785 C 247.116,101.347 247.019,101.718 246.795,101.927 C 246.778,102.056 246.795,102.185 246.826,102.297 C 246.858,102.377 246.858,102.442 246.858,102.489 C 246.81,102.891 246.81,103.406 246.826,104.05 C 246.843,104.356 246.875,104.661 246.939,104.967 C 246.971,105.128 246.971,105.337 246.939,105.578 C 246.778,106.527 246.875,107.235 247.261,107.701 L 247.244,107.798 C 248.112,107.862 248.869,107.99 249.528,108.2 L 249.528,108.103 C 249.866,108.151 250.059,108.071 250.107,107.846 C 250.927,107.797 251.507,107.797 251.845,107.829 C 252.102,107.846 252.344,107.861 252.601,107.861 C 253.566,107.878 254.338,107.684 254.917,107.33 C 254.998,107.347 255.062,107.347 255.094,107.379 C 255.158,107.427 255.223,107.427 255.255,107.427 C 255.722,107.315 256.3,107.267 257.025,107.33 C 257.411,107.347 257.796,107.363 258.183,107.33 C 258.601,107.314 258.858,107.121 258.971,106.784 C 259.197,106.558 259.244,106.205 259.1,105.69 C 259.019,105.383 258.971,104.982 258.971,104.466 C 258.971,104.065 258.987,103.613 259.003,103.131 C 259.019,102.633 258.986,102.117 258.939,101.636 C 258.923,101.346 258.875,100.911 258.826,100.283 C 258.763,99.544 258.634,98.82 258.473,98.144 C 258.279,97.967 257.957,97.854 257.523,97.823 C 257.25,97.806 257.074,97.742 256.961,97.678 C 256.64,97.775 256.271,97.855 255.804,97.888 z M 248.162,99.609 C 248.387,99.4 248.628,99.191 248.87,98.982 C 249.207,99.191 249.658,99.223 250.205,99.079 C 250.253,99.062 250.317,99.047 250.382,99.062 C 250.671,99.416 250.864,99.85 250.944,100.413 C 250.962,100.559 250.962,100.687 250.962,100.8 C 250.962,100.88 250.929,100.929 250.864,100.992 C 250.591,101.153 250.205,101.234 249.69,101.218 C 249.578,101.201 249.449,101.25 249.32,101.315 C 248.885,101.572 248.5,101.556 248.162,101.235 C 247.824,101.122 247.647,100.864 247.647,100.447 C 247.631,100.383 247.647,100.318 247.647,100.254 C 247.775,99.995 247.953,99.786 248.162,99.609 z M 251.153,102.537 C 251.491,102.247 251.813,101.926 252.12,101.604 C 252.152,101.555 252.184,101.507 252.184,101.442 C 252.65,101.363 253.069,101.234 253.407,101.041 C 253.438,101.041 253.47,101.041 253.536,101.041 L 253.552,100.944 C 253.922,100.96 254.179,101.089 254.357,101.314 C 254.357,101.346 254.405,101.363 254.469,101.363 C 254.533,101.266 254.791,101.266 255.241,101.395 C 255.304,101.411 255.37,101.411 255.417,101.411 C 255.691,102.087 255.964,102.763 256.238,103.405 C 256.27,103.454 256.286,103.502 256.286,103.566 C 256.286,104.419 256.109,104.998 255.691,105.351 C 255.032,105.899 254.404,106.461 253.793,107.073 C 253.391,106.96 252.94,106.88 252.475,106.832 C 252.41,106.832 252.346,106.816 252.265,106.816 C 252.185,106.462 251.944,106.253 251.54,106.22 C 251.476,106.188 251.411,106.188 251.349,106.188 C 251.076,105.818 250.898,105.383 250.752,104.853 C 250.752,104.821 250.736,104.821 250.655,104.821 C 250.671,104.434 250.703,104.049 250.719,103.663 C 250.736,103.614 250.736,103.534 250.736,103.485 C 250.913,103.276 251.042,103.019 251.137,102.729 C 251.138,102.666 251.153,102.601 251.153,102.537 z "
   id="path43"
   style="fill:#ffffff" />

			<path
   d="M 248.87,98.982 C 248.628,99.191 248.387,99.4 248.162,99.609 C 247.953,99.786 247.775,99.995 247.647,100.253 C 247.647,100.317 247.631,100.382 247.647,100.446 C 247.647,100.863 247.824,101.121 248.162,101.234 C 248.5,101.555 248.886,101.571 249.32,101.314 C 249.449,101.25 249.578,101.201 249.69,101.217 C 250.205,101.234 250.59,101.153 250.864,100.991 C 250.928,100.928 250.962,100.879 250.962,100.799 C 250.962,100.687 250.962,100.558 250.944,100.412 C 250.864,99.85 250.671,99.415 250.382,99.061 C 250.318,99.045 250.253,99.061 250.205,99.078 C 249.658,99.224 249.207,99.191 248.87,98.982 z M 249.947,99.995 L 249.931,100.188 C 249.882,100.397 249.69,100.478 249.352,100.446 C 249.288,100.429 249.223,100.462 249.159,100.509 C 248.822,100.799 248.644,100.67 248.612,100.108 C 249.062,100.012 249.513,99.963 249.947,99.995 z "
   id="path45" />

			<path
   d="M 249.932,100.188 L 249.948,99.995 C 249.513,99.963 249.063,100.012 248.613,100.108 C 248.645,100.67 248.823,100.799 249.16,100.509 C 249.224,100.461 249.289,100.429 249.353,100.446 C 249.69,100.479 249.883,100.397 249.932,100.188 z "
   id="path47"
   style="fill:#ffffff" />

			<path
   d="M 252.12,101.604 C 251.813,101.925 251.491,102.247 251.153,102.537 C 251.153,102.6 251.137,102.666 251.137,102.729 C 251.041,103.019 250.912,103.276 250.736,103.485 C 250.736,103.534 250.736,103.614 250.719,103.663 C 250.702,104.049 250.67,104.434 250.655,104.821 C 250.736,104.821 250.752,104.821 250.752,104.853 C 250.898,105.383 251.075,105.818 251.349,106.188 C 251.411,106.188 251.476,106.188 251.54,106.22 C 251.943,106.252 252.185,106.461 252.265,106.816 C 252.346,106.816 252.41,106.832 252.475,106.832 C 252.941,106.88 253.391,106.96 253.793,107.073 C 254.404,106.462 255.032,105.899 255.691,105.351 C 256.109,104.997 256.286,104.418 256.286,103.566 C 256.286,103.502 256.27,103.454 256.238,103.405 C 255.964,102.762 255.691,102.087 255.417,101.411 C 255.37,101.411 255.305,101.411 255.241,101.395 C 254.791,101.266 254.533,101.266 254.469,101.363 C 254.405,101.363 254.357,101.346 254.357,101.314 C 254.179,101.088 253.922,100.96 253.552,100.944 L 253.536,101.041 C 253.471,101.041 253.438,101.041 253.407,101.041 C 253.069,101.234 252.65,101.363 252.184,101.442 C 252.185,101.508 252.152,101.556 252.12,101.604 z M 252.008,104.869 C 251.831,104.66 251.782,104.338 251.862,103.921 C 252.152,103.438 252.441,102.955 252.763,102.473 C 252.795,102.441 252.826,102.441 252.891,102.441 C 253.696,102.168 254.339,102.312 254.838,102.876 C 254.838,102.908 254.902,102.924 254.966,102.924 C 254.838,103.568 254.79,104.082 254.79,104.452 L 254.693,104.452 C 254.435,104.951 254.033,105.305 253.469,105.497 C 253.421,105.53 253.373,105.53 253.309,105.53 C 252.987,105.337 252.617,105.143 252.199,105.014 C 252.12,104.982 252.056,104.934 252.008,104.869 z "
   id="path49" />

			<path
   d="M 251.862,103.921 C 251.782,104.338 251.831,104.66 252.008,104.869 C 252.056,104.933 252.12,104.982 252.2,105.014 C 252.618,105.143 252.988,105.336 253.31,105.53 C 253.374,105.53 253.422,105.53 253.47,105.497 C 254.033,105.305 254.436,104.951 254.694,104.452 L 254.791,104.452 C 254.791,104.082 254.839,103.567 254.967,102.924 C 254.904,102.924 254.839,102.908 254.839,102.876 C 254.34,102.313 253.696,102.168 252.892,102.441 C 252.828,102.441 252.796,102.441 252.764,102.473 C 252.441,102.955 252.152,103.438 251.862,103.921 z "
   id="path51"
   style="fill:#ffffff" />

		</g>

	</g>

	<g
   id="g53">
		<path
   d="M 264.624,106.219 C 264.531,106.2 264.438,106.2 264.364,106.163 C 264.346,106.163 264.328,106.163 264.309,106.163 C 264.29,106.163 264.253,106.163 264.216,106.163 C 264.05,106.108 263.903,106.071 263.737,106.053 C 263.662,106.034 263.589,106.034 263.533,106.034 C 263.311,106.071 263.071,106.108 262.831,106.126 C 262.721,106.182 262.591,106.219 262.443,106.256 C 262.313,106.293 262.166,106.312 262.054,106.385 C 261.685,106.533 261.316,106.681 260.983,106.884 C 260.891,106.94 260.835,106.977 260.761,107.032 C 260.668,107.088 260.595,107.142 260.502,107.179 C 260.354,107.308 260.206,107.419 260.04,107.567 C 259.763,107.808 259.541,108.103 259.301,108.399 L 259.301,108.399 C 259.282,108.418 259.264,108.418 259.228,108.418 C 259.228,108.418 259.228,108.418 259.228,108.437 C 259.208,108.437 259.191,108.456 259.171,108.474 C 259.171,108.474 259.171,108.474 259.153,108.474 C 259.134,108.474 259.116,108.474 259.097,108.474 C 259.078,108.51 259.023,108.53 259.004,108.566 C 258.948,108.64 258.911,108.695 258.857,108.752 C 258.783,108.844 258.727,108.973 258.671,109.084 C 258.598,109.269 258.542,109.473 258.449,109.656 C 258.449,109.676 258.449,109.713 258.449,109.73 C 258.449,109.767 258.449,109.786 258.431,109.804 C 258.412,109.989 258.375,110.137 258.32,110.284 L 258.32,110.284 C 258.32,110.376 258.301,110.469 258.264,110.561 C 258.264,110.58 258.264,110.58 258.264,110.58 C 258.264,110.727 258.246,110.893 258.209,111.042 C 258.209,111.338 258.209,111.651 258.209,111.947 L 258.209,111.947 C 258.209,112.021 258.246,112.076 258.264,112.169 L 258.264,112.169 C 258.283,112.298 258.301,112.409 258.301,112.501 L 258.301,112.501 C 258.357,112.612 258.394,112.724 258.431,112.816 C 258.505,113.075 258.578,113.278 258.689,113.5 C 258.689,113.5 258.689,113.518 258.708,113.537 L 258.689,113.537 C 258.726,113.573 258.746,113.629 258.763,113.684 C 258.763,113.684 258.763,113.684 258.782,113.684 C 258.782,113.721 258.801,113.739 258.819,113.794 C 258.819,113.813 258.819,113.813 258.819,113.813 C 258.819,113.832 258.838,113.832 258.838,113.832 L 258.838,113.832 C 258.857,113.869 258.857,113.906 258.857,113.925 C 258.857,113.925 258.857,113.925 258.857,113.943 C 258.968,114.11 259.079,114.276 259.208,114.406 C 259.301,114.48 259.374,114.572 259.467,114.683 C 259.67,114.885 259.856,115.089 260.059,115.274 C 260.151,115.348 260.244,115.422 260.336,115.496 C 260.41,115.552 260.465,115.589 260.521,115.643 C 260.502,115.68 260.502,115.717 260.54,115.754 L 260.54,115.754 C 260.743,115.939 260.983,116.068 261.297,116.179 C 261.408,116.216 261.501,116.235 261.593,116.253 C 261.87,116.383 262.166,116.475 262.499,116.548 C 262.609,116.585 262.721,116.605 262.831,116.622 C 262.941,116.642 263.071,116.678 263.183,116.696 C 263.33,116.696 263.459,116.696 263.608,116.696 C 263.608,116.696 263.608,116.696 263.627,116.696 L 263.627,116.696 C 263.886,116.677 264.107,116.641 264.292,116.622 L 264.292,116.604 C 264.384,116.584 264.477,116.567 264.569,116.53 L 264.569,116.53 C 264.901,116.474 265.197,116.383 265.474,116.271 L 265.474,116.252 C 265.567,116.196 265.659,116.142 265.77,116.123 C 265.917,116.03 266.029,115.956 266.176,115.883 C 266.323,115.826 266.435,115.753 266.527,115.642 C 266.601,115.587 266.675,115.513 266.75,115.458 C 266.823,115.365 266.896,115.291 266.988,115.217 C 267.136,115.088 267.284,114.958 267.414,114.811 C 267.433,114.756 267.487,114.682 267.524,114.645 C 267.598,114.534 267.672,114.442 267.747,114.368 C 267.765,114.294 267.802,114.221 267.839,114.164 C 267.95,114.018 268.042,113.851 268.116,113.647 C 268.153,113.628 268.172,113.573 268.19,113.537 C 268.227,113.463 268.246,113.37 268.283,113.297 C 268.338,113.167 268.393,113.056 268.429,112.908 L 268.429,112.908 C 268.429,112.908 268.429,112.889 268.429,112.871 L 268.448,112.871 C 268.448,112.816 268.467,112.797 268.485,112.779 C 268.485,112.759 268.485,112.759 268.485,112.759 C 268.485,112.759 268.485,112.723 268.485,112.704 C 268.541,112.537 268.578,112.353 268.615,112.168 C 268.615,111.983 268.651,111.836 268.708,111.669 C 268.708,111.613 268.708,111.576 268.688,111.54 C 268.651,111.411 268.651,111.281 268.67,111.152 C 268.707,110.966 268.688,110.782 268.65,110.633 L 268.65,110.615 C 268.632,110.559 268.614,110.522 268.595,110.467 C 268.576,110.467 268.576,110.467 268.595,110.467 C 268.595,110.374 268.595,110.282 268.558,110.171 L 268.558,110.171 C 268.539,109.986 268.465,109.802 268.411,109.617 L 268.411,109.617 C 268.411,109.487 268.355,109.358 268.3,109.248 L 268.3,109.248 C 268.282,109.174 268.263,109.118 268.227,109.062 L 268.227,109.062 C 268.134,108.822 267.987,108.6 267.838,108.397 C 267.838,108.397 267.838,108.397 267.838,108.378 C 267.838,108.378 267.838,108.341 267.838,108.285 L 267.819,108.285 C 267.8,108.211 267.763,108.138 267.727,108.064 C 267.707,108.064 267.707,108.064 267.707,108.064 C 267.689,108.044 267.652,108.008 267.634,107.953 L 267.634,107.953 C 267.615,107.934 267.579,107.916 267.542,107.916 C 267.319,107.713 267.116,107.51 266.876,107.324 C 266.766,107.232 266.674,107.139 266.563,107.048 C 266.323,106.9 266.102,106.734 265.842,106.585 C 265.769,106.585 265.695,106.566 265.657,106.53 C 265.602,106.493 265.547,106.474 265.491,106.456 C 265.344,106.419 265.214,106.382 265.102,106.346 L 265.102,106.346 C 265.047,106.309 265.029,106.29 264.992,106.272 C 264.973,106.272 264.973,106.272 264.955,106.272 C 264.936,106.291 264.918,106.272 264.918,106.253 C 264.827,106.237 264.716,106.219 264.624,106.219 z M 265.012,107.513 C 265.382,107.66 265.714,107.864 266.01,108.085 C 266.046,108.122 266.083,108.141 266.121,108.178 C 266.397,108.4 266.638,108.621 266.877,108.88 C 266.914,108.954 266.97,109.028 267.024,109.083 C 267.024,109.083 267.024,109.083 267.043,109.083 C 267.024,109.12 267.043,109.12 267.043,109.157 L 267.043,109.157 C 267.117,109.267 267.191,109.397 267.247,109.545 L 267.247,109.545 C 267.247,109.564 267.266,109.582 267.247,109.601 C 267.247,109.601 267.247,109.601 267.247,109.62 C 267.266,109.62 267.283,109.62 267.283,109.656 L 267.303,109.656 C 267.303,109.713 267.303,109.767 267.303,109.786 C 267.303,109.786 267.303,109.786 267.303,109.805 C 267.339,109.898 267.395,109.99 267.432,110.118 L 267.432,110.138 C 267.451,110.156 267.469,110.194 267.487,110.23 L 267.487,110.23 C 267.487,110.415 267.581,110.563 267.728,110.636 L 267.728,110.636 C 267.764,110.784 267.783,110.969 267.764,111.155 C 267.764,111.173 267.764,111.191 267.764,111.21 C 267.764,111.303 267.783,111.432 267.801,111.524 C 267.801,111.653 267.82,111.764 267.82,111.856 C 267.801,112.023 267.783,112.189 267.747,112.336 C 267.728,112.356 267.728,112.373 267.728,112.392 C 267.691,112.559 267.635,112.706 267.581,112.872 C 267.507,113.002 267.451,113.131 267.395,113.298 C 267.303,113.445 267.21,113.611 267.118,113.76 L 267.118,113.76 C 267.062,113.833 266.988,113.907 266.952,113.981 C 266.878,114.055 266.787,114.129 266.694,114.185 C 266.675,114.203 266.638,114.222 266.621,114.24 C 266.491,114.388 266.361,114.536 266.214,114.665 C 266.122,114.759 265.974,114.851 265.844,114.943 C 265.715,115.016 265.585,115.109 265.438,115.165 C 265.272,115.238 265.105,115.312 264.958,115.386 L 264.958,115.386 C 264.939,115.406 264.921,115.406 264.921,115.406 L 264.921,115.425 C 264.718,115.498 264.496,115.535 264.275,115.572 C 263.795,115.608 263.37,115.591 262.963,115.498 C 262.89,115.498 262.778,115.479 262.687,115.498 C 262.631,115.462 262.577,115.443 262.52,115.462 L 262.52,115.462 C 262.502,115.425 262.447,115.425 262.41,115.425 L 262.41,115.425 C 262.077,115.314 261.782,115.203 261.486,115.092 C 261.467,115.092 261.467,115.092 261.449,115.092 C 261.412,115.055 261.338,115.018 261.283,114.962 L 261.283,114.962 C 261.042,114.944 260.857,114.87 260.71,114.741 C 260.71,114.722 260.691,114.722 260.691,114.703 C 260.488,114.537 260.285,114.315 260.099,114.112 C 260.063,114.056 260.026,114.02 260.007,113.965 C 259.785,113.651 259.619,113.3 259.489,112.911 L 259.489,112.911 C 259.47,112.911 259.453,112.892 259.453,112.874 L 259.453,112.874 C 259.415,112.763 259.396,112.671 259.378,112.578 C 259.378,112.449 259.359,112.338 259.359,112.265 C 259.304,112.209 259.286,112.135 259.25,112.079 L 259.25,112.079 C 259.212,111.894 259.194,111.747 259.194,111.561 C 259.212,111.469 259.194,111.415 259.194,111.377 C 259.212,111.247 259.231,111.155 259.231,111.063 L 259.231,111.063 C 259.267,110.952 259.286,110.878 259.286,110.786 C 259.286,110.786 259.286,110.767 259.305,110.73 C 259.305,110.583 259.324,110.416 259.378,110.287 C 259.415,110.157 259.453,110.01 259.489,109.881 C 259.508,109.881 259.526,109.862 259.526,109.862 L 259.545,109.862 C 259.545,109.732 259.582,109.64 259.619,109.585 C 259.637,109.585 259.637,109.585 259.637,109.585 C 259.6,109.641 259.6,109.678 259.6,109.695 C 259.6,109.715 259.6,109.715 259.6,109.715 C 259.62,109.733 259.657,109.77 259.694,109.788 C 259.694,109.788 259.694,109.788 259.712,109.788 C 259.823,109.715 259.916,109.585 259.989,109.455 C 260.026,109.4 260.045,109.345 260.099,109.289 C 260.136,109.216 260.192,109.16 260.229,109.067 C 260.432,108.715 260.672,108.439 260.968,108.199 L 260.968,108.199 C 261.115,108.07 261.264,107.959 261.43,107.866 C 261.578,107.756 261.726,107.681 261.892,107.607 C 262.04,107.552 262.188,107.478 262.354,107.404 C 262.502,107.385 262.65,107.349 262.816,107.311 C 262.909,107.293 263.002,107.274 263.075,107.274 C 263.094,107.274 263.131,107.274 263.168,107.274 C 263.371,107.238 263.574,107.201 263.814,107.145 C 264.254,107.235 264.642,107.364 265.012,107.513 z "
   id="path55" />

		<path
   d="M 266.01,108.085 C 265.714,107.863 265.382,107.66 265.012,107.513 C 264.642,107.365 264.254,107.236 263.811,107.143 C 263.571,107.199 263.368,107.236 263.165,107.272 C 263.128,107.272 263.091,107.272 263.072,107.272 C 262.999,107.272 262.906,107.292 262.813,107.309 C 262.647,107.347 262.5,107.383 262.351,107.402 C 262.185,107.476 262.038,107.55 261.889,107.605 C 261.723,107.679 261.576,107.753 261.427,107.864 C 261.261,107.957 261.113,108.068 260.965,108.197 L 260.965,108.197 C 260.669,108.437 260.429,108.714 260.226,109.065 C 260.189,109.158 260.133,109.213 260.096,109.287 C 260.041,109.343 260.023,109.398 259.986,109.453 C 259.913,109.583 259.82,109.713 259.709,109.786 C 259.691,109.786 259.691,109.786 259.691,109.786 C 259.654,109.767 259.617,109.73 259.597,109.713 C 259.597,109.713 259.597,109.713 259.597,109.693 C 259.597,109.675 259.597,109.638 259.634,109.583 C 259.634,109.583 259.634,109.583 259.616,109.583 C 259.579,109.639 259.542,109.73 259.542,109.86 L 259.523,109.86 C 259.523,109.86 259.504,109.879 259.486,109.879 C 259.45,110.008 259.412,110.155 259.375,110.285 C 259.32,110.414 259.302,110.581 259.302,110.728 C 259.283,110.765 259.283,110.784 259.283,110.784 C 259.283,110.877 259.264,110.95 259.228,111.061 L 259.228,111.061 C 259.228,111.154 259.208,111.246 259.191,111.375 C 259.191,111.412 259.209,111.467 259.191,111.559 C 259.191,111.745 259.209,111.892 259.247,112.077 L 259.247,112.077 C 259.283,112.133 259.302,112.207 259.356,112.263 C 259.356,112.336 259.375,112.448 259.375,112.576 C 259.394,112.669 259.412,112.761 259.45,112.872 L 259.45,112.872 C 259.45,112.891 259.468,112.909 259.486,112.909 L 259.486,112.909 C 259.616,113.298 259.782,113.648 260.004,113.963 C 260.023,114.019 260.06,114.055 260.096,114.11 C 260.282,114.313 260.485,114.535 260.688,114.701 C 260.688,114.721 260.707,114.721 260.707,114.739 C 260.854,114.868 261.039,114.942 261.28,114.96 L 261.28,114.96 C 261.335,115.016 261.409,115.053 261.446,115.09 C 261.465,115.09 261.465,115.09 261.483,115.09 C 261.779,115.201 262.074,115.312 262.407,115.423 L 262.407,115.423 C 262.444,115.423 262.5,115.423 262.517,115.46 L 262.517,115.46 C 262.574,115.441 262.628,115.46 262.684,115.496 C 262.776,115.477 262.887,115.496 262.96,115.496 C 263.367,115.589 263.792,115.606 264.272,115.57 C 264.494,115.533 264.715,115.496 264.918,115.423 L 264.918,115.404 C 264.918,115.404 264.937,115.404 264.955,115.384 L 264.955,115.384 C 265.102,115.311 265.269,115.237 265.435,115.163 C 265.582,115.107 265.712,115.015 265.841,114.941 C 265.971,114.848 266.119,114.756 266.211,114.663 C 266.358,114.534 266.488,114.387 266.618,114.238 C 266.636,114.22 266.673,114.201 266.691,114.183 C 266.784,114.127 266.875,114.053 266.949,113.979 C 266.985,113.906 267.059,113.832 267.115,113.758 L 267.115,113.758 C 267.208,113.61 267.301,113.444 267.392,113.296 C 267.448,113.129 267.503,113 267.578,112.87 C 267.633,112.704 267.688,112.557 267.725,112.39 C 267.725,112.371 267.725,112.354 267.744,112.334 C 267.78,112.187 267.799,112.021 267.817,111.854 C 267.817,111.762 267.798,111.651 267.798,111.522 C 267.779,111.429 267.761,111.3 267.761,111.208 C 267.761,111.189 267.761,111.171 267.761,111.153 C 267.78,110.967 267.761,110.783 267.725,110.634 L 267.725,110.634 C 267.578,110.561 267.484,110.412 267.484,110.228 L 267.484,110.228 C 267.466,110.192 267.448,110.154 267.429,110.136 L 267.429,110.116 C 267.392,109.987 267.336,109.895 267.3,109.803 C 267.3,109.784 267.3,109.784 267.3,109.784 C 267.3,109.765 267.3,109.711 267.3,109.654 L 267.28,109.654 C 267.28,109.618 267.262,109.618 267.244,109.618 C 267.244,109.599 267.244,109.599 267.244,109.599 C 267.263,109.58 267.244,109.562 267.244,109.543 L 267.244,109.543 C 267.188,109.396 267.114,109.266 267.04,109.155 L 267.04,109.155 C 267.04,109.118 267.021,109.118 267.04,109.081 C 267.021,109.081 267.021,109.081 267.021,109.081 C 266.966,109.026 266.911,108.952 266.874,108.878 C 266.635,108.619 266.395,108.398 266.118,108.176 C 266.083,108.141 266.046,108.122 266.01,108.085 z M 263.978,109.878 L 263.978,109.878 C 263.996,109.859 264.033,109.841 264.07,109.822 L 264.089,109.822 C 264.108,109.822 264.163,109.822 264.199,109.822 L 264.199,109.822 C 264.402,109.712 264.642,109.582 264.864,109.489 C 265.031,109.433 265.216,109.433 265.383,109.489 C 265.549,109.563 265.715,109.619 265.881,109.675 C 266.067,109.785 266.251,109.914 266.399,110.081 C 266.455,110.117 266.51,110.173 266.547,110.228 C 266.565,110.265 266.565,110.302 266.565,110.339 C 266.565,110.358 266.565,110.358 266.565,110.358 C 266.51,110.413 266.473,110.468 266.38,110.505 L 266.38,110.505 C 266.38,110.524 266.361,110.542 266.343,110.542 C 266.343,110.542 266.343,110.542 266.343,110.561 C 266.288,110.58 266.214,110.598 266.177,110.634 C 266.177,110.634 266.177,110.634 266.177,110.654 C 266.067,110.691 265.955,110.727 265.826,110.746 C 265.826,110.746 265.826,110.746 265.806,110.746 C 265.677,110.654 265.567,110.561 265.419,110.469 C 265.382,110.45 265.308,110.413 265.271,110.413 C 265.234,110.413 265.215,110.376 265.179,110.376 L 265.179,110.376 C 265.142,110.376 265.104,110.376 265.085,110.376 L 265.067,110.376 C 264.937,110.45 264.827,110.506 264.698,110.562 C 264.661,110.581 264.624,110.618 264.587,110.655 C 264.55,110.857 264.55,111.061 264.568,111.301 C 264.587,111.393 264.604,111.504 264.641,111.614 C 264.641,111.634 264.661,111.651 264.661,111.67 C 264.734,111.8 264.863,111.892 265.012,111.929 C 265.159,111.985 265.308,112.022 265.474,112.076 C 265.493,112.076 265.511,112.058 265.548,112.058 C 265.548,112.038 265.548,112.038 265.567,112.038 C 265.64,111.946 265.733,111.853 265.843,111.762 L 265.843,111.762 C 265.843,111.706 265.863,111.669 265.863,111.633 L 265.863,111.633 C 266.01,111.633 266.122,111.669 266.195,111.743 C 266.195,111.762 266.214,111.762 266.214,111.762 C 266.343,111.836 266.473,111.928 266.584,112.021 L 266.584,112.039 C 266.51,112.132 266.473,112.206 266.436,112.298 L 266.436,112.298 C 266.362,112.428 266.289,112.538 266.177,112.631 C 266.14,112.668 266.104,112.687 266.047,112.705 C 265.955,112.742 265.881,112.779 265.807,112.834 C 265.585,112.871 265.364,112.908 265.143,112.871 C 265.069,112.871 264.957,112.871 264.847,112.871 C 264.643,112.852 264.459,112.797 264.292,112.686 C 264.126,112.575 263.996,112.446 263.867,112.317 C 263.83,112.279 263.811,112.243 263.793,112.206 C 263.701,112.076 263.627,111.966 263.553,111.837 C 263.516,111.744 263.498,111.634 263.48,111.504 C 263.48,111.485 263.48,111.485 263.48,111.467 C 263.48,111.43 263.499,111.412 263.516,111.393 C 263.516,111.356 263.498,111.319 263.498,111.301 L 263.479,111.301 C 263.498,111.154 263.479,111.024 263.459,110.913 L 263.459,110.913 C 263.479,110.856 263.497,110.783 263.515,110.709 C 263.515,110.617 263.552,110.562 263.626,110.543 C 263.718,110.266 263.811,110.044 263.978,109.878 z M 263.626,112.132 C 263.644,112.132 263.644,112.132 263.644,112.132 C 263.608,112.206 263.571,112.298 263.534,112.355 C 263.534,112.355 263.534,112.355 263.534,112.373 C 263.515,112.392 263.498,112.392 263.479,112.392 L 263.479,112.392 C 263.442,112.448 263.442,112.485 263.442,112.522 C 263.442,112.54 263.442,112.54 263.442,112.54 C 263.422,112.577 263.422,112.597 263.405,112.633 C 263.386,112.633 263.386,112.633 263.386,112.633 C 263.257,112.762 263.072,112.855 262.906,112.947 C 262.832,112.983 262.776,113.003 262.702,113.04 C 262.629,113.077 262.517,113.095 262.426,113.095 C 262.24,113.077 262.074,113.077 261.964,113.058 C 261.89,113.058 261.817,113.058 261.76,113.021 C 261.594,112.984 261.465,112.911 261.335,112.855 C 261.225,112.782 261.133,112.726 261.039,112.652 C 261.021,112.633 260.984,112.597 260.966,112.578 C 260.893,112.504 260.818,112.412 260.744,112.338 C 260.67,112.265 260.651,112.172 260.634,112.062 C 260.614,111.951 260.597,111.84 260.56,111.766 C 260.56,111.562 260.541,111.378 260.523,111.248 C 260.523,111.211 260.523,111.192 260.523,111.156 C 260.542,111.063 260.56,110.97 260.56,110.879 L 260.56,110.879 C 260.578,110.822 260.597,110.749 260.597,110.694 L 260.597,110.674 C 260.726,110.471 260.855,110.305 261.022,110.139 C 261.022,110.139 261.022,110.139 261.04,110.139 C 261.134,109.991 261.281,109.862 261.447,109.787 C 261.577,109.731 261.687,109.677 261.798,109.621 C 261.891,109.584 261.965,109.584 262.057,109.584 C 262.187,109.64 262.334,109.677 262.519,109.714 C 262.63,109.714 262.723,109.732 262.815,109.769 C 263.055,109.916 263.259,110.083 263.424,110.287 L 263.424,110.287 C 263.369,110.453 263.277,110.546 263.148,110.638 L 263.148,110.638 C 263.111,110.638 263.074,110.658 263.019,110.658 L 263.019,110.658 C 263,110.676 262.962,110.695 262.944,110.731 L 262.944,110.731 C 262.889,110.75 262.815,110.768 262.76,110.75 C 262.74,110.75 262.74,110.75 262.74,110.769 C 262.648,110.75 262.538,110.732 262.445,110.696 C 262.315,110.603 262.149,110.585 261.983,110.659 C 261.964,110.659 261.946,110.659 261.927,110.677 C 261.76,110.77 261.613,110.899 261.538,111.066 C 261.483,111.213 261.465,111.343 261.502,111.491 C 261.502,111.583 261.52,111.657 261.576,111.768 C 261.612,111.842 261.668,111.934 261.742,111.99 C 261.853,112.064 261.945,112.119 262.074,112.156 C 262.185,112.193 262.314,112.212 262.444,112.175 C 262.444,112.175 262.463,112.175 262.48,112.194 C 262.5,112.175 262.517,112.175 262.537,112.175 L 262.537,112.175 C 262.647,112.082 262.722,111.972 262.776,111.843 C 262.795,111.806 262.795,111.787 262.813,111.769 C 262.979,111.769 263.109,111.806 263.257,111.898 C 263.293,111.935 263.367,111.954 263.459,111.972 C 263.533,111.991 263.57,112.028 263.626,112.082 C 263.626,112.096 263.626,112.113 263.626,112.132 z "
   id="path57"
   style="fill:#fdfdfd" />

		<path
   d="M 263.978,109.878 L 263.978,109.878 C 263.811,110.044 263.718,110.266 263.626,110.543 C 263.552,110.562 263.515,110.617 263.515,110.709 C 263.497,110.783 263.479,110.856 263.459,110.913 L 263.459,110.913 C 263.479,111.023 263.497,111.153 263.479,111.301 L 263.498,111.301 C 263.498,111.319 263.516,111.356 263.516,111.393 C 263.498,111.413 263.48,111.43 263.48,111.467 C 263.48,111.486 263.48,111.486 263.48,111.504 C 263.499,111.634 263.516,111.744 263.553,111.837 C 263.627,111.966 263.701,112.076 263.793,112.206 C 263.812,112.243 263.83,112.279 263.867,112.317 C 263.996,112.446 264.126,112.575 264.292,112.686 C 264.459,112.796 264.643,112.852 264.847,112.871 C 264.957,112.871 265.069,112.871 265.143,112.871 C 265.364,112.908 265.585,112.871 265.807,112.834 C 265.881,112.779 265.955,112.742 266.047,112.705 C 266.104,112.686 266.14,112.668 266.177,112.631 C 266.288,112.538 266.362,112.428 266.436,112.298 L 266.436,112.298 C 266.473,112.206 266.51,112.132 266.584,112.039 L 266.584,112.021 C 266.473,111.928 266.343,111.836 266.214,111.762 C 266.214,111.762 266.195,111.762 266.195,111.743 C 266.122,111.669 266.01,111.633 265.863,111.633 L 265.863,111.633 C 265.863,111.669 265.843,111.706 265.843,111.762 L 265.843,111.762 C 265.733,111.854 265.64,111.947 265.567,112.038 C 265.548,112.038 265.548,112.038 265.548,112.058 C 265.511,112.058 265.492,112.076 265.474,112.076 C 265.308,112.021 265.16,111.984 265.012,111.929 C 264.864,111.892 264.735,111.8 264.661,111.67 C 264.661,111.651 264.641,111.634 264.641,111.614 C 264.604,111.504 264.586,111.392 264.568,111.301 C 264.549,111.061 264.549,110.857 264.587,110.655 C 264.624,110.618 264.661,110.581 264.698,110.562 C 264.827,110.506 264.937,110.451 265.067,110.376 L 265.085,110.376 C 265.104,110.376 265.142,110.376 265.179,110.376 L 265.179,110.376 C 265.215,110.376 265.234,110.413 265.271,110.413 C 265.308,110.413 265.382,110.45 265.419,110.469 C 265.566,110.562 265.677,110.655 265.806,110.746 C 265.826,110.746 265.826,110.746 265.826,110.746 C 265.955,110.727 266.066,110.691 266.177,110.654 C 266.177,110.634 266.177,110.634 266.177,110.634 C 266.214,110.598 266.288,110.579 266.343,110.561 C 266.343,110.542 266.343,110.542 266.343,110.542 C 266.362,110.542 266.38,110.523 266.38,110.505 L 266.38,110.505 C 266.473,110.468 266.51,110.412 266.565,110.358 C 266.565,110.358 266.565,110.358 266.565,110.339 C 266.565,110.302 266.565,110.265 266.547,110.228 C 266.51,110.172 266.454,110.117 266.399,110.081 C 266.252,109.914 266.067,109.785 265.881,109.675 C 265.715,109.619 265.549,109.564 265.383,109.489 C 265.216,109.433 265.031,109.433 264.864,109.489 C 264.642,109.582 264.402,109.712 264.199,109.822 L 264.199,109.822 C 264.163,109.822 264.107,109.822 264.089,109.822 L 264.07,109.822 C 264.032,109.841 263.995,109.859 263.978,109.878 z "
   id="path59" />

		<path
   d="M 263.644,112.132 C 263.644,112.132 263.644,112.132 263.626,112.132 C 263.626,112.113 263.626,112.096 263.626,112.076 C 263.57,112.021 263.533,111.984 263.459,111.966 C 263.367,111.947 263.293,111.929 263.257,111.892 C 263.109,111.8 262.979,111.763 262.813,111.763 C 262.794,111.782 262.794,111.8 262.776,111.837 C 262.721,111.966 262.647,112.076 262.537,112.169 L 262.537,112.169 C 262.517,112.169 262.5,112.169 262.48,112.188 C 262.462,112.169 262.444,112.169 262.444,112.169 C 262.314,112.206 262.185,112.188 262.074,112.15 C 261.945,112.113 261.853,112.058 261.742,111.984 C 261.668,111.928 261.612,111.837 261.576,111.762 C 261.519,111.651 261.502,111.576 261.502,111.485 C 261.465,111.338 261.483,111.208 261.538,111.06 C 261.612,110.893 261.76,110.764 261.927,110.671 C 261.946,110.653 261.964,110.653 261.983,110.653 C 262.149,110.579 262.315,110.597 262.445,110.69 C 262.538,110.726 262.648,110.745 262.74,110.763 C 262.74,110.744 262.74,110.744 262.76,110.744 C 262.815,110.763 262.889,110.744 262.944,110.725 L 262.944,110.725 C 262.963,110.689 263.001,110.669 263.019,110.652 L 263.019,110.652 C 263.074,110.652 263.111,110.632 263.148,110.632 L 263.148,110.632 C 263.277,110.54 263.37,110.447 263.424,110.281 L 263.424,110.281 C 263.259,110.078 263.055,109.911 262.815,109.763 C 262.723,109.726 262.63,109.708 262.519,109.708 C 262.334,109.671 262.187,109.634 262.057,109.578 C 261.965,109.578 261.891,109.578 261.798,109.615 C 261.688,109.671 261.577,109.725 261.447,109.781 C 261.281,109.855 261.134,109.984 261.04,110.133 C 261.022,110.133 261.022,110.133 261.022,110.133 C 260.855,110.299 260.726,110.465 260.597,110.668 L 260.597,110.688 C 260.597,110.743 260.577,110.816 260.56,110.873 L 260.56,110.873 C 260.56,110.965 260.541,111.058 260.523,111.15 C 260.523,111.186 260.523,111.205 260.523,111.242 C 260.542,111.372 260.56,111.555 260.56,111.76 C 260.597,111.834 260.615,111.945 260.634,112.056 C 260.652,112.166 260.67,112.259 260.744,112.332 C 260.817,112.406 260.892,112.498 260.966,112.572 C 260.985,112.592 261.022,112.628 261.039,112.646 C 261.133,112.72 261.225,112.776 261.335,112.849 C 261.465,112.905 261.594,112.978 261.76,113.015 C 261.817,113.052 261.89,113.052 261.964,113.052 C 262.074,113.072 262.24,113.072 262.426,113.089 C 262.518,113.089 262.629,113.071 262.702,113.034 C 262.776,112.997 262.832,112.977 262.906,112.941 C 263.072,112.848 263.258,112.755 263.386,112.627 C 263.386,112.627 263.386,112.627 263.405,112.627 C 263.423,112.591 263.423,112.571 263.442,112.534 C 263.442,112.534 263.442,112.534 263.442,112.516 C 263.442,112.479 263.442,112.442 263.479,112.386 L 263.479,112.386 C 263.498,112.386 263.515,112.386 263.534,112.367 C 263.534,112.349 263.534,112.349 263.534,112.349 C 263.57,112.298 263.607,112.206 263.644,112.132 z "
   id="path61" />

	</g>

</g>
  </g>
</svg>
