<?xml version="1.0" encoding="UTF-8" standalone="no"?>
<!-- Created with Inkscape (http://www.inkscape.org/) -->
<svg
   xmlns:dc="http://purl.org/dc/elements/1.1/"
   xmlns:cc="http://web.resource.org/cc/"
   xmlns:rdf="http://www.w3.org/1999/02/22-rdf-syntax-ns#"
   xmlns:svg="http://www.w3.org/2000/svg"
   xmlns="http://www.w3.org/2000/svg"
   xmlns:sodipodi="http://sodipodi.sourceforge.net/DTD/sodipodi-0.dtd"
   xmlns:inkscape="http://www.inkscape.org/namespaces/inkscape"
   width="30.567001"
   height="30.366385"
   id="svg2476"
   sodipodi:version="0.32"
   inkscape:version="0.45.1"
   sodipodi:docbase="/home/scott/work/cc/livecd/icons"
   sodipodi:docname="cc-music.svg"
   inkscape:output_extension="org.inkscape.output.svg.inkscape"
   version="1.0">
  <defs
     id="defs2478" />
  <sodipodi:namedview
     id="base"
     pagecolor="#ffffff"
     bordercolor="#666666"
     borderopacity="1.0"
     gridtolerance="10000"
     guidetolerance="10"
     objecttolerance="10"
     inkscape:pageopacity="0.0"
     inkscape:pageshadow="2"
     inkscape:zoom="4"
     inkscape:cx="64.268428"
     inkscape:cy="32.886764"
     inkscape:document-units="px"
     inkscape:current-layer="layer1"
     inkscape:window-width="746"
     inkscape:window-height="612"
     inkscape:window-x="3"
     inkscape:window-y="435" />
  <metadata
     id="metadata2481">
    <rdf:RDF>
      <cc:Work
         rdf:about="">
        <dc:format>image/svg+xml</dc:format>
        <dc:type
           rdf:resource="http://purl.org/dc/dcmitype/StillImage" />
      </cc:Work>
    </rdf:RDF>
  </metadata>
  <g
     inkscape:label="Layer 1"
     inkscape:groupmode="layer"
     id="layer1"
     transform="translate(-611.46135,-521.06071)">
    <g
       id="g111"
       transform="translate(531.98535,434.73109)">
	<g
   id="g113">
		<g
   id="g115">
			<path
   d="M 100.084,87.044 C 100.02,87.028 99.955,86.996 99.891,86.996 C 99.038,86.85 98.234,86.706 97.478,86.529 C 96.883,86.384 96.416,86.304 96.046,86.337 C 95.725,86.353 95.402,86.368 95.081,86.368 C 95.017,86.368 94.984,86.368 94.92,86.368 C 94.856,86.368 94.823,86.368 94.775,86.368 C 93.327,86.288 91.927,86.449 90.592,86.835 C 89.916,87.028 89.273,87.044 88.646,86.916 C 88.308,86.851 87.922,86.787 87.52,86.77 C 87.52,86.819 87.52,86.85 87.504,86.85 C 86.973,86.883 86.699,87.188 86.715,87.736 C 85.799,88.572 84.882,89.424 83.997,90.309 C 83.675,90.631 83.369,90.984 83.112,91.387 C 83.048,91.467 83,91.547 82.951,91.628 C 82.887,91.82 82.79,91.949 82.678,92.046 C 82.34,92.304 82.131,92.69 82.051,93.204 L 81.97,93.204 C 81.987,93.477 81.842,93.59 81.569,93.525 C 81.569,93.574 81.552,93.622 81.552,93.67 C 81.166,94.941 80.699,96.132 80.12,97.226 C 80.104,97.692 80.072,98.111 80.008,98.512 C 79.976,98.673 79.944,98.819 79.879,98.948 C 79.702,99.429 79.621,100.042 79.702,100.749 C 79.734,101.264 79.653,101.65 79.476,101.892 C 79.734,101.988 79.83,102.246 79.734,102.663 C 79.734,102.727 79.734,102.775 79.734,102.809 C 79.782,102.954 79.814,103.13 79.831,103.339 C 79.895,103.934 79.991,104.529 80.12,105.109 L 80.04,105.109 C 80.104,105.254 80.088,105.463 79.959,105.753 C 80.023,105.753 80.056,105.753 80.105,105.785 C 80.491,105.93 80.539,106.187 80.282,106.556 C 80.218,106.782 80.265,106.863 80.427,106.814 L 80.524,106.797 C 80.588,106.846 80.621,106.91 80.669,107.007 C 80.781,107.279 80.91,107.569 81.023,107.859 C 81.072,107.956 81.104,108.037 81.169,108.085 C 81.555,108.552 81.845,109.099 82.054,109.774 C 82.151,109.774 82.231,109.791 82.263,109.838 C 82.488,110.208 82.761,110.562 83.034,110.867 C 83.372,111.237 83.726,111.591 84.064,111.945 C 84.788,112.652 85.56,113.328 86.38,113.955 C 86.443,114.004 86.508,114.036 86.572,114.068 C 87.666,114.599 88.744,115.146 89.773,115.725 C 90.432,115.757 91.044,115.837 91.559,115.998 C 92.137,116.174 92.781,116.27 93.473,116.287 C 93.537,116.287 93.569,116.287 93.585,116.287 C 93.811,116.416 94.147,116.432 94.582,116.319 C 94.695,116.287 94.823,116.287 94.92,116.287 C 94.984,116.287 95.017,116.27 95.032,116.27 C 95.242,116.173 95.467,116.11 95.724,116.045 C 95.821,116.366 96.078,116.56 96.512,116.592 C 96.624,116.608 96.753,116.608 96.866,116.624 C 97.51,116.72 98.041,116.72 98.474,116.607 C 98.523,116.607 98.555,116.607 98.555,116.591 C 98.732,116.479 99.037,116.446 99.423,116.527 C 99.423,116.463 99.44,116.43 99.455,116.43 C 99.536,116.381 99.6,116.334 99.664,116.285 C 99.728,116.221 99.761,116.205 99.793,116.188 C 100.34,116.043 100.372,115.882 99.905,115.722 C 99.905,115.658 99.922,115.641 99.922,115.625 C 100.372,115.479 100.678,115.255 100.871,114.917 C 101.16,114.933 101.369,114.885 101.53,114.756 C 101.82,114.515 102.029,114.467 102.157,114.596 C 102.463,114.306 102.785,114.048 103.138,113.823 C 103.492,113.614 103.862,113.438 104.248,113.309 C 104.312,113.003 104.489,112.793 104.746,112.681 C 105.004,112.569 105.116,112.28 105.052,111.861 C 105.116,111.861 105.149,111.829 105.165,111.813 C 105.31,111.635 105.551,111.539 105.856,111.539 C 106.612,110.575 107.368,109.609 108.125,108.644 C 108.173,108.596 108.188,108.531 108.188,108.483 C 108.205,107.839 108.446,107.47 108.913,107.357 C 108.849,107.244 108.832,107.132 108.832,107.035 C 108.832,106.972 108.849,106.907 108.849,106.843 C 108.978,106.313 109.17,105.829 109.396,105.427 C 109.46,104.688 109.493,104.092 109.541,103.658 C 109.589,102.933 109.653,102.242 109.718,101.566 L 109.799,101.566 C 109.782,101.276 109.862,101.116 110.04,101.084 C 110.04,100.44 110.023,99.797 109.976,99.154 C 109.959,99.105 109.976,99.056 109.976,99.025 C 110.056,98.784 109.976,98.558 109.718,98.349 C 109.767,97.914 109.702,97.609 109.541,97.384 C 109.493,97.335 109.461,97.255 109.461,97.191 C 109.412,97.046 109.364,96.901 109.3,96.789 C 109.027,96.29 108.962,95.855 109.074,95.454 C 108.768,94.843 108.447,94.247 108.126,93.668 C 107.804,93.122 107.53,92.543 107.305,91.915 C 107.242,91.915 107.209,91.883 107.193,91.867 C 106.453,91.143 105.761,90.402 105.053,89.663 C 104.989,89.663 104.957,89.631 104.908,89.614 C 104.796,89.534 104.619,89.502 104.409,89.502 C 104.409,89.439 104.393,89.405 104.361,89.373 C 103.766,88.859 103.138,88.36 102.479,87.894 C 102.415,87.894 102.382,87.894 102.318,87.894 C 102.093,87.894 101.9,87.894 101.674,87.894 C 101.642,87.702 101.529,87.588 101.368,87.524 C 100.937,87.397 100.502,87.221 100.084,87.044 z M 97.88,87.993 C 97.88,87.977 97.912,87.977 97.96,87.961 C 98.314,87.945 98.556,88.009 98.668,88.187 C 98.748,88.316 98.894,88.364 99.103,88.379 C 99.312,88.267 99.569,88.331 99.874,88.572 C 100.116,88.765 100.437,88.894 100.823,89.007 C 100.855,89.023 100.887,89.038 100.952,89.104 C 101.016,89.152 101.097,89.184 101.193,89.184 C 101.354,89.184 101.515,89.184 101.675,89.184 C 102.062,89.585 102.544,89.908 103.139,90.117 C 103.188,90.134 103.22,90.149 103.284,90.149 C 103.462,90.567 103.783,90.825 104.25,90.921 C 104.314,90.938 104.347,90.953 104.41,90.953 C 104.507,91.162 104.62,91.388 104.716,91.596 C 104.716,91.645 104.733,91.693 104.733,91.758 C 104.942,91.758 105.119,91.79 105.232,91.87 C 105.28,91.886 105.312,91.918 105.377,91.918 C 105.474,92.175 105.586,92.449 105.683,92.722 C 105.683,92.771 105.699,92.82 105.699,92.884 C 105.972,93.076 106.262,93.285 106.536,93.479 C 106.568,93.496 106.6,93.527 106.665,93.527 C 106.938,94.316 107.292,95.055 107.694,95.731 C 107.694,95.763 107.726,95.78 107.791,95.78 C 107.791,95.988 107.791,96.197 107.791,96.423 C 107.791,96.472 107.791,96.52 107.791,96.584 C 107.968,96.616 108.097,96.696 108.177,96.857 C 108.177,96.889 108.209,96.905 108.274,96.905 C 108.419,97.63 108.563,98.321 108.74,98.997 C 108.74,99.045 108.757,99.093 108.757,99.158 C 108.371,99.189 108.339,99.35 108.693,99.576 C 108.741,99.608 108.773,99.672 108.822,99.753 C 109.014,100.171 109.014,100.557 108.758,100.927 C 108.549,101.073 108.581,101.265 108.855,101.49 C 109.064,101.651 109.08,101.892 108.919,102.214 C 108.902,102.552 108.806,102.584 108.597,102.294 L 108.597,102.375 C 108.533,102.696 108.5,103.018 108.452,103.34 C 108.435,103.389 108.435,103.437 108.435,103.501 C 108.596,103.662 108.613,103.935 108.452,104.306 C 108.452,104.354 108.435,104.402 108.435,104.466 C 107.888,104.659 107.84,104.949 108.226,105.302 C 108.258,105.335 108.275,105.367 108.275,105.431 C 107.969,105.528 107.888,105.672 108.034,105.833 L 107.97,105.914 C 107.809,106.139 107.744,106.444 107.793,106.879 C 107.664,107.072 107.52,107.233 107.326,107.394 C 107.165,107.523 107.004,107.684 106.827,107.844 C 106.65,108.022 106.65,108.15 106.795,108.231 C 106.812,108.231 106.827,108.263 106.827,108.327 C 106.489,108.311 106.361,108.52 106.409,108.971 C 106.426,109.019 106.409,109.083 106.377,109.132 C 106.361,109.181 106.345,109.229 106.345,109.293 C 105.815,109.84 105.331,110.419 104.881,111.046 C 104.833,111.094 104.784,111.143 104.72,111.175 C 104.511,111.303 104.351,111.465 104.254,111.706 C 104.028,111.786 103.755,111.834 103.449,111.851 C 103.385,111.867 103.352,111.867 103.288,111.867 C 103.352,112.14 103.24,112.269 102.967,112.269 L 102.967,112.349 C 102.565,112.366 102.308,112.542 102.179,112.831 C 102.179,112.88 102.162,112.928 102.162,112.992 C 101.825,112.831 101.584,112.895 101.423,113.185 C 101.342,113.346 101.214,113.346 100.988,113.233 C 100.972,113.233 100.94,113.265 100.924,113.314 C 100.892,113.426 100.876,113.523 100.876,113.635 C 100.554,113.844 100.216,113.876 99.862,113.715 C 99.846,113.715 99.814,113.732 99.75,113.795 C 99.686,113.844 99.653,113.893 99.589,113.956 C 99.734,114.31 99.686,114.472 99.396,114.391 C 99.236,114.343 99.107,114.391 99.01,114.52 C 98.962,114.568 98.898,114.568 98.801,114.552 C 98.737,114.52 98.689,114.488 98.624,114.439 C 98.254,114.89 97.932,114.955 97.61,114.633 C 97.593,114.601 97.562,114.601 97.498,114.601 C 97.32,115.115 97.015,115.196 96.629,114.842 C 96.613,114.842 96.581,114.858 96.517,114.89 C 96.372,115.018 96.211,115.131 96.05,115.244 C 95.712,115.261 95.471,115.181 95.326,115.003 L 95.246,115.083 C 95.182,115.132 95.149,115.181 95.085,115.244 C 95.053,115.115 94.876,115.083 94.586,115.132 C 94.489,115.149 94.394,115.115 94.297,115.052 C 94.136,114.939 93.91,114.955 93.637,115.083 C 93.299,115.1 93.058,115.019 92.913,114.843 L 92.833,114.843 C 92.769,114.843 92.736,114.811 92.672,114.762 C 92.608,114.698 92.575,114.65 92.511,114.602 C 92.254,114.923 91.964,114.956 91.643,114.682 C 91.579,114.618 91.482,114.602 91.385,114.602 C 91.289,114.602 91.16,114.602 91.064,114.602 C 90.952,114.392 90.726,114.28 90.42,114.28 C 90.356,114.28 90.323,114.28 90.259,114.28 C 90.243,113.926 90.018,113.749 89.632,113.717 C 89.568,113.717 89.52,113.717 89.455,113.717 C 88.747,113.734 88.312,113.492 88.168,112.993 C 87.878,113.106 87.701,113.122 87.621,113.025 C 87.621,112.993 87.589,112.993 87.524,112.993 C 87.347,112.687 87.106,112.462 86.816,112.269 C 86.656,112.157 86.462,112.044 86.286,111.948 C 86.189,111.883 86.125,111.819 86.028,111.77 C 85.964,111.722 85.851,111.707 85.755,111.707 C 85.819,111.417 85.787,111.224 85.626,111.144 C 85.61,111.144 85.594,111.112 85.594,111.063 C 85.369,110.951 85.16,110.854 84.935,110.757 C 84.887,110.741 84.855,110.741 84.79,110.741 C 84.613,110.371 84.468,109.985 84.323,109.598 C 84.323,109.55 84.307,109.502 84.307,109.453 C 83.728,109.003 83.229,108.488 82.794,107.877 C 82.794,107.845 82.762,107.845 82.698,107.845 C 82.714,107.556 82.649,107.347 82.505,107.234 C 82.473,107.203 82.441,107.203 82.376,107.203 C 82.473,106.671 82.393,106.318 82.135,106.157 L 82.135,106.077 C 82.119,105.851 82.038,105.69 81.894,105.594 C 82.071,105.498 82.135,105.353 82.071,105.144 C 82.071,105.112 81.991,105.095 81.894,105.08 C 81.653,105.032 81.653,105 81.894,104.952 C 81.958,104.436 81.797,104.146 81.427,104.066 C 81.427,104.066 81.411,104.034 81.411,103.986 C 81.556,103.584 81.588,103.295 81.508,103.133 C 81.459,102.94 81.476,102.812 81.572,102.698 C 81.909,102.44 81.909,102.168 81.62,101.845 C 81.588,101.813 81.572,101.781 81.572,101.733 C 81.588,101.057 81.459,100.558 81.137,100.237 C 81.105,100.205 81.088,100.173 81.088,100.124 C 81.523,100.012 81.619,99.755 81.394,99.32 C 81.346,99.272 81.33,99.208 81.33,99.16 C 81.33,99.095 81.347,99.047 81.411,98.999 C 81.588,98.951 81.668,98.79 81.652,98.516 L 81.732,98.516 C 81.716,98.066 81.796,97.696 81.958,97.422 C 81.958,97.391 81.99,97.391 82.055,97.391 C 81.926,97.101 81.894,96.875 81.958,96.699 C 82.006,96.522 82.022,96.362 81.974,96.217 C 81.91,96.088 81.894,95.944 81.894,95.783 C 82.039,95.589 82.152,95.38 82.2,95.139 C 82.2,95.075 82.216,95.026 82.216,94.978 C 82.394,94.929 82.522,94.849 82.603,94.688 C 82.603,94.657 82.635,94.657 82.7,94.657 C 82.651,94.221 82.731,93.917 82.941,93.756 C 83.005,93.708 83.037,93.643 83.086,93.563 C 83.536,92.807 84.035,92.067 84.565,91.392 C 85.015,90.796 85.546,90.314 86.141,89.896 C 86.205,89.847 86.287,89.799 86.367,89.75 C 86.384,89.75 86.399,89.718 86.399,89.67 C 86.657,89.896 86.881,89.911 87.09,89.702 C 87.107,89.67 87.139,89.67 87.203,89.67 C 87.299,89.349 87.509,89.108 87.814,88.962 C 87.83,88.946 87.846,88.914 87.846,88.866 C 88.425,88.64 89.068,88.447 89.76,88.303 C 89.76,88.303 89.776,88.271 89.776,88.222 C 90.034,88.222 90.323,88.222 90.581,88.222 C 90.645,88.222 90.678,88.222 90.741,88.222 C 90.773,88.03 90.934,87.95 91.224,87.982 L 91.224,87.901 C 91.803,87.869 92.333,87.804 92.816,87.675 C 93.089,87.595 93.412,87.579 93.797,87.579 C 94.006,87.579 94.183,87.595 94.312,87.642 C 94.344,87.642 94.393,87.659 94.457,87.642 C 95.149,87.594 95.793,87.642 96.355,87.771 C 96.645,87.835 96.966,87.835 97.336,87.74 C 97.366,88.09 97.542,88.187 97.88,87.993 z "
   id="path117" />

			<path
   d="M 97.96,87.961 C 97.912,87.978 97.88,87.978 97.88,87.993 C 97.542,88.186 97.365,88.09 97.333,87.736 C 96.963,87.832 96.642,87.832 96.352,87.767 C 95.79,87.638 95.146,87.59 94.454,87.638 C 94.391,87.655 94.342,87.638 94.309,87.638 C 94.18,87.59 94.003,87.575 93.794,87.575 C 93.408,87.575 93.086,87.591 92.813,87.671 C 92.331,87.8 91.8,87.864 91.221,87.897 L 91.221,87.978 C 90.931,87.946 90.77,88.026 90.738,88.218 C 90.675,88.218 90.642,88.218 90.578,88.218 C 90.32,88.218 90.031,88.218 89.773,88.218 C 89.773,88.267 89.757,88.299 89.757,88.299 C 89.065,88.444 88.422,88.637 87.843,88.862 C 87.843,88.91 87.826,88.942 87.811,88.958 C 87.505,89.104 87.295,89.345 87.2,89.666 C 87.136,89.666 87.103,89.666 87.087,89.698 C 86.878,89.907 86.653,89.891 86.396,89.666 C 86.396,89.714 86.38,89.746 86.364,89.746 C 86.284,89.795 86.203,89.843 86.138,89.892 C 85.543,90.31 85.012,90.792 84.562,91.388 C 84.032,92.063 83.533,92.803 83.083,93.559 C 83.034,93.639 83.003,93.705 82.938,93.752 C 82.728,93.913 82.648,94.218 82.697,94.653 C 82.633,94.653 82.6,94.653 82.6,94.684 C 82.519,94.845 82.391,94.925 82.213,94.974 C 82.213,95.022 82.197,95.071 82.197,95.135 C 82.149,95.375 82.036,95.584 81.891,95.779 C 81.891,95.939 81.907,96.084 81.971,96.213 C 82.02,96.359 82.003,96.519 81.955,96.695 C 81.891,96.872 81.923,97.097 82.052,97.387 C 81.988,97.387 81.955,97.387 81.955,97.418 C 81.794,97.691 81.714,98.062 81.729,98.512 L 81.649,98.512 C 81.665,98.786 81.585,98.948 81.408,98.995 C 81.344,99.043 81.327,99.091 81.327,99.156 C 81.327,99.204 81.344,99.268 81.391,99.316 C 81.617,99.751 81.52,100.007 81.085,100.12 C 81.085,100.169 81.102,100.201 81.134,100.233 C 81.455,100.554 81.584,101.053 81.569,101.729 C 81.569,101.777 81.585,101.809 81.617,101.841 C 81.906,102.163 81.906,102.436 81.569,102.694 C 81.472,102.807 81.456,102.935 81.505,103.129 C 81.585,103.29 81.553,103.579 81.408,103.982 C 81.408,104.03 81.424,104.062 81.424,104.062 C 81.794,104.142 81.955,104.432 81.891,104.948 C 81.65,104.996 81.65,105.028 81.891,105.076 C 81.988,105.092 82.068,105.108 82.068,105.14 C 82.132,105.349 82.068,105.494 81.891,105.59 C 82.036,105.687 82.117,105.848 82.132,106.073 L 82.132,106.153 C 82.39,106.314 82.47,106.667 82.373,107.199 C 82.437,107.199 82.47,107.199 82.502,107.23 C 82.647,107.343 82.711,107.552 82.695,107.841 C 82.758,107.841 82.791,107.841 82.791,107.873 C 83.226,108.484 83.725,108.999 84.304,109.449 C 84.304,109.498 84.32,109.546 84.32,109.594 C 84.465,109.981 84.61,110.366 84.787,110.737 C 84.851,110.737 84.884,110.737 84.932,110.753 C 85.158,110.85 85.367,110.946 85.591,111.059 C 85.591,111.108 85.608,111.14 85.623,111.14 C 85.784,111.22 85.816,111.413 85.752,111.703 C 85.849,111.703 85.961,111.719 86.025,111.766 C 86.122,111.815 86.186,111.878 86.283,111.944 C 86.46,112.041 86.653,112.153 86.813,112.265 C 87.103,112.457 87.344,112.683 87.521,112.989 C 87.585,112.989 87.618,112.989 87.618,113.021 C 87.698,113.118 87.875,113.102 88.165,112.989 C 88.31,113.488 88.744,113.729 89.452,113.713 C 89.516,113.713 89.564,113.713 89.629,113.713 C 90.015,113.745 90.24,113.923 90.256,114.276 C 90.32,114.276 90.353,114.276 90.417,114.276 C 90.723,114.276 90.948,114.388 91.061,114.598 C 91.158,114.598 91.287,114.598 91.382,114.598 C 91.479,114.598 91.575,114.614 91.64,114.678 C 91.961,114.951 92.251,114.919 92.508,114.598 C 92.572,114.646 92.605,114.694 92.669,114.758 C 92.733,114.807 92.766,114.839 92.83,114.839 L 92.91,114.839 C 93.055,115.015 93.296,115.096 93.634,115.079 C 93.907,114.951 94.133,114.934 94.294,115.048 C 94.391,115.111 94.486,115.145 94.583,115.128 C 94.873,115.079 95.05,115.111 95.082,115.24 C 95.146,115.177 95.179,115.128 95.243,115.079 L 95.323,114.999 C 95.468,115.177 95.709,115.257 96.047,115.24 C 96.208,115.128 96.369,115.014 96.514,114.886 C 96.578,114.854 96.611,114.838 96.626,114.838 C 97.012,115.192 97.317,115.11 97.495,114.597 C 97.559,114.597 97.591,114.597 97.607,114.629 C 97.928,114.95 98.251,114.886 98.621,114.435 C 98.685,114.484 98.733,114.516 98.798,114.548 C 98.895,114.564 98.959,114.564 99.007,114.516 C 99.104,114.387 99.233,114.339 99.393,114.387 C 99.683,114.468 99.731,114.307 99.586,113.952 C 99.65,113.889 99.683,113.84 99.747,113.791 C 99.811,113.728 99.844,113.711 99.859,113.711 C 100.213,113.872 100.55,113.84 100.873,113.631 C 100.873,113.519 100.889,113.422 100.921,113.31 C 100.938,113.261 100.97,113.229 100.985,113.229 C 101.211,113.342 101.339,113.342 101.42,113.181 C 101.581,112.891 101.822,112.827 102.159,112.988 C 102.159,112.924 102.176,112.876 102.176,112.827 C 102.305,112.538 102.562,112.361 102.964,112.345 L 102.964,112.265 C 103.237,112.265 103.35,112.136 103.285,111.863 C 103.349,111.863 103.382,111.863 103.446,111.847 C 103.752,111.83 104.025,111.783 104.251,111.702 C 104.348,111.461 104.508,111.299 104.717,111.171 C 104.781,111.139 104.83,111.09 104.878,111.042 C 105.328,110.415 105.812,109.836 106.342,109.289 C 106.342,109.225 106.359,109.177 106.374,109.128 C 106.406,109.079 106.423,109.015 106.406,108.967 C 106.358,108.517 106.486,108.308 106.824,108.323 C 106.824,108.26 106.808,108.227 106.792,108.227 C 106.647,108.146 106.647,108.018 106.824,107.84 C 107.001,107.68 107.162,107.519 107.323,107.39 C 107.516,107.229 107.661,107.069 107.79,106.875 C 107.741,106.44 107.806,106.135 107.967,105.91 L 108.031,105.829 C 107.885,105.668 107.967,105.523 108.272,105.427 C 108.272,105.364 108.255,105.331 108.223,105.298 C 107.837,104.945 107.885,104.655 108.432,104.462 C 108.432,104.398 108.449,104.35 108.449,104.302 C 108.61,103.931 108.594,103.658 108.432,103.497 C 108.432,103.433 108.432,103.385 108.449,103.336 C 108.497,103.014 108.529,102.692 108.594,102.371 L 108.594,102.29 C 108.803,102.58 108.9,102.548 108.916,102.21 C 109.076,101.889 109.061,101.648 108.852,101.486 C 108.579,101.26 108.546,101.068 108.755,100.923 C 109.012,100.553 109.012,100.167 108.819,99.749 C 108.77,99.668 108.738,99.604 108.69,99.572 C 108.336,99.346 108.369,99.185 108.754,99.154 C 108.754,99.089 108.737,99.041 108.737,98.993 C 108.56,98.317 108.416,97.626 108.271,96.901 C 108.207,96.901 108.174,96.885 108.174,96.853 C 108.094,96.692 107.965,96.612 107.788,96.58 C 107.788,96.516 107.788,96.468 107.788,96.419 C 107.788,96.193 107.788,95.984 107.788,95.776 C 107.724,95.776 107.691,95.759 107.691,95.727 C 107.289,95.051 106.935,94.312 106.662,93.523 C 106.598,93.523 106.565,93.492 106.533,93.475 C 106.26,93.282 105.97,93.073 105.696,92.88 C 105.696,92.816 105.68,92.767 105.68,92.718 C 105.583,92.446 105.471,92.171 105.374,91.914 C 105.31,91.914 105.277,91.882 105.229,91.866 C 105.116,91.786 104.939,91.754 104.73,91.754 C 104.73,91.689 104.713,91.641 104.713,91.592 C 104.617,91.384 104.504,91.158 104.407,90.949 C 104.344,90.949 104.311,90.933 104.247,90.917 C 103.78,90.82 103.459,90.563 103.281,90.145 C 103.218,90.145 103.185,90.129 103.136,90.113 C 102.541,89.904 102.059,89.582 101.672,89.18 C 101.512,89.18 101.351,89.18 101.19,89.18 C 101.093,89.18 101.013,89.148 100.949,89.1 C 100.885,89.035 100.852,89.019 100.82,89.003 C 100.434,88.891 100.113,88.762 99.871,88.568 C 99.565,88.327 99.309,88.262 99.1,88.375 C 98.891,88.359 98.746,88.312 98.665,88.183 C 98.556,88.009 98.315,87.945 97.96,87.961 z "
   id="path119"
   style="fill:#b2bcba" />

		</g>

		<g
   id="g121">
			<path
   d="M 98.877,96.534 C 99.054,96.632 99.15,96.775 99.118,96.969 C 99.167,96.985 99.167,97.259 99.167,97.758 C 99.167,98.256 99.086,98.884 98.926,99.671 C 98.765,100.427 98.636,101.151 98.556,101.811 C 98.475,102.487 98.41,103.147 98.363,103.822 C 98.331,104.143 98.283,104.224 98.17,104.112 C 97.076,103.452 96.144,103.613 95.388,104.61 C 94.906,105.591 95.227,106.396 96.385,106.959 C 97.769,107.586 98.895,107.185 99.731,105.785 L 99.86,102.359 L 99.924,102.326 C 100.97,98.642 101.179,96.117 100.503,94.734 C 96.964,93.865 93.812,94.267 91.061,95.908 C 90.964,96.343 90.949,96.616 91.012,96.761 C 91.076,96.89 91.076,97.083 91.044,97.308 C 91.076,97.356 91.093,97.63 91.076,98.128 C 91.093,98.627 90.996,99.238 90.835,100.026 C 90.675,100.797 90.546,101.522 90.481,102.181 C 90.401,102.857 90.32,103.533 90.272,104.192 C 90.255,104.498 90.191,104.594 90.079,104.482 C 88.985,103.822 88.068,103.967 87.312,104.98 C 86.813,105.961 87.135,106.75 88.309,107.329 C 89.693,107.94 90.802,107.555 91.639,106.155 L 91.784,102.728 L 91.816,102.68 C 92.444,100.525 92.765,98.754 92.813,97.388 C 95.129,96.809 96.497,96.471 96.916,96.39 C 97.896,96.31 98.556,96.358 98.877,96.534 z "
   id="path123" />

		</g>

	</g>

	<g
   id="g125">
		<path
   d="M 105.958,106.219 C 105.865,106.2 105.773,106.2 105.699,106.163 C 105.68,106.163 105.662,106.163 105.643,106.163 C 105.624,106.163 105.587,106.163 105.551,106.163 C 105.384,106.108 105.237,106.071 105.07,106.052 C 104.997,106.034 104.923,106.034 104.867,106.034 C 104.645,106.071 104.405,106.108 104.165,106.126 C 104.055,106.182 103.925,106.219 103.777,106.256 C 103.647,106.292 103.5,106.312 103.389,106.385 C 103.019,106.533 102.65,106.681 102.317,106.884 C 102.224,106.94 102.17,106.977 102.095,107.032 C 102.002,107.087 101.929,107.142 101.836,107.179 C 101.689,107.308 101.54,107.419 101.374,107.567 C 101.097,107.807 100.875,108.103 100.635,108.399 L 100.635,108.399 C 100.616,108.417 100.598,108.417 100.561,108.417 C 100.561,108.417 100.561,108.417 100.561,108.437 C 100.543,108.437 100.525,108.455 100.506,108.474 C 100.506,108.474 100.506,108.474 100.487,108.474 C 100.468,108.474 100.45,108.474 100.431,108.474 C 100.412,108.511 100.357,108.529 100.338,108.566 C 100.283,108.64 100.246,108.696 100.191,108.751 C 100.117,108.844 100.061,108.973 100.006,109.084 C 99.932,109.269 99.876,109.472 99.784,109.656 C 99.784,109.676 99.784,109.713 99.784,109.73 C 99.784,109.767 99.784,109.786 99.765,109.804 C 99.746,109.989 99.709,110.137 99.654,110.284 L 99.654,110.284 C 99.654,110.376 99.635,110.469 99.599,110.561 C 99.599,110.579 99.599,110.579 99.599,110.579 C 99.599,110.727 99.58,110.893 99.543,111.042 C 99.543,111.338 99.543,111.651 99.543,111.947 L 99.543,111.947 C 99.543,112.021 99.58,112.076 99.599,112.169 L 99.599,112.169 C 99.617,112.299 99.635,112.409 99.635,112.501 L 99.635,112.501 C 99.691,112.612 99.728,112.724 99.765,112.815 C 99.838,113.074 99.912,113.278 100.024,113.5 C 100.024,113.5 100.024,113.518 100.043,113.536 L 100.024,113.536 C 100.06,113.573 100.079,113.629 100.097,113.683 C 100.097,113.683 100.097,113.683 100.116,113.683 C 100.116,113.72 100.135,113.739 100.153,113.794 C 100.153,113.813 100.153,113.813 100.153,113.813 C 100.153,113.832 100.172,113.832 100.172,113.832 L 100.172,113.832 C 100.191,113.869 100.191,113.905 100.191,113.925 C 100.191,113.925 100.191,113.925 100.191,113.943 C 100.301,114.11 100.413,114.276 100.543,114.405 C 100.635,114.479 100.709,114.572 100.801,114.683 C 101.005,114.886 101.19,115.088 101.393,115.274 C 101.486,115.347 101.578,115.421 101.67,115.496 C 101.743,115.552 101.799,115.589 101.855,115.643 C 101.836,115.68 101.836,115.717 101.874,115.754 L 101.874,115.754 C 102.077,115.939 102.317,116.067 102.632,116.179 C 102.742,116.216 102.835,116.235 102.928,116.253 C 103.204,116.383 103.5,116.475 103.833,116.549 C 103.943,116.585 104.055,116.605 104.165,116.622 C 104.276,116.641 104.405,116.678 104.517,116.696 C 104.664,116.696 104.794,116.696 104.942,116.696 C 104.942,116.696 104.942,116.696 104.961,116.696 L 104.961,116.696 C 105.22,116.677 105.441,116.64 105.626,116.622 L 105.626,116.604 C 105.719,116.584 105.811,116.566 105.903,116.529 L 105.903,116.529 C 106.236,116.474 106.531,116.383 106.808,116.271 L 106.808,116.252 C 106.901,116.196 106.993,116.141 107.104,116.123 C 107.251,116.03 107.363,115.956 107.51,115.883 C 107.658,115.827 107.769,115.753 107.862,115.642 C 107.936,115.587 108.009,115.513 108.084,115.457 C 108.158,115.365 108.231,115.291 108.324,115.217 C 108.471,115.087 108.62,114.958 108.749,114.811 C 108.768,114.755 108.823,114.682 108.86,114.645 C 108.933,114.534 109.007,114.441 109.082,114.368 C 109.101,114.294 109.137,114.221 109.174,114.165 C 109.285,114.017 109.377,113.851 109.451,113.647 C 109.488,113.628 109.507,113.573 109.525,113.536 C 109.562,113.463 109.581,113.37 109.617,113.296 C 109.673,113.167 109.728,113.056 109.765,112.908 L 109.765,112.908 C 109.765,112.908 109.765,112.889 109.765,112.871 L 109.784,112.871 C 109.784,112.815 109.803,112.797 109.821,112.779 C 109.821,112.76 109.821,112.76 109.821,112.76 C 109.821,112.76 109.821,112.723 109.821,112.703 C 109.876,112.537 109.913,112.352 109.95,112.168 C 109.95,111.983 109.987,111.836 110.043,111.669 C 110.043,111.613 110.043,111.577 110.024,111.54 C 109.987,111.41 109.987,111.281 110.005,111.151 C 110.042,110.966 110.024,110.782 109.986,110.634 L 109.986,110.615 C 109.967,110.559 109.949,110.522 109.93,110.467 C 109.911,110.467 109.911,110.467 109.93,110.467 C 109.93,110.374 109.93,110.282 109.893,110.172 L 109.893,110.172 C 109.874,109.986 109.801,109.802 109.746,109.616 L 109.746,109.616 C 109.746,109.487 109.69,109.358 109.635,109.247 L 109.635,109.247 C 109.616,109.173 109.599,109.118 109.562,109.062 L 109.562,109.062 C 109.469,108.822 109.322,108.6 109.173,108.397 C 109.173,108.397 109.173,108.397 109.173,108.378 C 109.173,108.378 109.173,108.341 109.173,108.285 L 109.154,108.285 C 109.135,108.211 109.099,108.138 109.062,108.063 C 109.043,108.063 109.043,108.063 109.043,108.063 C 109.024,108.045 108.987,108.008 108.969,107.952 L 108.969,107.952 C 108.95,107.934 108.913,107.916 108.877,107.916 C 108.654,107.713 108.451,107.51 108.211,107.325 C 108.101,107.231 108.008,107.139 107.898,107.047 C 107.658,106.9 107.436,106.734 107.177,106.585 C 107.103,106.585 107.029,106.567 106.991,106.53 C 106.936,106.493 106.881,106.474 106.825,106.456 C 106.678,106.419 106.548,106.382 106.437,106.346 L 106.437,106.346 C 106.381,106.309 106.363,106.289 106.326,106.272 C 106.307,106.272 106.307,106.272 106.289,106.272 C 106.271,106.29 106.253,106.272 106.253,106.253 C 106.161,106.237 106.049,106.219 105.958,106.219 z M 106.345,107.513 C 106.715,107.66 107.047,107.864 107.343,108.085 C 107.38,108.122 107.417,108.141 107.453,108.177 C 107.73,108.4 107.971,108.621 108.211,108.88 C 108.248,108.954 108.304,109.027 108.359,109.083 C 108.359,109.083 108.359,109.083 108.378,109.083 C 108.359,109.12 108.378,109.12 108.378,109.157 L 108.378,109.157 C 108.451,109.267 108.525,109.396 108.581,109.545 L 108.581,109.545 C 108.581,109.564 108.6,109.582 108.581,109.601 C 108.581,109.601 108.581,109.601 108.581,109.619 C 108.6,109.619 108.618,109.619 108.618,109.656 L 108.637,109.656 C 108.637,109.713 108.637,109.767 108.637,109.786 C 108.637,109.786 108.637,109.786 108.637,109.805 C 108.673,109.898 108.729,109.99 108.766,110.118 L 108.766,110.138 C 108.785,110.156 108.803,110.193 108.822,110.23 L 108.822,110.23 C 108.822,110.415 108.914,110.563 109.062,110.637 L 109.062,110.637 C 109.099,110.784 109.118,110.969 109.099,111.154 C 109.099,111.173 109.099,111.191 109.099,111.21 C 109.099,111.302 109.118,111.432 109.135,111.523 C 109.135,111.653 109.154,111.764 109.154,111.856 C 109.135,112.023 109.118,112.189 109.081,112.336 C 109.062,112.355 109.062,112.373 109.062,112.392 C 109.025,112.559 108.969,112.705 108.914,112.872 C 108.841,113.001 108.785,113.131 108.729,113.297 C 108.637,113.445 108.544,113.611 108.452,113.76 L 108.452,113.76 C 108.397,113.833 108.323,113.906 108.286,113.981 C 108.212,114.055 108.12,114.129 108.027,114.185 C 108.008,114.203 107.971,114.222 107.953,114.24 C 107.824,114.388 107.694,114.536 107.547,114.665 C 107.454,114.758 107.307,114.851 107.178,114.943 C 107.048,115.016 106.919,115.109 106.771,115.165 C 106.605,115.238 106.439,115.312 106.291,115.386 L 106.291,115.386 C 106.273,115.406 106.255,115.406 106.255,115.406 L 106.255,115.424 C 106.051,115.498 105.829,115.535 105.608,115.572 C 105.128,115.609 104.703,115.591 104.296,115.498 C 104.222,115.498 104.111,115.479 104.019,115.498 C 103.963,115.461 103.908,115.443 103.853,115.461 L 103.853,115.461 C 103.834,115.424 103.779,115.424 103.742,115.424 L 103.742,115.424 C 103.409,115.314 103.114,115.202 102.818,115.091 C 102.799,115.091 102.799,115.091 102.781,115.091 C 102.744,115.055 102.671,115.018 102.615,114.962 L 102.615,114.962 C 102.375,114.944 102.19,114.87 102.042,114.74 C 102.042,114.722 102.023,114.722 102.023,114.703 C 101.82,114.537 101.617,114.315 101.432,114.112 C 101.395,114.056 101.358,114.019 101.339,113.965 C 101.117,113.651 100.951,113.299 100.821,112.911 L 100.821,112.911 C 100.802,112.911 100.784,112.892 100.784,112.874 L 100.784,112.874 C 100.748,112.764 100.729,112.671 100.711,112.578 C 100.711,112.449 100.692,112.338 100.692,112.265 C 100.636,112.209 100.618,112.135 100.581,112.079 L 100.581,112.079 C 100.545,111.894 100.526,111.747 100.526,111.561 C 100.545,111.469 100.526,111.414 100.526,111.377 C 100.545,111.247 100.562,111.154 100.562,111.062 L 100.562,111.062 C 100.599,110.952 100.618,110.877 100.618,110.786 C 100.618,110.786 100.618,110.767 100.637,110.73 C 100.637,110.582 100.656,110.416 100.711,110.287 C 100.748,110.157 100.784,110.01 100.821,109.881 C 100.84,109.881 100.858,109.861 100.858,109.861 L 100.877,109.861 C 100.877,109.732 100.914,109.64 100.951,109.585 C 100.97,109.585 100.97,109.585 100.97,109.585 C 100.933,109.641 100.933,109.678 100.933,109.695 C 100.933,109.715 100.933,109.715 100.933,109.715 C 100.952,109.733 100.989,109.77 101.025,109.788 C 101.025,109.788 101.025,109.788 101.044,109.788 C 101.155,109.715 101.248,109.585 101.321,109.456 C 101.358,109.399 101.377,109.345 101.432,109.289 C 101.469,109.216 101.524,109.16 101.561,109.067 C 101.764,108.715 102.004,108.439 102.3,108.199 L 102.3,108.199 C 102.448,108.069 102.596,107.958 102.762,107.866 C 102.91,107.756 103.058,107.681 103.224,107.607 C 103.372,107.552 103.52,107.478 103.686,107.404 C 103.834,107.385 103.982,107.348 104.148,107.311 C 104.241,107.293 104.334,107.274 104.407,107.274 C 104.426,107.274 104.463,107.274 104.5,107.274 C 104.703,107.237 104.906,107.201 105.146,107.145 C 105.587,107.234 105.976,107.364 106.345,107.513 z "
   id="path127" />

		<path
   d="M 107.343,108.085 C 107.047,107.863 106.715,107.66 106.345,107.513 C 105.976,107.365 105.587,107.235 105.144,107.143 C 104.904,107.199 104.701,107.235 104.498,107.272 C 104.461,107.272 104.424,107.272 104.405,107.272 C 104.332,107.272 104.239,107.292 104.146,107.309 C 103.98,107.346 103.833,107.383 103.684,107.402 C 103.518,107.476 103.371,107.55 103.222,107.605 C 103.056,107.679 102.909,107.753 102.76,107.864 C 102.594,107.956 102.447,108.067 102.298,108.197 L 102.298,108.197 C 102.002,108.437 101.762,108.714 101.559,109.065 C 101.522,109.158 101.467,109.213 101.43,109.287 C 101.374,109.343 101.356,109.397 101.319,109.454 C 101.246,109.583 101.153,109.713 101.042,109.786 C 101.023,109.786 101.023,109.786 101.023,109.786 C 100.987,109.767 100.95,109.73 100.931,109.713 C 100.931,109.713 100.931,109.713 100.931,109.693 C 100.931,109.675 100.931,109.638 100.968,109.583 C 100.968,109.583 100.968,109.583 100.949,109.583 C 100.912,109.639 100.875,109.73 100.875,109.859 L 100.856,109.859 C 100.856,109.859 100.837,109.879 100.819,109.879 C 100.782,110.008 100.746,110.155 100.709,110.285 C 100.653,110.414 100.635,110.58 100.635,110.728 C 100.616,110.765 100.616,110.784 100.616,110.784 C 100.616,110.876 100.597,110.95 100.56,111.06 L 100.56,111.06 C 100.56,111.153 100.542,111.246 100.524,111.375 C 100.524,111.411 100.543,111.467 100.524,111.559 C 100.524,111.745 100.543,111.892 100.579,112.077 L 100.579,112.077 C 100.616,112.133 100.635,112.207 100.69,112.263 C 100.69,112.336 100.709,112.448 100.709,112.576 C 100.728,112.669 100.746,112.762 100.782,112.872 L 100.782,112.872 C 100.782,112.891 100.801,112.909 100.819,112.909 L 100.819,112.909 C 100.949,113.297 101.115,113.648 101.337,113.963 C 101.356,114.018 101.393,114.055 101.43,114.11 C 101.615,114.313 101.818,114.535 102.021,114.701 C 102.021,114.721 102.04,114.721 102.04,114.738 C 102.188,114.868 102.373,114.942 102.613,114.96 L 102.613,114.96 C 102.669,115.016 102.742,115.053 102.779,115.089 C 102.798,115.089 102.798,115.089 102.816,115.089 C 103.112,115.2 103.407,115.312 103.74,115.422 L 103.74,115.422 C 103.777,115.422 103.833,115.422 103.851,115.459 L 103.851,115.459 C 103.906,115.441 103.961,115.459 104.017,115.496 C 104.11,115.477 104.22,115.496 104.294,115.496 C 104.7,115.589 105.125,115.607 105.606,115.57 C 105.828,115.533 106.049,115.496 106.253,115.422 L 106.253,115.404 C 106.253,115.404 106.272,115.404 106.289,115.384 L 106.289,115.384 C 106.437,115.311 106.603,115.237 106.769,115.163 C 106.917,115.107 107.046,115.015 107.176,114.941 C 107.305,114.848 107.452,114.755 107.545,114.663 C 107.692,114.534 107.822,114.387 107.951,114.238 C 107.97,114.22 108.007,114.201 108.025,114.183 C 108.118,114.127 108.21,114.053 108.284,113.979 C 108.321,113.905 108.395,113.832 108.45,113.758 L 108.45,113.758 C 108.543,113.61 108.636,113.444 108.727,113.295 C 108.783,113.129 108.838,112.999 108.912,112.87 C 108.968,112.703 109.023,112.557 109.06,112.39 C 109.06,112.371 109.06,112.353 109.079,112.334 C 109.116,112.187 109.134,112.021 109.152,111.854 C 109.152,111.762 109.133,111.651 109.133,111.521 C 109.115,111.429 109.097,111.299 109.097,111.208 C 109.097,111.189 109.097,111.171 109.097,111.152 C 109.116,110.967 109.097,110.783 109.06,110.635 L 109.06,110.635 C 108.912,110.561 108.82,110.412 108.82,110.228 L 108.82,110.228 C 108.801,110.191 108.783,110.154 108.764,110.136 L 108.764,110.116 C 108.727,109.987 108.671,109.895 108.635,109.803 C 108.635,109.784 108.635,109.784 108.635,109.784 C 108.635,109.765 108.635,109.711 108.635,109.654 L 108.616,109.654 C 108.616,109.617 108.597,109.617 108.579,109.617 C 108.579,109.599 108.579,109.599 108.579,109.599 C 108.598,109.58 108.579,109.562 108.579,109.543 L 108.579,109.543 C 108.523,109.395 108.449,109.266 108.376,109.155 L 108.376,109.155 C 108.376,109.118 108.357,109.118 108.376,109.081 C 108.357,109.081 108.357,109.081 108.357,109.081 C 108.301,109.025 108.246,108.952 108.209,108.878 C 107.969,108.619 107.729,108.398 107.451,108.175 C 107.417,108.141 107.38,108.122 107.343,108.085 z M 105.31,109.878 L 105.31,109.878 C 105.329,109.858 105.366,109.841 105.403,109.822 L 105.422,109.822 C 105.441,109.822 105.496,109.822 105.533,109.822 L 105.533,109.822 C 105.736,109.712 105.976,109.582 106.198,109.489 C 106.364,109.433 106.549,109.433 106.716,109.489 C 106.882,109.563 107.048,109.618 107.215,109.675 C 107.4,109.785 107.584,109.915 107.732,110.08 C 107.788,110.117 107.843,110.174 107.88,110.228 C 107.899,110.265 107.899,110.302 107.899,110.338 C 107.899,110.358 107.899,110.358 107.899,110.358 C 107.843,110.413 107.806,110.468 107.713,110.505 L 107.713,110.505 C 107.713,110.524 107.694,110.542 107.677,110.542 C 107.677,110.542 107.677,110.542 107.677,110.561 C 107.621,110.579 107.547,110.598 107.51,110.635 C 107.51,110.635 107.51,110.635 107.51,110.654 C 107.4,110.69 107.288,110.727 107.159,110.746 C 107.159,110.746 107.159,110.746 107.14,110.746 C 107.01,110.654 106.9,110.561 106.751,110.469 C 106.715,110.45 106.641,110.413 106.604,110.413 C 106.567,110.413 106.548,110.376 106.511,110.376 L 106.511,110.376 C 106.475,110.376 106.438,110.376 106.419,110.376 L 106.4,110.376 C 106.271,110.45 106.16,110.506 106.03,110.562 C 105.994,110.58 105.957,110.618 105.92,110.655 C 105.883,110.858 105.883,111.06 105.901,111.301 C 105.92,111.394 105.938,111.505 105.975,111.615 C 105.975,111.634 105.994,111.652 105.994,111.671 C 106.067,111.801 106.197,111.893 106.345,111.93 C 106.493,111.986 106.641,112.023 106.807,112.077 C 106.826,112.077 106.844,112.059 106.881,112.059 C 106.881,112.04 106.881,112.04 106.9,112.04 C 106.973,111.947 107.066,111.854 107.177,111.763 L 107.177,111.763 C 107.177,111.707 107.196,111.67 107.196,111.633 L 107.196,111.633 C 107.343,111.633 107.454,111.67 107.528,111.744 C 107.528,111.763 107.547,111.763 107.547,111.763 C 107.677,111.837 107.806,111.929 107.917,112.022 L 107.917,112.041 C 107.843,112.133 107.806,112.207 107.769,112.3 L 107.769,112.3 C 107.695,112.429 107.622,112.539 107.51,112.632 C 107.473,112.669 107.437,112.688 107.381,112.705 C 107.288,112.743 107.215,112.78 107.141,112.835 C 106.919,112.872 106.698,112.909 106.476,112.872 C 106.402,112.872 106.29,112.872 106.18,112.872 C 105.977,112.853 105.791,112.798 105.625,112.687 C 105.459,112.576 105.329,112.447 105.2,112.317 C 105.163,112.28 105.144,112.243 105.126,112.207 C 105.034,112.077 104.96,111.967 104.886,111.838 C 104.849,111.745 104.831,111.634 104.813,111.505 C 104.813,111.486 104.813,111.486 104.813,111.468 C 104.813,111.431 104.832,111.412 104.849,111.394 C 104.849,111.358 104.831,111.321 104.831,111.301 L 104.812,111.301 C 104.831,111.154 104.812,111.025 104.793,110.913 L 104.793,110.913 C 104.812,110.858 104.83,110.784 104.848,110.71 C 104.848,110.618 104.885,110.563 104.959,110.544 C 105.052,110.266 105.144,110.044 105.31,109.878 z M 104.959,112.132 C 104.978,112.132 104.978,112.132 104.978,112.132 C 104.941,112.206 104.904,112.299 104.867,112.354 C 104.867,112.354 104.867,112.354 104.867,112.373 C 104.848,112.392 104.831,112.392 104.812,112.392 L 104.812,112.392 C 104.775,112.448 104.775,112.485 104.775,112.522 C 104.775,112.54 104.775,112.54 104.775,112.54 C 104.756,112.577 104.756,112.596 104.738,112.633 C 104.719,112.633 104.719,112.633 104.719,112.633 C 104.589,112.763 104.405,112.855 104.239,112.947 C 104.165,112.984 104.11,113.002 104.036,113.04 C 103.962,113.076 103.851,113.095 103.759,113.095 C 103.574,113.076 103.407,113.076 103.297,113.058 C 103.223,113.058 103.15,113.058 103.094,113.021 C 102.928,112.985 102.798,112.911 102.669,112.855 C 102.558,112.782 102.465,112.726 102.373,112.652 C 102.354,112.633 102.317,112.596 102.299,112.578 C 102.225,112.504 102.152,112.412 102.077,112.338 C 102.003,112.265 101.984,112.172 101.966,112.062 C 101.948,111.951 101.93,111.84 101.893,111.766 C 101.893,111.562 101.874,111.378 101.856,111.248 C 101.856,111.211 101.856,111.192 101.856,111.155 C 101.875,111.062 101.893,110.97 101.893,110.878 L 101.893,110.878 C 101.912,110.823 101.93,110.749 101.93,110.693 L 101.93,110.674 C 102.059,110.471 102.189,110.305 102.355,110.139 C 102.355,110.139 102.355,110.139 102.374,110.139 C 102.466,109.991 102.614,109.861 102.78,109.787 C 102.91,109.731 103.02,109.677 103.132,109.62 C 103.224,109.584 103.298,109.584 103.391,109.584 C 103.52,109.64 103.667,109.677 103.853,109.714 C 103.963,109.714 104.056,109.732 104.148,109.769 C 104.388,109.917 104.591,110.082 104.758,110.287 L 104.758,110.287 C 104.702,110.453 104.61,110.546 104.481,110.639 L 104.481,110.639 C 104.444,110.639 104.407,110.658 104.351,110.658 L 104.351,110.658 C 104.333,110.676 104.296,110.694 104.278,110.731 L 104.278,110.731 C 104.222,110.75 104.148,110.768 104.093,110.75 C 104.074,110.75 104.074,110.75 104.074,110.769 C 103.981,110.75 103.871,110.732 103.778,110.695 C 103.648,110.603 103.482,110.584 103.316,110.659 C 103.297,110.659 103.279,110.659 103.26,110.677 C 103.094,110.77 102.946,110.899 102.872,111.065 C 102.816,111.213 102.798,111.343 102.835,111.491 C 102.835,111.584 102.854,111.657 102.909,111.768 C 102.945,111.842 103.001,111.934 103.075,111.99 C 103.185,112.064 103.278,112.119 103.407,112.156 C 103.518,112.193 103.647,112.212 103.777,112.175 C 103.777,112.175 103.796,112.175 103.814,112.194 C 103.833,112.175 103.851,112.175 103.87,112.175 L 103.87,112.175 C 103.98,112.082 104.055,111.972 104.11,111.843 C 104.128,111.806 104.128,111.786 104.146,111.769 C 104.313,111.769 104.442,111.806 104.589,111.898 C 104.626,111.935 104.7,111.954 104.793,111.972 C 104.866,111.991 104.903,112.028 104.959,112.082 C 104.959,112.095 104.959,112.113 104.959,112.132 z "
   id="path129"
   style="fill:#fdfdfd" />

		<path
   d="M 105.31,109.878 L 105.31,109.878 C 105.144,110.044 105.052,110.266 104.959,110.543 C 104.885,110.562 104.848,110.617 104.848,110.709 C 104.83,110.783 104.812,110.857 104.793,110.912 L 104.793,110.912 C 104.812,111.023 104.83,111.152 104.812,111.3 L 104.831,111.3 C 104.831,111.32 104.849,111.357 104.849,111.393 C 104.831,111.412 104.813,111.43 104.813,111.467 C 104.813,111.486 104.813,111.486 104.813,111.504 C 104.832,111.633 104.849,111.744 104.886,111.837 C 104.96,111.966 105.034,112.076 105.126,112.206 C 105.145,112.242 105.163,112.279 105.2,112.316 C 105.329,112.446 105.459,112.575 105.625,112.686 C 105.791,112.796 105.977,112.852 106.18,112.871 C 106.29,112.871 106.402,112.871 106.476,112.871 C 106.698,112.908 106.919,112.871 107.141,112.834 C 107.215,112.779 107.288,112.742 107.381,112.704 C 107.437,112.686 107.473,112.668 107.51,112.631 C 107.621,112.538 107.695,112.428 107.769,112.299 L 107.769,112.299 C 107.806,112.206 107.843,112.132 107.917,112.04 L 107.917,112.021 C 107.806,111.928 107.677,111.836 107.547,111.762 C 107.547,111.762 107.528,111.762 107.528,111.743 C 107.454,111.669 107.343,111.632 107.196,111.632 L 107.196,111.632 C 107.196,111.669 107.177,111.706 107.177,111.762 L 107.177,111.762 C 107.066,111.854 106.973,111.947 106.9,112.039 C 106.881,112.039 106.881,112.039 106.881,112.058 C 106.844,112.058 106.825,112.076 106.807,112.076 C 106.641,112.021 106.494,111.984 106.345,111.929 C 106.198,111.892 106.068,111.8 105.994,111.67 C 105.994,111.651 105.975,111.633 105.975,111.614 C 105.938,111.504 105.919,111.392 105.901,111.3 C 105.882,111.06 105.882,110.858 105.92,110.654 C 105.957,110.617 105.994,110.579 106.03,110.561 C 106.16,110.505 106.271,110.45 106.4,110.375 L 106.419,110.375 C 106.438,110.375 106.475,110.375 106.511,110.375 L 106.511,110.375 C 106.548,110.375 106.567,110.412 106.604,110.412 C 106.641,110.412 106.715,110.449 106.751,110.468 C 106.899,110.561 107.01,110.654 107.14,110.745 C 107.159,110.745 107.159,110.745 107.159,110.745 C 107.288,110.726 107.399,110.689 107.51,110.653 C 107.51,110.634 107.51,110.634 107.51,110.634 C 107.547,110.597 107.621,110.577 107.677,110.56 C 107.677,110.541 107.677,110.541 107.677,110.541 C 107.695,110.541 107.713,110.522 107.713,110.504 L 107.713,110.504 C 107.806,110.467 107.843,110.411 107.899,110.357 C 107.899,110.357 107.899,110.357 107.899,110.337 C 107.899,110.301 107.899,110.264 107.88,110.227 C 107.843,110.172 107.787,110.116 107.732,110.079 C 107.585,109.914 107.4,109.784 107.215,109.674 C 107.048,109.617 106.882,109.563 106.716,109.488 C 106.549,109.432 106.364,109.432 106.198,109.488 C 105.976,109.581 105.736,109.711 105.533,109.821 L 105.533,109.821 C 105.496,109.821 105.44,109.821 105.422,109.821 L 105.403,109.821 C 105.366,109.841 105.329,109.858 105.31,109.878 z "
   id="path131" />

		<path
   d="M 104.978,112.132 C 104.978,112.132 104.978,112.132 104.959,112.132 C 104.959,112.113 104.959,112.095 104.959,112.076 C 104.903,112.021 104.866,111.984 104.793,111.966 C 104.7,111.947 104.626,111.929 104.589,111.892 C 104.442,111.8 104.313,111.763 104.146,111.763 C 104.127,111.781 104.127,111.8 104.11,111.837 C 104.054,111.966 103.98,112.076 103.87,112.169 L 103.87,112.169 C 103.851,112.169 103.833,112.169 103.814,112.188 C 103.795,112.169 103.777,112.169 103.777,112.169 C 103.647,112.206 103.518,112.188 103.407,112.15 C 103.278,112.113 103.185,112.058 103.075,111.984 C 103.001,111.928 102.945,111.837 102.909,111.762 C 102.853,111.651 102.835,111.577 102.835,111.485 C 102.798,111.338 102.816,111.208 102.872,111.059 C 102.945,110.893 103.094,110.764 103.26,110.671 C 103.279,110.653 103.297,110.653 103.316,110.653 C 103.482,110.578 103.648,110.597 103.778,110.689 C 103.871,110.726 103.981,110.745 104.074,110.763 C 104.074,110.744 104.074,110.744 104.093,110.744 C 104.148,110.763 104.222,110.744 104.278,110.725 L 104.278,110.725 C 104.297,110.688 104.334,110.669 104.351,110.652 L 104.351,110.652 C 104.407,110.652 104.444,110.633 104.481,110.633 L 104.481,110.633 C 104.61,110.54 104.703,110.447 104.758,110.281 L 104.758,110.281 C 104.591,110.077 104.388,109.912 104.148,109.763 C 104.056,109.726 103.963,109.708 103.853,109.708 C 103.667,109.671 103.52,109.634 103.391,109.578 C 103.298,109.578 103.224,109.578 103.132,109.614 C 103.021,109.671 102.91,109.725 102.78,109.781 C 102.614,109.854 102.466,109.984 102.374,110.133 C 102.355,110.133 102.355,110.133 102.355,110.133 C 102.189,110.299 102.059,110.465 101.93,110.668 L 101.93,110.687 C 101.93,110.743 101.911,110.817 101.893,110.872 L 101.893,110.872 C 101.893,110.965 101.874,111.057 101.856,111.149 C 101.856,111.186 101.856,111.205 101.856,111.242 C 101.875,111.372 101.893,111.555 101.893,111.76 C 101.93,111.834 101.949,111.945 101.966,112.056 C 101.985,112.166 102.003,112.259 102.077,112.332 C 102.151,112.406 102.224,112.498 102.299,112.572 C 102.318,112.591 102.355,112.628 102.373,112.646 C 102.465,112.72 102.558,112.776 102.669,112.849 C 102.798,112.905 102.928,112.979 103.094,113.015 C 103.15,113.052 103.223,113.052 103.297,113.052 C 103.407,113.071 103.574,113.071 103.759,113.089 C 103.852,113.089 103.962,113.07 104.036,113.034 C 104.11,112.996 104.165,112.978 104.239,112.941 C 104.405,112.848 104.59,112.756 104.719,112.627 C 104.719,112.627 104.719,112.627 104.738,112.627 C 104.757,112.59 104.757,112.571 104.775,112.534 C 104.775,112.534 104.775,112.534 104.775,112.516 C 104.775,112.479 104.775,112.442 104.812,112.386 L 104.812,112.386 C 104.831,112.386 104.848,112.386 104.867,112.367 C 104.867,112.348 104.867,112.348 104.867,112.348 C 104.904,112.299 104.941,112.206 104.978,112.132 z "
   id="path133" />

	</g>

</g>
  </g>
</svg>
