<?xml version="1.0" encoding="UTF-8" standalone="no"?>
<!-- Created with Inkscape (http://www.inkscape.org/) -->
<svg
   xmlns:dc="http://purl.org/dc/elements/1.1/"
   xmlns:cc="http://web.resource.org/cc/"
   xmlns:rdf="http://www.w3.org/1999/02/22-rdf-syntax-ns#"
   xmlns:svg="http://www.w3.org/2000/svg"
   xmlns="http://www.w3.org/2000/svg"
   xmlns:sodipodi="http://sodipodi.sourceforge.net/DTD/sodipodi-0.dtd"
   xmlns:inkscape="http://www.inkscape.org/namespaces/inkscape"
   width="64.001953"
   height="64.000977"
   id="svg2260"
   sodipodi:version="0.32"
   inkscape:version="0.45.1"
   version="1.0"
   sodipodi:docbase="/home/cc/.icons"
   sodipodi:docname="cc-share.svg"
   inkscape:output_extension="org.inkscape.output.svg.inkscape">
  <defs
     id="defs2262" />
  <sodipodi:namedview
     id="base"
     pagecolor="#ffffff"
     bordercolor="#666666"
     borderopacity="1.0"
     gridtolerance="10000"
     guidetolerance="10"
     objecttolerance="10"
     inkscape:pageopacity="0.0"
     inkscape:pageshadow="2"
     inkscape:zoom="1.979899"
     inkscape:cx="119.43141"
     inkscape:cy="57.301304"
     inkscape:document-units="px"
     inkscape:current-layer="layer1"
     showguides="true"
     inkscape:guide-bbox="true"
     inkscape:window-width="872"
     inkscape:window-height="622"
     inkscape:window-x="5"
     inkscape:window-y="24" />
  <metadata
     id="metadata2265">
    <rdf:RDF>
      <cc:Work
         rdf:about="">
        <dc:format>image/svg+xml</dc:format>
        <dc:type
           rdf:resource="http://purl.org/dc/dcmitype/StillImage" />
      </cc:Work>
    </rdf:RDF>
  </metadata>
  <g
     inkscape:label="Layer 1"
     inkscape:groupmode="layer"
     id="layer1"
     transform="translate(443.42955,-200.36169)">
    <path
       sodipodi:type="arc"
       style="fill:#ffffff;fill-opacity:1;stroke:none;stroke-opacity:1"
       id="path3139"
       sodipodi:cx="34.092648"
       sodipodi:cy="29.907352"
       sodipodi:rx="30.052038"
       sodipodi:ry="30.052038"
       d="M 64.144686 29.907352 A 30.052038 30.052038 0 1 1  4.0406094,29.907352 A 30.052038 30.052038 0 1 1  64.144686 29.907352 z"
       transform="translate(-445.68796,202.04633)" />
    <g
       transform="translate(-561.93493,16.054073)"
       id="g52">
      <path
         id="path3477"
         export-ydpi="125.5578"
         export-xdpi="125.5578"
         export-filename="/Users/bse/Documents/Work/cc/2006/cc/identity/rect50.png"
         d="M 150.46436,184.30762 C 141.60108,184.30762 134.09717,187.39942 127.95655,193.58692 C 121.65577,199.98731 118.50538,207.55958 118.50538,216.30762 C 118.50538,225.05469 121.65577,232.57422 127.95655,238.86719 C 134.25733,245.16211 141.76124,248.3086 150.46436,248.3086 C 159.27588,248.3086 166.91358,245.13477 173.37647,238.78907 C 179.46241,232.76173 182.50733,225.26759 182.50733,216.30762 C 182.50733,207.34668 179.40967,199.77246 173.21631,193.58692 C 167.021,187.39941 159.43604,184.30762 150.46436,184.30762 z M 150.54443,190.06543 C 157.80908,190.06543 163.97607,192.62598 169.05029,197.74707 C 174.17724,202.81348 176.73974,208.99902 176.73974,216.30762 C 176.73974,223.66797 174.22997,229.77539 169.21044,234.62891 C 163.92333,239.85547 157.70165,242.46875 150.54442,242.46875 C 143.38817,242.46875 137.22215,239.88086 132.04247,234.70703 C 126.86278,229.53515 124.27294,223.40039 124.27294,216.30762 C 124.27294,209.21387 126.88817,203.02637 132.12255,197.74707 C 137.14209,192.62598 143.28271,190.06543 150.54443,190.06543 z "
         style="fill:#020202" />
      <path
         d="M 163.61279,207.13965 L 156.61181,207.13965 L 156.61181,200.1709 C 156.61181,199.20508 155.82861,198.4209 154.86181,198.4209 L 137.39404,198.4209 C 137.34131,198.41895 137.28857,198.41895 137.23779,198.4209 C 136.33154,198.50293 135.64013,199.2627 135.64404,200.1709 L 135.64404,223.73438 C 135.64404,224.70118 136.42724,225.48438 137.39404,225.48438 L 144.39404,225.48438 L 144.39404,232.45313 C 144.39404,233.41993 145.17724,234.20313 146.14404,234.20313 L 163.61279,234.20313 C 164.57959,234.20313 165.36279,233.41993 165.36279,232.45313 L 165.36279,208.88965 C 165.36279,207.92383 164.57959,207.13965 163.61279,207.13965 z M 139.14404,221.9834 L 139.14404,201.9209 L 153.11279,201.9209 L 153.11279,207.13965 L 146.14404,207.13965 C 146.08154,207.13672 146.01904,207.13672 145.95654,207.13965 C 145.06396,207.23633 144.38818,207.99219 144.39404,208.88965 L 144.39404,221.9834 L 139.14404,221.9834 z M 161.86279,210.63965 L 161.86279,230.70313 L 147.89404,230.70313 L 147.89404,210.63965 L 161.86279,210.63965 z "
         id="path55"
         style="fill:#010101" />
    </g>
  </g>
</svg>
