<?xml version="1.0" encoding="UTF-8" standalone="no"?>
<!-- Created with Inkscape (http://www.inkscape.org/) -->
<svg
   xmlns:dc="http://purl.org/dc/elements/1.1/"
   xmlns:cc="http://web.resource.org/cc/"
   xmlns:rdf="http://www.w3.org/1999/02/22-rdf-syntax-ns#"
   xmlns:svg="http://www.w3.org/2000/svg"
   xmlns="http://www.w3.org/2000/svg"
   xmlns:sodipodi="http://sodipodi.sourceforge.net/DTD/sodipodi-0.dtd"
   xmlns:inkscape="http://www.inkscape.org/namespaces/inkscape"
   width="31.14801"
   height="30.345995"
   id="svg2476"
   sodipodi:version="0.32"
   inkscape:version="0.45.1"
   sodipodi:docbase="/home/scott/work/cc/livecd/icons"
   sodipodi:docname="cc-text.svg"
   inkscape:output_extension="org.inkscape.output.svg.inkscape"
   version="1.0">
  <defs
     id="defs2478" />
  <sodipodi:namedview
     id="base"
     pagecolor="#ffffff"
     bordercolor="#666666"
     borderopacity="1.0"
     gridtolerance="10000"
     guidetolerance="10"
     objecttolerance="10"
     inkscape:pageopacity="0.0"
     inkscape:pageshadow="2"
     inkscape:zoom="4"
     inkscape:cx="64.268428"
     inkscape:cy="32.886764"
     inkscape:document-units="px"
     inkscape:current-layer="layer1"
     inkscape:window-width="746"
     inkscape:window-height="612"
     inkscape:window-x="3"
     inkscape:window-y="435" />
  <metadata
     id="metadata2481">
    <rdf:RDF>
      <cc:Work
         rdf:about="">
        <dc:format>image/svg+xml</dc:format>
        <dc:type
           rdf:resource="http://purl.org/dc/dcmitype/StillImage" />
      </cc:Work>
    </rdf:RDF>
  </metadata>
  <g
     inkscape:label="Layer 1"
     inkscape:groupmode="layer"
     id="layer1"
     transform="translate(-601.56885,-531.47491)">
    <g
       id="g3"
       transform="translate(601.57086,445.12491)">
	<g
   id="g5">
		<path
   d="M 5.147,90.791 C 5.099,90.839 5.05,90.903 5.018,90.951 C 4.729,91.498 4.374,91.948 3.956,92.303 C 3.892,92.367 3.844,92.415 3.795,92.463 C 3.506,92.881 3.152,93.235 2.733,93.509 C 2.733,93.573 2.717,93.622 2.717,93.67 C 2.491,94.361 2.186,94.941 1.768,95.44 C 1.768,95.392 1.751,95.343 1.736,95.294 C 1.704,95.246 1.672,95.214 1.639,95.231 C 1.253,95.392 0.931,95.617 0.642,95.922 C 0.481,96.372 0.401,96.903 0.401,97.53 C 0.401,97.594 0.401,97.659 0.401,97.707 C 0.337,98.238 0.304,98.769 0.256,99.3 C 0.239,99.509 0.239,99.735 0.239,99.944 C 0.271,100.506 0.175,100.941 -0.002,101.231 C 0.159,101.504 0.239,101.875 0.239,102.356 C 0.239,102.421 0.239,102.485 0.256,102.534 C 0.304,102.807 0.352,103.049 0.401,103.305 C 0.546,103.884 0.61,104.529 0.642,105.251 C 0.69,105.251 0.722,105.268 0.722,105.284 C 0.995,106.008 1.253,106.747 1.446,107.504 C 1.495,107.504 1.543,107.52 1.543,107.552 C 1.624,107.713 1.736,107.793 1.929,107.825 C 1.946,108.034 1.962,108.212 2.026,108.355 C 2.123,108.549 2.219,108.725 2.348,108.903 C 3.538,110.849 5.002,112.522 6.755,113.938 C 7.366,114.211 7.945,114.5 8.492,114.806 C 8.685,114.903 8.91,115.015 9.168,115.079 C 10.004,115.352 10.809,115.674 11.581,116.028 C 11.629,116.028 11.693,116.028 11.741,116.028 C 11.95,116.028 12.176,116.028 12.385,116.028 C 12.385,116.091 12.385,116.108 12.402,116.125 C 12.949,116.253 13.431,116.43 13.834,116.671 C 13.882,116.671 13.946,116.671 13.979,116.639 C 14.043,116.623 14.091,116.608 14.124,116.623 C 14.269,116.655 14.43,116.655 14.639,116.623 C 14.688,116.607 14.752,116.607 14.785,116.623 C 15.364,116.72 16.071,116.72 16.891,116.623 C 16.94,116.607 17.004,116.591 17.052,116.591 C 18.371,116.511 19.497,116.285 20.43,115.867 C 20.768,115.787 21.235,115.658 21.846,115.465 C 22.023,115.417 22.215,115.369 22.393,115.304 C 22.731,115.192 22.955,114.95 23.004,114.58 C 23.213,114.532 23.422,114.451 23.599,114.339 C 23.937,114.162 24.323,114.017 24.773,113.938 C 25.175,113.535 25.578,113.133 25.98,112.731 C 26.028,112.683 26.092,112.634 26.141,112.57 C 26.189,112.522 26.253,112.49 26.286,112.458 C 26.447,112.378 26.575,112.281 26.688,112.168 C 27.235,111.525 27.846,110.946 28.473,110.399 C 28.473,110.35 28.49,110.301 28.505,110.253 C 29.181,108.918 29.889,107.583 30.564,106.216 C 30.564,106.167 30.564,106.119 30.564,106.055 C 30.532,105.492 30.628,105.058 30.886,104.768 C 30.934,104.72 30.95,104.688 30.95,104.656 C 30.886,104.496 30.886,104.27 30.933,103.98 C 30.95,103.932 30.982,103.851 30.982,103.803 C 31.094,103.175 31.159,102.758 31.142,102.517 C 31.079,101.663 31.014,100.812 30.965,99.958 C 30.933,99.604 30.917,99.219 30.885,98.816 C 30.836,98.076 30.676,97.432 30.403,96.885 C 30.435,96.258 30.29,95.823 29.936,95.599 C 29.872,95.55 29.824,95.486 29.791,95.438 C 29.727,95.229 29.63,95.036 29.501,94.859 C 29.163,94.312 28.89,93.701 28.633,93.025 C 28.584,93.025 28.536,93.025 28.504,92.993 C 27.699,92.14 26.831,91.352 25.899,90.612 C 25.899,90.564 25.882,90.532 25.867,90.483 C 25.786,90.354 25.754,90.178 25.738,89.969 C 25.416,89.759 25.11,89.533 24.821,89.277 C 24.548,89.02 24.242,88.811 23.921,88.633 C 23.792,88.569 23.663,88.488 23.534,88.424 C 23.293,88.279 23.036,88.134 22.794,87.99 C 22.666,87.925 22.537,87.844 22.408,87.796 C 22.022,87.604 21.652,87.427 21.234,87.234 C 20.767,87.234 20.349,87.154 19.963,87.042 C 19.594,86.896 19.143,86.784 18.677,86.688 C 17.857,86.511 16.94,86.399 15.926,86.35 C 15.878,86.35 15.814,86.35 15.781,86.367 C 15.491,86.43 15.17,86.43 14.8,86.367 C 14.752,86.35 14.688,86.367 14.655,86.383 C 14.349,86.431 13.963,86.48 13.512,86.512 C 13.062,86.56 12.741,86.529 12.547,86.431 L 12.547,86.512 C 12.257,86.496 12.097,86.576 12.065,86.753 C 12.016,86.753 11.952,86.753 11.904,86.753 C 11.631,86.753 11.373,86.753 11.099,86.753 C 10.971,86.962 10.778,87.091 10.456,87.155 C 10.214,87.187 9.957,87.251 9.667,87.347 C 9.217,87.476 8.815,87.686 8.461,87.992 C 8.284,88.136 8.123,88.281 7.962,88.442 C 7.899,88.505 7.866,88.554 7.802,88.602 C 6.965,89.375 6.08,90.114 5.147,90.791 z M 6.306,91.595 C 6.338,91.547 6.386,91.482 6.435,91.434 C 6.836,91.176 7.159,90.855 7.4,90.453 C 7.947,90.518 8.3,90.373 8.494,90.052 C 8.51,90.004 8.542,89.955 8.606,89.891 C 8.67,89.843 8.703,89.778 8.752,89.682 C 8.816,89.505 8.929,89.344 9.089,89.232 C 9.153,89.183 9.186,89.135 9.218,89.023 C 9.25,88.974 9.267,88.91 9.331,88.846 C 9.813,88.685 10.296,88.507 10.746,88.315 C 10.778,88.298 10.778,88.266 10.778,88.203 C 11.309,88.138 11.695,88.122 11.904,88.122 C 11.952,88.122 12.016,88.122 12.065,88.122 C 12.741,88.058 13.351,87.961 13.867,87.816 C 14.044,87.768 14.205,87.752 14.349,87.799 C 14.541,87.848 14.751,87.912 14.944,87.96 C 15.008,87.96 15.073,87.993 15.121,88.04 C 15.17,88.105 15.234,88.153 15.282,88.202 C 15.443,87.944 15.764,87.783 16.231,87.719 C 16.247,87.719 16.279,87.688 16.311,87.607 C 16.328,87.575 16.36,87.559 16.408,87.559 C 16.681,87.736 17.052,87.799 17.534,87.736 C 17.583,87.719 17.647,87.719 17.695,87.719 C 17.856,88.04 18.225,88.186 18.821,88.137 C 18.869,88.121 18.918,88.169 18.95,88.218 C 18.982,88.266 18.982,88.315 18.982,88.363 C 19.432,88.203 19.979,88.203 20.606,88.363 C 20.638,88.363 20.703,88.363 20.752,88.363 C 21.25,88.685 21.781,88.958 22.344,89.216 C 22.811,89.442 23.245,89.698 23.631,89.988 C 23.695,90.036 23.743,90.1 23.776,90.148 C 23.793,90.197 23.808,90.245 23.808,90.294 C 24.339,90.357 24.709,90.583 24.902,90.953 C 24.919,91.002 24.934,91.05 24.934,91.099 C 25.143,91.115 25.304,91.147 25.449,91.227 C 25.481,91.259 25.53,91.259 25.578,91.259 C 25.996,91.919 26.447,92.546 26.93,93.109 C 27.219,93.431 27.477,93.769 27.734,94.123 C 27.96,94.412 28.153,94.75 28.313,95.12 C 28.345,95.845 28.459,96.455 28.7,96.937 C 28.764,97.066 28.828,97.211 28.892,97.34 C 28.924,97.42 29.005,97.484 29.118,97.532 C 29.101,97.982 29.134,98.352 29.198,98.658 L 29.118,98.658 C 29.52,99.286 29.713,100.137 29.697,101.232 C 29.68,101.344 29.68,101.457 29.68,101.553 C 29.68,101.617 29.664,101.682 29.648,101.73 C 29.503,102.1 29.471,102.357 29.488,102.535 C 29.568,102.905 29.6,103.274 29.6,103.644 C 29.407,103.885 29.262,104.207 29.198,104.61 C 29.198,104.61 29.166,104.61 29.118,104.61 C 29.15,105.607 28.892,106.315 28.346,106.749 C 28.33,106.782 28.314,106.814 28.314,106.861 C 28.507,107.055 28.475,107.296 28.25,107.586 L 28.23,107.586 C 28.118,107.635 28.085,107.763 28.15,107.987 C 27.812,108.036 27.651,108.245 27.667,108.632 C 27.667,108.695 27.667,108.744 27.667,108.792 C 27.442,108.841 27.249,108.921 27.137,109.082 C 27.12,109.114 27.073,109.114 27.025,109.114 C 27.025,109.596 26.864,109.919 26.526,110.079 C 26.268,110.191 26.22,110.417 26.381,110.723 C 26.22,110.996 26.091,111.061 25.994,110.964 C 25.978,110.964 25.946,110.996 25.882,111.012 C 25.85,111.045 25.785,111.045 25.737,111.045 C 25.27,111.543 24.803,112.058 24.385,112.572 C 24.369,112.572 24.369,112.604 24.369,112.652 L 24.288,112.652 C 24.176,112.861 23.999,112.894 23.758,112.765 L 23.726,112.733 C 23.629,112.62 23.517,112.652 23.324,112.814 C 23.179,113.264 22.793,113.505 22.214,113.537 C 22.151,113.537 22.086,113.569 22.022,113.586 C 21.764,113.731 21.523,113.859 21.314,114.02 L 21.363,114.117 C 21.379,114.166 21.394,114.215 21.394,114.263 C 21.073,114.44 20.735,114.424 20.381,114.215 C 20.349,114.198 20.317,114.215 20.252,114.231 C 20.22,114.263 20.155,114.263 20.107,114.263 C 20.187,114.729 20.01,114.874 19.592,114.697 C 19.56,114.681 19.511,114.681 19.463,114.697 C 19.254,114.729 19.093,114.729 18.948,114.697 C 18.916,114.681 18.867,114.697 18.802,114.714 C 18.61,114.794 18.384,114.859 18.175,114.907 C 18.063,114.666 17.982,114.714 17.934,115.067 C 17.886,115.308 17.822,115.276 17.708,114.955 C 17.692,114.923 17.645,114.907 17.531,114.907 C 17.419,114.907 17.322,114.907 17.21,114.907 C 17.178,115.245 17.001,115.276 16.695,114.955 C 16.663,114.923 16.614,114.907 16.566,114.907 C 16.405,115.179 16.276,115.245 16.164,115.147 C 16.164,115.147 16.132,115.179 16.067,115.228 C 15.97,115.276 15.875,115.341 15.761,115.389 C 15.52,115.308 15.246,115.26 14.957,115.244 C 14.603,115.227 14.522,115.146 14.716,114.986 L 14.635,114.906 C 14.185,114.825 13.879,114.906 13.75,115.146 L 13.67,115.066 C 13.558,114.97 13.461,114.857 13.348,114.745 C 13.011,114.599 12.673,114.713 12.351,115.035 C 12.319,115.066 12.271,115.066 12.223,115.066 C 11.901,115.018 11.627,114.921 11.402,114.793 C 11.37,114.762 11.306,114.745 11.257,114.745 C 11.016,114.472 10.742,114.215 10.421,113.988 C 10.389,113.957 10.34,113.941 10.292,113.941 C 10.163,114.069 9.954,114.02 9.632,113.812 C 9.182,113.506 8.732,113.184 8.281,112.862 C 8.217,112.831 8.184,112.783 8.12,112.702 C 8.04,112.541 7.847,112.477 7.558,112.493 C 7.429,112.091 7.156,111.817 6.753,111.704 C 6.689,111.704 6.656,111.689 6.592,111.689 C 5.707,110.803 4.919,109.838 4.243,108.761 C 4.195,108.68 4.163,108.599 4.115,108.52 C 4.051,108.391 4.002,108.262 3.938,108.117 C 3.874,107.988 3.857,107.828 3.857,107.667 C 3.503,107.507 3.198,107.249 2.989,106.911 C 2.989,106.879 2.957,106.862 2.892,106.862 C 2.666,106.187 2.425,105.495 2.184,104.803 C 2.167,104.787 2.136,104.771 2.087,104.771 C 2.039,104.353 2.055,104.032 2.167,103.806 L 2.087,103.806 C 1.701,102.97 1.525,101.908 1.589,100.589 C 1.605,100.54 1.605,100.492 1.605,100.428 C 2.136,100.54 2.425,100.396 2.474,99.961 C 2.474,99.849 2.505,99.736 2.505,99.624 C 2.554,99.253 2.618,98.899 2.715,98.546 C 2.715,98.514 2.795,98.498 2.892,98.498 C 2.715,98.144 2.699,97.822 2.86,97.516 C 3.005,97.227 3.069,96.857 3.052,96.407 C 3.439,96.375 3.6,96.101 3.551,95.603 C 3.535,95.554 3.535,95.506 3.535,95.442 C 3.873,95.249 4.13,94.975 4.306,94.637 C 4.323,94.589 4.338,94.54 4.338,94.477 C 4.193,94.041 4.226,93.705 4.435,93.462 C 4.676,93.205 4.853,92.915 4.982,92.546 C 5.646,92.463 6.097,92.142 6.306,91.595 z "
   id="path7" />

		<path
   d="M 6.435,91.434 C 6.386,91.482 6.338,91.547 6.306,91.595 C 6.097,92.142 5.647,92.463 4.987,92.544 C 4.858,92.913 4.681,93.203 4.44,93.46 C 4.231,93.702 4.199,94.039 4.343,94.475 C 4.343,94.538 4.327,94.587 4.311,94.635 C 4.134,94.973 3.877,95.246 3.54,95.44 C 3.54,95.504 3.54,95.552 3.556,95.601 C 3.605,96.099 3.444,96.372 3.057,96.405 C 3.074,96.855 3.009,97.225 2.865,97.514 C 2.704,97.821 2.72,98.142 2.897,98.496 C 2.8,98.496 2.72,98.512 2.72,98.544 C 2.623,98.898 2.559,99.251 2.51,99.622 C 2.51,99.734 2.479,99.847 2.479,99.959 C 2.43,100.394 2.141,100.538 1.61,100.426 C 1.61,100.49 1.61,100.538 1.594,100.587 C 1.53,101.905 1.706,102.968 2.092,103.804 L 2.172,103.804 C 2.06,104.03 2.044,104.351 2.092,104.769 C 2.141,104.769 2.172,104.786 2.189,104.801 C 2.43,105.492 2.671,106.185 2.897,106.86 C 2.961,106.86 2.994,106.877 2.994,106.909 C 3.203,107.247 3.509,107.505 3.862,107.665 C 3.862,107.826 3.879,107.986 3.943,108.115 C 4.006,108.261 4.055,108.389 4.12,108.518 C 4.168,108.597 4.2,108.678 4.248,108.759 C 4.924,109.836 5.712,110.801 6.597,111.687 C 6.661,111.687 6.694,111.702 6.758,111.702 C 7.16,111.815 7.434,112.089 7.563,112.491 C 7.852,112.475 8.045,112.539 8.125,112.7 C 8.189,112.781 8.222,112.829 8.286,112.86 C 8.736,113.182 9.186,113.505 9.637,113.81 C 9.959,114.018 10.168,114.067 10.297,113.939 C 10.345,113.939 10.394,113.955 10.426,113.986 C 10.747,114.213 11.021,114.469 11.262,114.743 C 11.311,114.743 11.374,114.76 11.407,114.791 C 11.633,114.92 11.906,115.017 12.228,115.064 C 12.276,115.064 12.324,115.064 12.356,115.033 C 12.678,114.711 13.016,114.597 13.353,114.743 C 13.466,114.855 13.563,114.969 13.675,115.064 L 13.755,115.144 C 13.884,114.904 14.19,114.823 14.64,114.904 L 14.721,114.984 C 14.528,115.144 14.608,115.225 14.962,115.242 C 15.251,115.258 15.524,115.305 15.766,115.387 C 15.879,115.339 15.975,115.274 16.072,115.226 C 16.136,115.177 16.169,115.145 16.169,115.145 C 16.281,115.243 16.41,115.177 16.571,114.905 C 16.619,114.905 16.668,114.921 16.7,114.953 C 17.006,115.274 17.182,115.243 17.215,114.905 C 17.327,114.905 17.424,114.905 17.536,114.905 C 17.649,114.905 17.697,114.921 17.713,114.953 C 17.826,115.274 17.891,115.307 17.939,115.065 C 17.987,114.711 18.068,114.664 18.18,114.905 C 18.389,114.856 18.615,114.792 18.807,114.712 C 18.871,114.695 18.92,114.68 18.953,114.695 C 19.098,114.727 19.259,114.727 19.468,114.695 C 19.516,114.679 19.565,114.679 19.597,114.695 C 20.015,114.873 20.192,114.727 20.112,114.261 C 20.16,114.261 20.224,114.261 20.257,114.229 C 20.321,114.213 20.354,114.197 20.386,114.213 C 20.74,114.422 21.077,114.438 21.399,114.261 C 21.399,114.213 21.383,114.164 21.368,114.115 L 21.319,114.018 C 21.528,113.858 21.769,113.729 22.027,113.584 C 22.091,113.567 22.156,113.535 22.219,113.535 C 22.798,113.504 23.185,113.263 23.329,112.812 C 23.522,112.65 23.635,112.618 23.731,112.731 L 23.763,112.763 C 24.004,112.892 24.181,112.859 24.293,112.65 L 24.374,112.65 C 24.374,112.602 24.374,112.57 24.39,112.57 C 24.808,112.055 25.275,111.541 25.742,111.043 C 25.79,111.043 25.854,111.043 25.887,111.01 C 25.951,110.994 25.984,110.962 25.999,110.962 C 26.096,111.059 26.225,110.994 26.386,110.721 C 26.225,110.415 26.273,110.19 26.531,110.077 C 26.869,109.917 27.03,109.595 27.03,109.112 C 27.078,109.112 27.126,109.112 27.142,109.08 C 27.254,108.919 27.448,108.839 27.672,108.79 C 27.672,108.742 27.672,108.693 27.672,108.63 C 27.656,108.243 27.818,108.034 28.155,107.985 C 28.091,107.76 28.123,107.632 28.235,107.584 L 28.251,107.584 C 28.477,107.294 28.509,107.054 28.315,106.859 C 28.315,106.812 28.332,106.78 28.347,106.747 C 28.894,106.313 29.152,105.605 29.119,104.608 C 29.167,104.608 29.199,104.608 29.199,104.608 C 29.263,104.206 29.408,103.883 29.601,103.642 C 29.601,103.272 29.569,102.903 29.489,102.533 C 29.472,102.355 29.505,102.098 29.649,101.728 C 29.666,101.68 29.681,101.616 29.681,101.551 C 29.681,101.454 29.681,101.342 29.698,101.23 C 29.714,100.135 29.521,99.284 29.119,98.656 L 29.199,98.656 C 29.135,98.35 29.102,97.98 29.119,97.53 C 29.007,97.481 28.926,97.418 28.893,97.338 C 28.829,97.209 28.765,97.064 28.701,96.935 C 28.46,96.453 28.347,95.842 28.314,95.118 C 28.154,94.748 27.96,94.41 27.735,94.121 C 27.478,93.767 27.22,93.43 26.931,93.107 C 26.449,92.545 25.997,91.918 25.579,91.257 C 25.531,91.257 25.482,91.257 25.45,91.225 C 25.305,91.145 25.144,91.113 24.935,91.097 C 24.935,91.048 24.919,91 24.903,90.951 C 24.711,90.581 24.341,90.355 23.809,90.292 C 23.809,90.243 23.793,90.195 23.777,90.146 C 23.745,90.098 23.697,90.034 23.632,89.986 C 23.246,89.696 22.812,89.439 22.345,89.214 C 21.783,88.956 21.251,88.684 20.753,88.361 C 20.704,88.361 20.64,88.361 20.607,88.361 C 19.98,88.201 19.433,88.201 18.983,88.361 C 18.983,88.313 18.983,88.264 18.951,88.216 C 18.919,88.167 18.87,88.119 18.822,88.135 C 18.226,88.184 17.857,88.038 17.696,87.717 C 17.648,87.717 17.584,87.717 17.535,87.734 C 17.053,87.797 16.682,87.734 16.409,87.557 C 16.361,87.557 16.329,87.573 16.312,87.605 C 16.28,87.686 16.248,87.717 16.232,87.717 C 15.765,87.781 15.444,87.943 15.283,88.2 C 15.235,88.151 15.171,88.103 15.122,88.038 C 15.074,87.991 15.01,87.958 14.945,87.958 C 14.753,87.91 14.543,87.846 14.35,87.797 C 14.205,87.749 14.044,87.766 13.868,87.814 C 13.352,87.959 12.742,88.055 12.066,88.12 C 12.017,88.12 11.953,88.12 11.905,88.12 C 11.696,88.12 11.31,88.136 10.779,88.201 C 10.779,88.264 10.779,88.297 10.747,88.313 C 10.297,88.505 9.814,88.683 9.332,88.844 C 9.268,88.907 9.251,88.972 9.219,89.021 C 9.187,89.133 9.155,89.181 9.09,89.23 C 8.93,89.342 8.818,89.503 8.753,89.68 C 8.704,89.776 8.672,89.841 8.607,89.889 C 8.543,89.953 8.51,90.002 8.495,90.05 C 8.302,90.371 7.948,90.517 7.401,90.451 C 7.158,90.854 6.836,91.176 6.435,91.434 z "
   id="path9"
   style="fill:#b2bcba" />

	</g>

	<path
   clip-rule="evenodd"
   d="M 20.884,87.296 L 17.083,87.188 C 16.81,87.767 16.552,88.33 16.295,88.861 C 16.246,88.973 16.198,89.086 16.134,89.215 C 15.507,90.405 14.928,91.693 14.413,93.06 C 13.834,94.604 13.238,96.132 12.659,97.661 C 12.659,97.853 12.676,98.063 12.74,98.257 C 12.82,98.562 12.868,98.852 12.917,99.141 C 12.981,99.591 12.933,100.074 12.788,100.589 C 12.756,100.669 12.756,100.718 12.788,100.766 C 12.836,100.943 12.836,101.168 12.788,101.441 C 12.579,102.937 12.386,104.418 12.177,105.866 C 12.032,106.879 11.775,107.716 11.389,108.375 C 11.55,108.584 11.598,108.874 11.501,109.244 C 11.292,110.161 11.341,110.852 11.647,111.335 L 11.534,111.367 L 11.711,111.415 C 11.743,111.463 11.775,111.495 11.824,111.528 C 11.872,111.528 11.904,111.495 11.969,111.495 L 12.531,111.657 C 12.982,111.592 13.432,111.528 13.883,111.479 C 14.703,111.367 15.491,111.287 16.264,111.222 C 18.468,111.045 20.092,110.868 21.138,110.723 C 21.829,110.611 22.505,110.531 23.213,110.45 C 24.805,110.257 26.414,110.048 28.006,109.839 L 28.006,108.874 C 27.25,109.003 26.43,109.163 25.529,109.356 C 21.363,109.838 17.26,110.321 13.207,110.755 C 13.947,109.757 14.623,108.712 15.25,107.586 C 15.797,106.605 16.425,105.704 17.148,104.867 C 18.113,103.741 18.998,102.519 19.802,101.232 C 19.785,101.023 19.785,100.814 19.738,100.604 C 19.706,100.459 19.706,100.331 19.738,100.218 C 19.786,100.025 19.835,99.831 19.899,99.639 C 19.947,99.381 20.027,99.14 20.108,98.882 C 20.349,98.03 20.623,97.258 20.912,96.551 C 21.202,95.843 21.523,95.247 21.91,94.717 L 21.797,94.717 C 21.861,94.363 21.91,93.945 21.91,93.461 C 22.505,92.063 23.132,90.727 23.792,89.408 C 23.84,89.295 23.921,89.167 23.984,89.054 L 23.373,89.054 L 23.373,88.603 L 22.605,88.318 L 20.884,87.296 z M 21.85,89.116 C 21.738,89.389 22.151,89.567 21.99,89.809 C 21.555,90.452 21.282,90.951 21.17,91.304 C 21.106,91.546 21.009,91.787 20.912,92.012 C 20.591,92.752 20.301,93.525 20.059,94.313 C 19.544,95.905 18.982,97.417 18.354,98.865 C 18.338,98.897 18.338,98.897 18.338,98.929 C 18.306,98.897 18.257,98.865 18.225,98.817 C 17.888,98.528 17.534,98.238 17.163,97.964 C 16.424,97.417 15.635,97.24 14.751,97.449 C 14.638,97.128 14.751,96.644 15.056,96.002 C 15.282,95.519 15.491,95.004 15.684,94.474 C 15.877,93.958 16.054,93.476 16.279,93.042 C 16.923,91.626 17.518,90.13 18.016,88.586 C 18.177,88.087 19.852,88.849 20.741,88.671 M 17.903,100.587 C 17.855,101.375 17.614,101.986 17.212,102.404 C 17.051,102.596 16.89,102.791 16.73,102.967 C 16.119,103.706 15.443,104.366 14.703,104.946 C 14.397,105.203 14.108,105.058 13.835,104.528 C 13.754,104.367 13.706,104.174 13.706,103.965 C 13.995,103.338 14.141,102.646 14.156,101.858 C 14.188,101.07 14.285,100.426 14.429,99.944 C 14.478,99.735 14.67,99.671 14.96,99.751 C 15.442,99.559 15.925,99.735 16.359,100.282 C 16.407,100.346 16.504,100.362 16.632,100.314 C 17.26,100.12 17.694,100.217 17.903,100.587 z "
   id="path11"
   style="fill-rule:evenodd" />

	<path
   clip-rule="evenodd"
   d="M 17.212,102.404 C 17.614,101.986 17.856,101.375 17.903,100.587 C 17.694,100.217 17.259,100.12 16.632,100.314 C 16.503,100.362 16.406,100.346 16.359,100.282 C 15.924,99.735 15.442,99.558 14.96,99.751 C 14.67,99.671 14.478,99.735 14.429,99.944 C 14.284,100.426 14.188,101.07 14.156,101.858 C 14.14,102.646 13.995,103.338 13.706,103.965 C 13.706,104.174 13.754,104.367 13.835,104.528 C 14.108,105.058 14.397,105.203 14.703,104.946 C 15.443,104.367 16.119,103.707 16.73,102.967 C 16.89,102.791 17.051,102.597 17.212,102.404 z "
   id="path13"
   style="fill:#ffffff;fill-rule:evenodd" />

	<g
   id="g15">
		<path
   d="M 27.061,106.219 C 26.968,106.2 26.876,106.2 26.802,106.163 C 26.783,106.163 26.765,106.163 26.746,106.163 C 26.727,106.163 26.691,106.163 26.654,106.163 C 26.487,106.108 26.34,106.071 26.174,106.053 C 26.1,106.034 26.026,106.034 25.971,106.034 C 25.749,106.071 25.508,106.108 25.268,106.126 C 25.158,106.183 25.029,106.219 24.88,106.256 C 24.751,106.293 24.603,106.312 24.492,106.385 C 24.122,106.533 23.753,106.681 23.42,106.884 C 23.328,106.94 23.273,106.977 23.198,107.032 C 23.106,107.088 23.032,107.142 22.939,107.179 C 22.792,107.309 22.644,107.419 22.477,107.567 C 22.2,107.808 21.978,108.104 21.738,108.399 L 21.738,108.399 C 21.719,108.418 21.701,108.418 21.665,108.418 C 21.665,108.418 21.665,108.418 21.665,108.437 C 21.646,108.437 21.628,108.456 21.609,108.473 C 21.609,108.473 21.609,108.473 21.59,108.473 C 21.571,108.473 21.553,108.473 21.534,108.473 C 21.515,108.51 21.461,108.53 21.442,108.566 C 21.386,108.64 21.349,108.696 21.294,108.752 C 21.22,108.844 21.165,108.973 21.109,109.084 C 21.035,109.269 20.979,109.473 20.887,109.657 C 20.887,109.676 20.887,109.713 20.887,109.731 C 20.887,109.768 20.887,109.786 20.868,109.804 C 20.849,109.989 20.812,110.137 20.757,110.284 L 20.757,110.284 C 20.757,110.377 20.739,110.47 20.702,110.561 C 20.702,110.58 20.702,110.58 20.702,110.58 C 20.702,110.727 20.683,110.893 20.646,111.042 C 20.646,111.338 20.646,111.651 20.646,111.947 L 20.646,111.947 C 20.646,112.021 20.683,112.076 20.702,112.169 L 20.702,112.169 C 20.721,112.298 20.739,112.409 20.739,112.502 L 20.739,112.502 C 20.794,112.613 20.831,112.724 20.868,112.815 C 20.942,113.075 21.015,113.278 21.127,113.5 C 21.127,113.5 21.127,113.518 21.146,113.537 L 21.127,113.537 C 21.164,113.573 21.183,113.629 21.201,113.684 C 21.201,113.684 21.201,113.684 21.219,113.684 C 21.219,113.721 21.238,113.739 21.256,113.795 C 21.256,113.813 21.256,113.813 21.256,113.813 C 21.256,113.832 21.275,113.832 21.275,113.832 L 21.275,113.832 C 21.294,113.869 21.294,113.906 21.294,113.925 C 21.294,113.925 21.294,113.925 21.294,113.944 C 21.405,114.11 21.516,114.276 21.646,114.406 C 21.738,114.48 21.812,114.572 21.905,114.683 C 22.108,114.886 22.293,115.089 22.496,115.274 C 22.589,115.348 22.681,115.422 22.773,115.497 C 22.847,115.552 22.902,115.589 22.958,115.643 C 22.939,115.68 22.939,115.718 22.977,115.754 L 22.977,115.754 C 23.18,115.939 23.42,116.068 23.735,116.18 C 23.846,116.216 23.938,116.235 24.031,116.253 C 24.308,116.383 24.603,116.475 24.936,116.549 C 25.046,116.585 25.158,116.605 25.268,116.622 C 25.379,116.642 25.508,116.679 25.62,116.696 C 25.767,116.696 25.897,116.696 26.045,116.696 C 26.045,116.696 26.045,116.696 26.064,116.696 L 26.064,116.696 C 26.323,116.678 26.544,116.641 26.729,116.622 L 26.729,116.604 C 26.822,116.584 26.915,116.567 27.006,116.53 L 27.006,116.53 C 27.339,116.474 27.635,116.383 27.911,116.271 L 27.911,116.252 C 28.004,116.196 28.097,116.142 28.207,116.123 C 28.355,116.03 28.466,115.957 28.613,115.883 C 28.761,115.827 28.872,115.753 28.965,115.642 C 29.039,115.587 29.112,115.513 29.187,115.458 C 29.261,115.365 29.334,115.291 29.427,115.217 C 29.574,115.088 29.723,114.958 29.852,114.811 C 29.871,114.755 29.926,114.682 29.963,114.645 C 30.037,114.534 30.11,114.442 30.185,114.368 C 30.204,114.294 30.241,114.221 30.277,114.165 C 30.388,114.018 30.481,113.851 30.554,113.647 C 30.591,113.628 30.61,113.573 30.628,113.537 C 30.665,113.463 30.684,113.37 30.721,113.297 C 30.776,113.167 30.831,113.056 30.868,112.908 L 30.868,112.908 C 30.868,112.908 30.868,112.889 30.868,112.871 L 30.887,112.871 C 30.887,112.815 30.906,112.797 30.924,112.779 C 30.924,112.76 30.924,112.76 30.924,112.76 C 30.924,112.76 30.924,112.723 30.924,112.704 C 30.98,112.537 31.016,112.353 31.053,112.168 C 31.053,111.983 31.09,111.836 31.146,111.67 C 31.146,111.613 31.146,111.576 31.127,111.54 C 31.09,111.411 31.09,111.281 31.108,111.152 C 31.145,110.966 31.127,110.782 31.089,110.633 L 31.089,110.615 C 31.07,110.559 31.052,110.522 31.033,110.468 C 31.014,110.468 31.014,110.468 31.033,110.468 C 31.033,110.375 31.033,110.282 30.996,110.171 L 30.996,110.171 C 30.978,109.986 30.904,109.802 30.849,109.617 L 30.849,109.617 C 30.849,109.487 30.793,109.358 30.739,109.248 L 30.739,109.248 C 30.72,109.174 30.702,109.118 30.665,109.062 L 30.665,109.062 C 30.572,108.822 30.425,108.6 30.276,108.397 C 30.276,108.397 30.276,108.397 30.276,108.378 C 30.276,108.378 30.276,108.342 30.276,108.285 L 30.258,108.285 C 30.239,108.212 30.202,108.138 30.165,108.064 C 30.146,108.064 30.146,108.064 30.146,108.064 C 30.127,108.044 30.09,108.007 30.072,107.953 L 30.072,107.953 C 30.053,107.934 30.017,107.916 29.98,107.916 C 29.758,107.713 29.554,107.51 29.315,107.324 C 29.204,107.232 29.111,107.139 29.001,107.048 C 28.761,106.901 28.539,106.734 28.28,106.585 C 28.206,106.585 28.132,106.567 28.095,106.53 C 28.039,106.493 27.984,106.474 27.928,106.456 C 27.781,106.419 27.651,106.382 27.54,106.345 L 27.54,106.345 C 27.484,106.309 27.466,106.29 27.429,106.272 C 27.411,106.272 27.411,106.272 27.393,106.272 C 27.374,106.291 27.356,106.272 27.356,106.253 C 27.264,106.237 27.153,106.219 27.061,106.219 z M 27.448,107.513 C 27.818,107.66 28.15,107.864 28.446,108.085 C 28.483,108.122 28.52,108.141 28.557,108.178 C 28.834,108.4 29.075,108.621 29.315,108.88 C 29.351,108.954 29.407,109.028 29.462,109.083 C 29.462,109.083 29.462,109.083 29.481,109.083 C 29.462,109.12 29.481,109.12 29.481,109.157 L 29.481,109.157 C 29.554,109.267 29.628,109.397 29.684,109.545 L 29.684,109.545 C 29.684,109.564 29.703,109.582 29.684,109.601 C 29.684,109.601 29.684,109.601 29.684,109.62 C 29.703,109.62 29.721,109.62 29.721,109.657 L 29.74,109.657 C 29.74,109.713 29.74,109.768 29.74,109.786 C 29.74,109.786 29.74,109.786 29.74,109.805 C 29.777,109.898 29.832,109.99 29.869,110.119 L 29.869,110.138 C 29.888,110.157 29.906,110.194 29.925,110.231 L 29.925,110.231 C 29.925,110.415 30.018,110.563 30.165,110.636 L 30.165,110.636 C 30.202,110.784 30.221,110.969 30.202,111.155 C 30.202,111.174 30.202,111.191 30.202,111.21 C 30.202,111.303 30.221,111.432 30.239,111.524 C 30.239,111.653 30.258,111.764 30.258,111.857 C 30.239,112.023 30.221,112.189 30.184,112.336 C 30.165,112.356 30.165,112.373 30.165,112.393 C 30.128,112.559 30.072,112.706 30.018,112.872 C 29.944,113.002 29.888,113.131 29.832,113.298 C 29.74,113.445 29.647,113.611 29.555,113.76 L 29.555,113.76 C 29.5,113.833 29.426,113.907 29.389,113.982 C 29.316,114.056 29.223,114.129 29.13,114.185 C 29.111,114.203 29.075,114.222 29.057,114.24 C 28.927,114.388 28.798,114.536 28.65,114.666 C 28.558,114.758 28.41,114.851 28.281,114.942 C 28.151,115.016 28.022,115.109 27.875,115.165 C 27.708,115.239 27.542,115.312 27.395,115.387 L 27.395,115.387 C 27.376,115.406 27.358,115.406 27.358,115.406 L 27.358,115.425 C 27.155,115.499 26.933,115.535 26.711,115.572 C 26.231,115.609 25.806,115.591 25.399,115.499 C 25.325,115.499 25.214,115.479 25.122,115.499 C 25.066,115.462 25.012,115.442 24.956,115.462 L 24.956,115.462 C 24.937,115.425 24.882,115.425 24.845,115.425 L 24.845,115.425 C 24.513,115.314 24.217,115.203 23.921,115.092 C 23.902,115.092 23.902,115.092 23.884,115.092 C 23.848,115.055 23.774,115.018 23.718,114.962 L 23.718,114.962 C 23.478,114.943 23.293,114.87 23.145,114.741 C 23.145,114.722 23.127,114.722 23.127,114.704 C 22.923,114.537 22.72,114.315 22.535,114.112 C 22.498,114.057 22.461,114.02 22.442,113.965 C 22.22,113.651 22.054,113.3 21.925,112.911 L 21.925,112.911 C 21.906,112.911 21.888,112.892 21.888,112.874 L 21.888,112.874 C 21.851,112.764 21.832,112.671 21.814,112.579 C 21.814,112.449 21.795,112.338 21.795,112.265 C 21.739,112.209 21.721,112.136 21.685,112.079 L 21.685,112.079 C 21.648,111.895 21.629,111.747 21.629,111.562 C 21.648,111.469 21.629,111.415 21.629,111.377 C 21.648,111.247 21.666,111.155 21.666,111.063 L 21.666,111.063 C 21.702,110.953 21.721,110.878 21.721,110.786 C 21.721,110.786 21.721,110.767 21.74,110.73 C 21.74,110.583 21.759,110.416 21.814,110.287 C 21.851,110.158 21.888,110.011 21.925,109.881 C 21.943,109.881 21.961,109.862 21.961,109.862 L 21.98,109.862 C 21.98,109.733 22.017,109.64 22.054,109.585 C 22.073,109.585 22.073,109.585 22.073,109.585 C 22.036,109.641 22.036,109.678 22.036,109.695 C 22.036,109.715 22.036,109.715 22.036,109.715 C 22.055,109.734 22.092,109.771 22.129,109.788 C 22.129,109.788 22.129,109.788 22.148,109.788 C 22.258,109.715 22.351,109.585 22.424,109.455 C 22.461,109.4 22.48,109.345 22.535,109.29 C 22.572,109.216 22.628,109.16 22.664,109.067 C 22.868,108.716 23.108,108.439 23.403,108.199 L 23.403,108.199 C 23.551,108.07 23.699,107.959 23.865,107.866 C 24.013,107.756 24.161,107.681 24.327,107.608 C 24.475,107.552 24.623,107.478 24.79,107.404 C 24.937,107.386 25.085,107.349 25.252,107.312 C 25.344,107.293 25.437,107.275 25.51,107.275 C 25.529,107.275 25.566,107.275 25.603,107.275 C 25.806,107.238 26.009,107.201 26.249,107.145 C 26.691,107.235 27.079,107.364 27.448,107.513 z "
   id="path17" />

		<path
   d="M 28.446,108.085 C 28.15,107.863 27.818,107.66 27.448,107.513 C 27.079,107.365 26.691,107.236 26.247,107.143 C 26.007,107.199 25.804,107.236 25.601,107.273 C 25.564,107.273 25.527,107.273 25.508,107.273 C 25.435,107.273 25.342,107.292 25.25,107.31 C 25.083,107.347 24.936,107.384 24.788,107.402 C 24.621,107.476 24.474,107.55 24.325,107.606 C 24.159,107.679 24.012,107.753 23.863,107.864 C 23.697,107.957 23.55,108.068 23.401,108.197 L 23.401,108.197 C 23.106,108.437 22.866,108.715 22.662,109.065 C 22.626,109.158 22.57,109.213 22.533,109.288 C 22.477,109.343 22.459,109.398 22.422,109.453 C 22.349,109.583 22.256,109.713 22.146,109.786 C 22.127,109.786 22.127,109.786 22.127,109.786 C 22.09,109.768 22.053,109.731 22.034,109.713 C 22.034,109.713 22.034,109.713 22.034,109.693 C 22.034,109.675 22.034,109.638 22.071,109.583 C 22.071,109.583 22.071,109.583 22.052,109.583 C 22.015,109.639 21.978,109.731 21.978,109.86 L 21.96,109.86 C 21.96,109.86 21.941,109.879 21.924,109.879 C 21.887,110.009 21.85,110.156 21.813,110.285 C 21.757,110.414 21.739,110.581 21.739,110.728 C 21.72,110.765 21.72,110.784 21.72,110.784 C 21.72,110.877 21.701,110.951 21.665,111.061 L 21.665,111.061 C 21.665,111.154 21.646,111.246 21.628,111.375 C 21.628,111.412 21.647,111.467 21.628,111.56 C 21.628,111.745 21.647,111.893 21.684,112.077 L 21.684,112.077 C 21.72,112.134 21.739,112.207 21.794,112.263 C 21.794,112.336 21.813,112.448 21.813,112.577 C 21.832,112.669 21.85,112.762 21.887,112.872 L 21.887,112.872 C 21.887,112.891 21.906,112.909 21.924,112.909 L 21.924,112.909 C 22.053,113.298 22.219,113.648 22.441,113.963 C 22.46,114.019 22.497,114.056 22.534,114.11 C 22.719,114.313 22.922,114.535 23.126,114.702 C 23.126,114.721 23.144,114.721 23.144,114.739 C 23.292,114.868 23.477,114.941 23.717,114.96 L 23.717,114.96 C 23.773,115.016 23.847,115.053 23.883,115.09 C 23.902,115.09 23.902,115.09 23.92,115.09 C 24.216,115.201 24.512,115.312 24.844,115.423 L 24.844,115.423 C 24.881,115.423 24.937,115.423 24.955,115.46 L 24.955,115.46 C 25.011,115.44 25.065,115.46 25.121,115.497 C 25.214,115.477 25.324,115.497 25.398,115.497 C 25.804,115.589 26.229,115.607 26.71,115.57 C 26.933,115.533 27.154,115.497 27.357,115.423 L 27.357,115.404 C 27.357,115.404 27.376,115.404 27.394,115.385 L 27.394,115.385 C 27.541,115.311 27.707,115.238 27.874,115.163 C 28.021,115.107 28.15,115.015 28.28,114.94 C 28.409,114.848 28.557,114.755 28.649,114.664 C 28.797,114.534 28.926,114.387 29.056,114.238 C 29.075,114.22 29.111,114.201 29.129,114.183 C 29.222,114.127 29.315,114.054 29.388,113.98 C 29.425,113.906 29.499,113.832 29.554,113.758 L 29.554,113.758 C 29.647,113.61 29.74,113.444 29.831,113.296 C 29.887,113.129 29.942,113 30.017,112.87 C 30.072,112.704 30.127,112.557 30.164,112.391 C 30.164,112.371 30.164,112.354 30.183,112.334 C 30.22,112.187 30.239,112.021 30.257,111.855 C 30.257,111.762 30.238,111.651 30.238,111.522 C 30.219,111.429 30.201,111.3 30.201,111.208 C 30.201,111.189 30.201,111.172 30.201,111.153 C 30.22,110.967 30.201,110.783 30.164,110.634 L 30.164,110.634 C 30.017,110.561 29.924,110.412 29.924,110.229 L 29.924,110.229 C 29.905,110.192 29.887,110.155 29.868,110.136 L 29.868,110.117 C 29.831,109.987 29.776,109.895 29.739,109.803 C 29.739,109.784 29.739,109.784 29.739,109.784 C 29.739,109.766 29.739,109.711 29.739,109.655 L 29.72,109.655 C 29.72,109.618 29.701,109.618 29.683,109.618 C 29.683,109.599 29.683,109.599 29.683,109.599 C 29.702,109.58 29.683,109.562 29.683,109.543 L 29.683,109.543 C 29.627,109.396 29.553,109.266 29.48,109.155 L 29.48,109.155 C 29.48,109.118 29.461,109.118 29.48,109.081 C 29.461,109.081 29.461,109.081 29.461,109.081 C 29.405,109.026 29.35,108.952 29.314,108.878 C 29.074,108.619 28.834,108.398 28.556,108.176 C 28.521,108.141 28.483,108.122 28.446,108.085 z M 26.414,109.878 L 26.414,109.878 C 26.433,109.859 26.47,109.841 26.506,109.822 L 26.525,109.822 C 26.544,109.822 26.599,109.822 26.636,109.822 L 26.636,109.822 C 26.839,109.712 27.079,109.582 27.301,109.489 C 27.467,109.434 27.652,109.434 27.819,109.489 C 27.985,109.563 28.151,109.619 28.318,109.675 C 28.503,109.785 28.687,109.914 28.836,110.081 C 28.891,110.118 28.946,110.173 28.983,110.229 C 29.002,110.265 29.002,110.302 29.002,110.339 C 29.002,110.358 29.002,110.358 29.002,110.358 C 28.946,110.413 28.909,110.469 28.817,110.505 L 28.817,110.505 C 28.817,110.524 28.798,110.542 28.78,110.542 C 28.78,110.542 28.78,110.542 28.78,110.561 C 28.724,110.58 28.65,110.598 28.613,110.634 C 28.613,110.634 28.613,110.634 28.613,110.654 C 28.503,110.69 28.391,110.727 28.262,110.746 C 28.262,110.746 28.262,110.746 28.243,110.746 C 28.114,110.654 28.003,110.561 27.855,110.47 C 27.818,110.451 27.744,110.413 27.707,110.413 C 27.67,110.413 27.651,110.377 27.615,110.377 L 27.615,110.377 C 27.578,110.377 27.541,110.377 27.522,110.377 L 27.503,110.377 C 27.374,110.451 27.263,110.506 27.134,110.562 C 27.097,110.581 27.06,110.618 27.023,110.655 C 26.986,110.857 26.986,111.061 27.004,111.301 C 27.023,111.393 27.041,111.504 27.078,111.614 C 27.078,111.634 27.097,111.651 27.097,111.671 C 27.171,111.8 27.3,111.893 27.448,111.929 C 27.596,111.985 27.744,112.022 27.91,112.076 C 27.929,112.076 27.947,112.058 27.984,112.058 C 27.984,112.039 27.984,112.039 28.003,112.039 C 28.077,111.946 28.169,111.854 28.28,111.762 L 28.28,111.762 C 28.28,111.706 28.299,111.67 28.299,111.633 L 28.299,111.633 C 28.446,111.633 28.558,111.67 28.631,111.743 C 28.631,111.762 28.65,111.762 28.65,111.762 C 28.78,111.836 28.909,111.928 29.02,112.021 L 29.02,112.04 C 28.946,112.133 28.909,112.206 28.872,112.298 L 28.872,112.298 C 28.799,112.428 28.725,112.538 28.613,112.631 C 28.577,112.668 28.54,112.687 28.484,112.705 C 28.391,112.742 28.318,112.779 28.244,112.834 C 28.022,112.871 27.801,112.908 27.579,112.871 C 27.505,112.871 27.394,112.871 27.283,112.871 C 27.08,112.852 26.895,112.797 26.728,112.686 C 26.562,112.576 26.433,112.446 26.303,112.317 C 26.266,112.28 26.247,112.243 26.229,112.206 C 26.137,112.076 26.063,111.966 25.989,111.837 C 25.953,111.744 25.934,111.634 25.916,111.504 C 25.916,111.485 25.916,111.485 25.916,111.467 C 25.916,111.43 25.935,111.412 25.953,111.393 C 25.953,111.356 25.934,111.32 25.934,111.301 L 25.915,111.301 C 25.934,111.154 25.915,111.024 25.896,110.913 L 25.896,110.913 C 25.915,110.856 25.933,110.783 25.952,110.709 C 25.952,110.617 25.988,110.562 26.062,110.543 C 26.155,110.266 26.247,110.044 26.414,109.878 z M 26.062,112.133 C 26.081,112.133 26.081,112.133 26.081,112.133 C 26.044,112.206 26.007,112.298 25.971,112.355 C 25.971,112.355 25.971,112.355 25.971,112.373 C 25.952,112.393 25.934,112.393 25.915,112.393 L 25.915,112.393 C 25.878,112.448 25.878,112.485 25.878,112.522 C 25.878,112.54 25.878,112.54 25.878,112.54 C 25.859,112.578 25.859,112.597 25.841,112.633 C 25.822,112.633 25.822,112.633 25.822,112.633 C 25.693,112.763 25.508,112.855 25.342,112.947 C 25.268,112.984 25.213,113.003 25.139,113.04 C 25.065,113.077 24.954,113.095 24.862,113.095 C 24.677,113.077 24.511,113.077 24.4,113.058 C 24.326,113.058 24.253,113.058 24.197,113.021 C 24.031,112.985 23.901,112.911 23.772,112.855 C 23.661,112.782 23.569,112.726 23.476,112.652 C 23.457,112.633 23.42,112.597 23.402,112.579 C 23.329,112.505 23.255,112.412 23.18,112.338 C 23.107,112.265 23.088,112.172 23.07,112.062 C 23.051,111.951 23.033,111.84 22.996,111.766 C 22.996,111.563 22.977,111.378 22.959,111.248 C 22.959,111.211 22.959,111.192 22.959,111.156 C 22.978,111.063 22.996,110.97 22.996,110.879 L 22.996,110.879 C 23.015,110.823 23.033,110.749 23.033,110.693 L 23.033,110.674 C 23.162,110.472 23.292,110.305 23.458,110.139 C 23.458,110.139 23.458,110.139 23.477,110.139 C 23.57,109.991 23.717,109.862 23.883,109.787 C 24.013,109.732 24.123,109.677 24.235,109.621 C 24.327,109.584 24.401,109.584 24.494,109.584 C 24.623,109.64 24.771,109.677 24.956,109.714 C 25.066,109.714 25.159,109.733 25.252,109.77 C 25.492,109.916 25.695,110.083 25.861,110.287 L 25.861,110.287 C 25.805,110.454 25.714,110.546 25.584,110.638 L 25.584,110.638 C 25.547,110.638 25.51,110.658 25.455,110.658 L 25.455,110.658 C 25.436,110.676 25.399,110.694 25.381,110.731 L 25.381,110.731 C 25.325,110.75 25.252,110.768 25.196,110.75 C 25.177,110.75 25.177,110.75 25.177,110.769 C 25.084,110.75 24.974,110.732 24.881,110.695 C 24.752,110.603 24.585,110.585 24.419,110.659 C 24.4,110.659 24.382,110.659 24.363,110.677 C 24.197,110.77 24.05,110.899 23.975,111.066 C 23.919,111.213 23.901,111.343 23.938,111.491 C 23.938,111.583 23.957,111.657 24.012,111.768 C 24.049,111.842 24.104,111.934 24.178,111.99 C 24.289,112.064 24.381,112.119 24.511,112.156 C 24.621,112.193 24.751,112.212 24.88,112.175 C 24.88,112.175 24.899,112.175 24.917,112.194 C 24.936,112.175 24.954,112.175 24.973,112.175 L 24.973,112.175 C 25.083,112.082 25.158,111.972 25.213,111.843 C 25.232,111.806 25.232,111.787 25.25,111.769 C 25.416,111.769 25.545,111.806 25.693,111.899 C 25.73,111.935 25.803,111.954 25.896,111.972 C 25.97,111.991 26.006,112.028 26.062,112.082 C 26.062,112.096 26.062,112.113 26.062,112.133 z "
   id="path19"
   style="fill:#fdfdfd" />

		<path
   d="M 26.414,109.878 L 26.414,109.878 C 26.247,110.044 26.155,110.266 26.062,110.543 C 25.988,110.562 25.952,110.617 25.952,110.709 C 25.933,110.783 25.915,110.856 25.896,110.913 L 25.896,110.913 C 25.915,111.023 25.933,111.153 25.915,111.301 L 25.934,111.301 C 25.934,111.32 25.953,111.356 25.953,111.393 C 25.934,111.413 25.916,111.43 25.916,111.467 C 25.916,111.486 25.916,111.486 25.916,111.504 C 25.935,111.634 25.953,111.744 25.989,111.837 C 26.063,111.966 26.137,112.076 26.229,112.206 C 26.248,112.243 26.266,112.28 26.303,112.317 C 26.433,112.446 26.562,112.576 26.728,112.686 C 26.895,112.796 27.08,112.852 27.283,112.871 C 27.394,112.871 27.505,112.871 27.579,112.871 C 27.801,112.908 28.022,112.871 28.244,112.834 C 28.318,112.779 28.391,112.742 28.484,112.705 C 28.54,112.686 28.577,112.668 28.613,112.631 C 28.724,112.538 28.799,112.428 28.872,112.298 L 28.872,112.298 C 28.909,112.206 28.946,112.133 29.02,112.04 L 29.02,112.021 C 28.909,111.928 28.78,111.836 28.65,111.762 C 28.65,111.762 28.631,111.762 28.631,111.743 C 28.558,111.67 28.446,111.633 28.299,111.633 L 28.299,111.633 C 28.299,111.67 28.28,111.706 28.28,111.762 L 28.28,111.762 C 28.169,111.855 28.077,111.947 28.003,112.039 C 27.984,112.039 27.984,112.039 27.984,112.058 C 27.947,112.058 27.928,112.076 27.91,112.076 C 27.744,112.021 27.597,111.984 27.448,111.929 C 27.301,111.893 27.172,111.8 27.097,111.671 C 27.097,111.651 27.078,111.634 27.078,111.614 C 27.041,111.504 27.022,111.392 27.004,111.301 C 26.985,111.061 26.985,110.857 27.023,110.655 C 27.06,110.618 27.097,110.581 27.134,110.562 C 27.263,110.506 27.374,110.452 27.503,110.377 L 27.522,110.377 C 27.541,110.377 27.578,110.377 27.615,110.377 L 27.615,110.377 C 27.651,110.377 27.67,110.413 27.707,110.413 C 27.744,110.413 27.818,110.451 27.855,110.47 C 28.002,110.562 28.114,110.655 28.243,110.746 C 28.262,110.746 28.262,110.746 28.262,110.746 C 28.391,110.727 28.502,110.69 28.613,110.654 C 28.613,110.634 28.613,110.634 28.613,110.634 C 28.65,110.598 28.724,110.579 28.78,110.561 C 28.78,110.542 28.78,110.542 28.78,110.542 C 28.799,110.542 28.817,110.523 28.817,110.505 L 28.817,110.505 C 28.909,110.469 28.946,110.412 29.002,110.358 C 29.002,110.358 29.002,110.358 29.002,110.339 C 29.002,110.302 29.002,110.265 28.983,110.229 C 28.946,110.172 28.89,110.118 28.836,110.081 C 28.688,109.914 28.503,109.785 28.318,109.675 C 28.151,109.619 27.985,109.564 27.819,109.489 C 27.652,109.434 27.467,109.434 27.301,109.489 C 27.079,109.582 26.839,109.712 26.636,109.822 L 26.636,109.822 C 26.599,109.822 26.543,109.822 26.525,109.822 L 26.506,109.822 C 26.47,109.841 26.433,109.859 26.414,109.878 z "
   id="path21" />

		<path
   d="M 26.081,112.133 C 26.081,112.133 26.081,112.133 26.062,112.133 C 26.062,112.113 26.062,112.096 26.062,112.076 C 26.006,112.021 25.97,111.984 25.896,111.966 C 25.803,111.947 25.73,111.929 25.693,111.893 C 25.545,111.8 25.416,111.763 25.25,111.763 C 25.231,111.782 25.231,111.8 25.213,111.837 C 25.157,111.966 25.083,112.076 24.973,112.169 L 24.973,112.169 C 24.954,112.169 24.936,112.169 24.917,112.188 C 24.898,112.169 24.88,112.169 24.88,112.169 C 24.751,112.206 24.621,112.188 24.511,112.15 C 24.381,112.113 24.289,112.058 24.178,111.984 C 24.104,111.928 24.049,111.837 24.012,111.762 C 23.956,111.651 23.938,111.576 23.938,111.485 C 23.901,111.338 23.919,111.208 23.975,111.06 C 24.049,110.893 24.197,110.764 24.363,110.671 C 24.382,110.653 24.4,110.653 24.419,110.653 C 24.585,110.579 24.752,110.597 24.881,110.689 C 24.974,110.726 25.084,110.745 25.177,110.763 C 25.177,110.744 25.177,110.744 25.196,110.744 C 25.252,110.763 25.325,110.744 25.381,110.725 L 25.381,110.725 C 25.4,110.688 25.437,110.669 25.455,110.652 L 25.455,110.652 C 25.51,110.652 25.547,110.632 25.584,110.632 L 25.584,110.632 C 25.714,110.54 25.806,110.448 25.861,110.281 L 25.861,110.281 C 25.695,110.078 25.492,109.911 25.252,109.764 C 25.159,109.727 25.066,109.708 24.956,109.708 C 24.771,109.671 24.623,109.634 24.494,109.578 C 24.401,109.578 24.327,109.578 24.235,109.615 C 24.124,109.671 24.013,109.726 23.883,109.781 C 23.717,109.855 23.57,109.984 23.477,110.133 C 23.458,110.133 23.458,110.133 23.458,110.133 C 23.292,110.299 23.162,110.466 23.033,110.668 L 23.033,110.687 C 23.033,110.743 23.014,110.817 22.996,110.873 L 22.996,110.873 C 22.996,110.965 22.977,111.058 22.959,111.15 C 22.959,111.186 22.959,111.205 22.959,111.242 C 22.978,111.372 22.996,111.556 22.996,111.76 C 23.033,111.834 23.052,111.945 23.07,112.056 C 23.089,112.166 23.107,112.259 23.18,112.332 C 23.254,112.406 23.328,112.499 23.402,112.573 C 23.421,112.592 23.458,112.628 23.476,112.646 C 23.569,112.72 23.661,112.776 23.772,112.849 C 23.901,112.905 24.031,112.979 24.197,113.015 C 24.253,113.052 24.326,113.052 24.4,113.052 C 24.511,113.072 24.677,113.072 24.862,113.089 C 24.955,113.089 25.065,113.071 25.139,113.034 C 25.213,112.997 25.268,112.978 25.342,112.941 C 25.508,112.848 25.694,112.756 25.822,112.627 C 25.822,112.627 25.822,112.627 25.841,112.627 C 25.86,112.591 25.86,112.572 25.878,112.534 C 25.878,112.534 25.878,112.534 25.878,112.516 C 25.878,112.479 25.878,112.442 25.915,112.387 L 25.915,112.387 C 25.934,112.387 25.952,112.387 25.971,112.367 C 25.971,112.349 25.971,112.349 25.971,112.349 C 26.007,112.298 26.044,112.206 26.081,112.133 z "
   id="path23" />

	</g>

	<path
   clip-rule="evenodd"
   d="M 21.823,89.116 C 21.711,89.389 22.124,89.567 21.963,89.809 C 21.528,90.452 21.255,90.951 21.143,91.304 C 21.079,91.546 20.982,91.787 20.885,92.013 C 20.564,92.752 20.274,93.525 20.032,94.313 C 19.517,95.905 18.955,97.417 18.327,98.866 C 18.311,98.897 18.311,98.897 18.311,98.929 C 18.279,98.897 18.23,98.866 18.198,98.817 C 17.86,98.528 17.507,98.238 17.136,97.964 C 16.396,97.417 15.608,97.24 14.723,97.449 C 14.611,97.128 14.723,96.644 15.029,96.002 C 15.255,95.519 15.464,95.004 15.657,94.474 C 15.849,93.958 16.027,93.476 16.252,93.042 C 16.896,91.626 17.491,90.13 17.989,88.586 C 18.15,88.087 19.825,88.85 20.713,88.671 L 21.823,89.116 z "
   id="path25"
   style="fill:#ffffff;fill-rule:evenodd" />

</g>
  </g>
</svg>
