<?xml version="1.0" encoding="UTF-8" standalone="no"?>
<!-- Created with Inkscape (http://www.inkscape.org/) -->
<svg
   xmlns:dc="http://purl.org/dc/elements/1.1/"
   xmlns:cc="http://web.resource.org/cc/"
   xmlns:rdf="http://www.w3.org/1999/02/22-rdf-syntax-ns#"
   xmlns:svg="http://www.w3.org/2000/svg"
   xmlns="http://www.w3.org/2000/svg"
   xmlns:sodipodi="http://sodipodi.sourceforge.net/DTD/sodipodi-0.dtd"
   xmlns:inkscape="http://www.inkscape.org/namespaces/inkscape"
   width="31.147003"
   height="30.340002"
   id="svg2476"
   sodipodi:version="0.32"
   inkscape:version="0.45.1"
   sodipodi:docbase="/home/scott/work/cc/livecd/icons"
   sodipodi:docname="cc-video.svg"
   inkscape:output_extension="org.inkscape.output.svg.inkscape"
   version="1.0">
  <defs
     id="defs2478" />
  <sodipodi:namedview
     id="base"
     pagecolor="#ffffff"
     bordercolor="#666666"
     borderopacity="1.0"
     gridtolerance="10000"
     guidetolerance="10"
     objecttolerance="10"
     inkscape:pageopacity="0.0"
     inkscape:pageshadow="2"
     inkscape:zoom="4"
     inkscape:cx="64.268428"
     inkscape:cy="32.886764"
     inkscape:document-units="px"
     inkscape:current-layer="layer1"
     inkscape:window-width="746"
     inkscape:window-height="612"
     inkscape:window-x="3"
     inkscape:window-y="435" />
  <metadata
     id="metadata2481">
    <rdf:RDF>
      <cc:Work
         rdf:about="">
        <dc:format>image/svg+xml</dc:format>
        <dc:type
           rdf:resource="http://purl.org/dc/dcmitype/StillImage" />
      </cc:Work>
    </rdf:RDF>
  </metadata>
  <g
     inkscape:label="Layer 1"
     inkscape:groupmode="layer"
     id="layer1"
     transform="translate(-651.88785,-514.50709)">
    <g
       id="g63"
       transform="translate(493.51485,428.15109)">
	<g
   id="g65">
		<g
   id="g67">
			<path
   d="M 163.538,90.795 C 163.475,90.843 163.442,90.891 163.393,90.955 C 163.12,91.485 162.749,91.936 162.331,92.306 C 162.267,92.371 162.234,92.404 162.186,92.467 C 161.896,92.869 161.526,93.239 161.124,93.513 C 161.124,93.577 161.108,93.61 161.092,93.674 C 160.883,94.35 160.562,94.945 160.159,95.443 C 160.159,95.38 160.143,95.347 160.127,95.298 C 160.079,95.235 160.064,95.201 160.03,95.218 C 159.644,95.379 159.306,95.605 159.016,95.926 C 158.871,96.36 158.791,96.891 158.776,97.534 C 158.776,97.598 158.776,97.646 158.776,97.694 C 158.727,98.242 158.695,98.756 158.647,99.303 C 158.631,99.512 158.615,99.721 158.631,99.947 C 158.647,100.509 158.567,100.944 158.373,101.234 C 158.55,101.507 158.631,101.878 158.614,102.359 C 158.614,102.424 158.631,102.472 158.646,102.521 C 158.677,102.794 158.726,103.051 158.791,103.308 C 158.936,103.871 159,104.515 159.016,105.254 C 159.08,105.254 159.097,105.254 159.114,105.287 C 159.387,106.011 159.628,106.734 159.837,107.507 C 159.886,107.507 159.918,107.507 159.918,107.538 C 159.999,107.699 160.127,107.796 160.32,107.828 C 160.32,108.037 160.352,108.215 160.4,108.343 C 160.497,108.536 160.61,108.713 160.721,108.906 C 161.928,110.836 163.392,112.525 165.145,113.941 C 165.741,114.198 166.32,114.487 166.882,114.793 C 167.075,114.906 167.284,115.003 167.541,115.083 C 168.395,115.341 169.198,115.662 169.971,116.032 C 170.02,116.032 170.067,116.032 170.132,116.032 C 170.341,116.032 170.55,116.032 170.775,116.032 C 170.775,116.08 170.775,116.112 170.775,116.129 C 171.338,116.241 171.821,116.434 172.223,116.675 C 172.271,116.675 172.32,116.675 172.352,116.643 C 172.415,116.612 172.464,116.612 172.512,116.612 C 172.641,116.643 172.819,116.643 173.011,116.612 C 173.059,116.612 173.123,116.612 173.157,116.612 C 173.752,116.724 174.443,116.724 175.263,116.612 C 175.311,116.612 175.392,116.595 175.441,116.58 C 176.759,116.516 177.885,116.29 178.802,115.872 C 179.14,115.775 179.607,115.646 180.234,115.47 C 180.411,115.422 180.588,115.358 180.765,115.309 C 181.119,115.197 181.327,114.955 181.375,114.585 C 181.601,114.537 181.794,114.456 181.986,114.344 C 182.308,114.151 182.694,114.022 183.144,113.943 C 183.546,113.54 183.949,113.138 184.351,112.736 C 184.414,112.688 184.463,112.623 184.511,112.575 C 184.576,112.527 184.623,112.495 184.657,112.463 C 184.834,112.366 184.962,112.27 185.058,112.157 C 185.621,111.53 186.216,110.934 186.844,110.404 C 186.844,110.355 186.861,110.306 186.892,110.258 C 187.568,108.907 188.26,107.571 188.935,106.221 C 188.935,106.172 188.935,106.124 188.935,106.06 C 188.919,105.481 189.015,105.063 189.256,104.773 C 189.321,104.725 189.337,104.676 189.321,104.644 C 189.256,104.484 189.256,104.275 189.321,103.985 C 189.337,103.922 189.352,103.856 189.369,103.808 C 189.481,103.18 189.53,102.746 189.514,102.522 C 189.466,101.668 189.402,100.817 189.337,99.948 C 189.321,99.61 189.289,99.224 189.256,98.822 C 189.208,98.082 189.048,97.438 188.774,96.891 C 188.823,96.247 188.662,95.829 188.324,95.588 C 188.261,95.539 188.195,95.491 188.179,95.427 C 188.098,95.218 188.002,95.026 187.889,94.865 C 187.552,94.302 187.262,93.691 187.005,93.031 C 186.956,93.031 186.907,93.014 186.892,92.999 C 186.087,92.146 185.203,91.343 184.27,90.618 C 184.27,90.555 184.254,90.522 184.238,90.473 C 184.158,90.36 184.126,90.184 184.11,89.975 C 183.788,89.749 183.498,89.524 183.193,89.267 C 182.92,89.026 182.63,88.817 182.293,88.622 C 182.164,88.559 182.051,88.494 181.923,88.43 C 181.682,88.269 181.424,88.124 181.166,87.98 C 181.037,87.916 180.925,87.851 180.78,87.787 C 180.41,87.61 180.024,87.418 179.606,87.24 C 179.139,87.24 178.72,87.16 178.351,87.031 C 177.964,86.902 177.531,86.773 177.064,86.677 C 176.244,86.517 175.327,86.405 174.314,86.356 C 174.249,86.356 174.201,86.356 174.152,86.356 C 173.879,86.42 173.557,86.42 173.187,86.356 C 173.139,86.356 173.075,86.356 173.027,86.373 C 172.72,86.436 172.351,86.485 171.9,86.518 C 171.451,86.55 171.113,86.518 170.935,86.437 L 170.935,86.518 C 170.645,86.502 170.485,86.582 170.453,86.759 C 170.389,86.759 170.341,86.759 170.293,86.759 C 170.02,86.759 169.745,86.759 169.488,86.759 C 169.359,86.968 169.15,87.081 168.844,87.145 C 168.603,87.177 168.329,87.242 168.056,87.338 C 167.589,87.466 167.203,87.692 166.849,87.982 C 166.672,88.127 166.511,88.288 166.351,88.449 C 166.287,88.512 166.238,88.545 166.19,88.594 C 165.339,89.379 164.471,90.118 163.538,90.795 z M 164.696,91.599 C 164.713,91.535 164.776,91.486 164.825,91.438 C 165.211,91.165 165.533,90.843 165.79,90.457 C 166.321,90.522 166.675,90.377 166.868,90.039 C 166.884,89.991 166.932,89.959 166.996,89.894 C 167.045,89.83 167.077,89.765 167.125,89.668 C 167.206,89.491 167.318,89.347 167.479,89.234 C 167.527,89.185 167.559,89.121 167.591,89.025 C 167.623,88.96 167.655,88.912 167.72,88.848 C 168.202,88.687 168.669,88.509 169.136,88.3 C 169.152,88.284 169.167,88.268 169.167,88.204 C 169.698,88.123 170.084,88.107 170.294,88.107 C 170.342,88.123 170.405,88.123 170.454,88.107 C 171.13,88.058 171.725,87.946 172.239,87.8 C 172.432,87.752 172.593,87.737 172.738,87.784 C 172.915,87.848 173.124,87.897 173.317,87.945 C 173.381,87.945 173.446,87.977 173.51,88.041 C 173.558,88.106 173.607,88.138 173.67,88.203 C 173.831,87.945 174.152,87.784 174.604,87.72 C 174.62,87.72 174.652,87.689 174.684,87.591 C 174.7,87.56 174.732,87.56 174.781,87.56 C 175.054,87.72 175.425,87.785 175.907,87.72 C 175.971,87.72 176.02,87.72 176.067,87.72 C 176.228,88.041 176.614,88.187 177.21,88.122 C 177.258,88.122 177.307,88.154 177.339,88.219 C 177.355,88.267 177.355,88.299 177.355,88.364 C 177.822,88.204 178.369,88.187 178.98,88.348 C 179.029,88.364 179.077,88.364 179.125,88.364 C 179.641,88.67 180.154,88.943 180.718,89.217 C 181.2,89.426 181.618,89.684 182.021,89.989 C 182.069,90.037 182.134,90.086 182.167,90.149 C 182.183,90.198 182.183,90.23 182.183,90.295 C 182.73,90.358 183.1,90.568 183.293,90.954 C 183.309,91.003 183.309,91.035 183.309,91.1 C 183.518,91.1 183.695,91.147 183.824,91.228 C 183.856,91.245 183.904,91.26 183.953,91.26 C 184.387,91.904 184.822,92.531 185.32,93.094 C 185.593,93.432 185.867,93.753 186.108,94.108 C 186.349,94.397 186.527,94.735 186.687,95.121 C 186.719,95.846 186.848,96.456 187.073,96.938 C 187.154,97.067 187.219,97.196 187.282,97.325 C 187.314,97.422 187.395,97.47 187.492,97.534 C 187.475,97.984 187.508,98.354 187.572,98.66 L 187.492,98.66 C 187.893,99.288 188.102,100.124 188.07,101.234 C 188.054,101.346 188.054,101.459 188.054,101.555 C 188.054,101.619 188.054,101.667 188.022,101.732 C 187.893,102.102 187.845,102.359 187.877,102.537 C 187.958,102.907 187.974,103.276 187.974,103.646 C 187.797,103.872 187.652,104.193 187.572,104.595 C 187.572,104.612 187.556,104.612 187.492,104.612 C 187.523,105.609 187.266,106.3 186.735,106.751 C 186.719,106.768 186.687,106.816 186.687,106.863 C 186.88,107.057 186.848,107.298 186.623,107.571 L 186.607,107.588 C 186.494,107.62 186.478,107.749 186.527,107.989 C 186.189,108.021 186.028,108.231 186.044,108.634 C 186.044,108.697 186.044,108.746 186.044,108.794 C 185.819,108.826 185.643,108.923 185.529,109.067 C 185.497,109.099 185.465,109.116 185.4,109.116 C 185.4,109.598 185.24,109.921 184.918,110.065 C 184.645,110.193 184.597,110.403 184.757,110.724 C 184.597,110.981 184.485,111.062 184.371,110.965 C 184.355,110.965 184.323,110.981 184.259,111.013 C 184.227,111.046 184.178,111.046 184.114,111.046 C 183.647,111.544 183.197,112.042 182.762,112.558 C 182.745,112.574 182.745,112.606 182.745,112.654 L 182.665,112.654 C 182.568,112.847 182.392,112.88 182.135,112.751 L 182.102,112.735 C 182.022,112.606 181.893,112.638 181.701,112.816 C 181.556,113.25 181.186,113.491 180.591,113.523 C 180.543,113.539 180.462,113.555 180.399,113.587 C 180.141,113.716 179.916,113.86 179.691,114.021 L 179.755,114.118 C 179.771,114.15 179.771,114.216 179.771,114.264 C 179.45,114.441 179.112,114.425 178.757,114.2 C 178.741,114.2 178.694,114.2 178.629,114.232 C 178.597,114.264 178.548,114.264 178.484,114.264 C 178.564,114.714 178.386,114.859 177.968,114.682 C 177.952,114.682 177.888,114.682 177.839,114.682 C 177.647,114.714 177.47,114.714 177.341,114.682 C 177.309,114.682 177.244,114.682 177.18,114.698 C 176.988,114.779 176.778,114.859 176.553,114.908 C 176.456,114.65 176.376,114.698 176.312,115.053 C 176.28,115.31 176.199,115.278 176.102,114.956 C 176.086,114.924 176.023,114.908 175.91,114.908 C 175.813,114.908 175.701,114.908 175.588,114.908 C 175.572,115.246 175.396,115.262 175.073,114.939 C 175.057,114.923 175.01,114.908 174.944,114.908 C 174.784,115.165 174.672,115.246 174.559,115.148 C 174.559,115.148 174.51,115.18 174.446,115.213 C 174.349,115.276 174.253,115.342 174.156,115.39 C 173.915,115.293 173.642,115.261 173.352,115.245 C 172.998,115.228 172.902,115.132 173.111,114.987 L 173.031,114.907 C 172.564,114.826 172.274,114.907 172.146,115.147 L 172.065,115.067 C 171.953,114.955 171.839,114.858 171.744,114.746 C 171.39,114.6 171.068,114.697 170.73,115.019 C 170.698,115.051 170.666,115.067 170.618,115.067 C 170.297,115.019 170.023,114.922 169.781,114.778 C 169.749,114.762 169.701,114.746 169.652,114.746 C 169.395,114.456 169.122,114.199 168.816,113.975 C 168.768,113.958 168.735,113.943 168.687,113.943 C 168.559,114.055 168.333,114.022 168.011,113.814 C 167.576,113.492 167.111,113.169 166.66,112.864 C 166.612,112.833 166.563,112.768 166.514,112.688 C 166.434,112.542 166.241,112.462 165.952,112.495 C 165.823,112.076 165.55,111.819 165.132,111.706 C 165.083,111.706 165.035,111.691 164.987,111.691 C 164.101,110.805 163.313,109.825 162.638,108.747 C 162.589,108.667 162.541,108.586 162.492,108.506 C 162.428,108.377 162.38,108.248 162.332,108.119 C 162.268,107.99 162.251,107.83 162.251,107.669 C 161.881,107.509 161.592,107.251 161.383,106.898 C 161.367,106.881 161.334,106.865 161.286,106.865 C 161.045,106.19 160.804,105.498 160.562,104.806 C 160.562,104.774 160.53,104.774 160.482,104.774 C 160.418,104.356 160.449,104.035 160.562,103.809 L 160.482,103.809 C 160.08,102.973 159.919,101.911 159.983,100.592 C 160,100.542 160,100.494 160,100.43 C 160.53,100.542 160.82,100.382 160.868,99.948 C 160.868,99.851 160.884,99.722 160.884,99.627 C 160.933,99.24 160.996,98.886 161.11,98.549 C 161.11,98.517 161.174,98.501 161.287,98.501 C 161.094,98.147 161.094,97.809 161.239,97.519 C 161.384,97.214 161.448,96.86 161.448,96.41 C 161.834,96.378 161.995,96.104 161.93,95.606 C 161.93,95.541 161.93,95.509 161.93,95.444 C 162.251,95.252 162.509,94.962 162.701,94.624 C 162.718,94.576 162.733,94.544 162.733,94.48 C 162.573,94.044 162.605,93.692 162.83,93.45 C 163.056,93.209 163.232,92.903 163.377,92.55 C 164.021,92.451 164.471,92.13 164.696,91.599 z "
   id="path69" />

			<path
   d="M 164.825,91.438 C 164.776,91.486 164.713,91.535 164.696,91.599 C 164.471,92.13 164.021,92.452 163.377,92.548 C 163.232,92.902 163.056,93.207 162.83,93.448 C 162.605,93.69 162.573,94.043 162.733,94.478 C 162.733,94.541 162.717,94.574 162.701,94.622 C 162.509,94.96 162.251,95.25 161.93,95.442 C 161.93,95.507 161.93,95.539 161.93,95.604 C 161.994,96.102 161.833,96.375 161.448,96.408 C 161.448,96.858 161.384,97.213 161.239,97.517 C 161.093,97.807 161.093,98.145 161.287,98.499 C 161.175,98.499 161.11,98.515 161.11,98.547 C 160.997,98.884 160.933,99.238 160.884,99.625 C 160.884,99.721 160.868,99.85 160.868,99.946 C 160.82,100.381 160.53,100.541 160,100.428 C 160,100.492 160,100.54 159.983,100.589 C 159.919,101.907 160.08,102.97 160.482,103.806 L 160.562,103.806 C 160.449,104.032 160.417,104.353 160.482,104.771 C 160.53,104.771 160.562,104.771 160.562,104.803 C 160.803,105.494 161.044,106.187 161.286,106.862 C 161.334,106.862 161.367,106.879 161.383,106.895 C 161.592,107.249 161.881,107.506 162.251,107.666 C 162.251,107.827 162.268,107.987 162.332,108.116 C 162.38,108.245 162.428,108.374 162.492,108.503 C 162.541,108.583 162.589,108.664 162.638,108.744 C 163.313,109.822 164.101,110.803 164.987,111.688 C 165.035,111.688 165.083,111.703 165.132,111.703 C 165.55,111.816 165.823,112.073 165.952,112.492 C 166.241,112.46 166.434,112.54 166.514,112.685 C 166.563,112.765 166.612,112.83 166.66,112.861 C 167.11,113.167 167.576,113.489 168.011,113.811 C 168.333,114.019 168.559,114.052 168.687,113.94 C 168.735,113.94 168.768,113.956 168.816,113.972 C 169.122,114.197 169.395,114.453 169.652,114.743 C 169.701,114.743 169.749,114.76 169.781,114.775 C 170.023,114.92 170.297,115.016 170.618,115.064 C 170.666,115.064 170.698,115.048 170.73,115.016 C 171.068,114.694 171.389,114.597 171.744,114.743 C 171.84,114.855 171.953,114.952 172.065,115.064 L 172.146,115.144 C 172.274,114.904 172.564,114.823 173.031,114.904 L 173.111,114.984 C 172.902,115.129 172.998,115.225 173.352,115.242 C 173.642,115.258 173.914,115.29 174.156,115.387 C 174.253,115.339 174.349,115.274 174.446,115.21 C 174.51,115.177 174.559,115.145 174.559,115.145 C 174.671,115.243 174.784,115.162 174.944,114.905 C 175.009,114.905 175.057,114.921 175.073,114.936 C 175.395,115.258 175.572,115.243 175.588,114.905 C 175.701,114.905 175.814,114.905 175.91,114.905 C 176.023,114.905 176.087,114.921 176.102,114.953 C 176.199,115.274 176.28,115.307 176.312,115.05 C 176.376,114.696 176.457,114.648 176.553,114.905 C 176.778,114.856 176.988,114.776 177.18,114.695 C 177.244,114.679 177.309,114.679 177.341,114.679 C 177.47,114.711 177.647,114.711 177.839,114.679 C 177.888,114.679 177.952,114.679 177.968,114.679 C 178.386,114.856 178.564,114.711 178.484,114.261 C 178.547,114.261 178.596,114.261 178.629,114.229 C 178.693,114.197 178.741,114.197 178.757,114.197 C 179.111,114.423 179.449,114.438 179.771,114.261 C 179.771,114.213 179.771,114.148 179.755,114.115 L 179.691,114.018 C 179.916,113.858 180.141,113.713 180.399,113.584 C 180.462,113.552 180.544,113.535 180.591,113.52 C 181.187,113.488 181.557,113.247 181.701,112.813 C 181.893,112.635 182.022,112.603 182.102,112.732 L 182.135,112.748 C 182.392,112.877 182.569,112.845 182.665,112.651 L 182.745,112.651 C 182.745,112.603 182.745,112.571 182.762,112.555 C 183.197,112.039 183.647,111.541 184.114,111.043 C 184.177,111.043 184.226,111.043 184.259,111.01 C 184.323,110.978 184.356,110.962 184.371,110.962 C 184.484,111.059 184.597,110.978 184.757,110.721 C 184.597,110.4 184.645,110.19 184.918,110.062 C 185.24,109.917 185.4,109.595 185.4,109.113 C 185.464,109.113 185.497,109.096 185.529,109.064 C 185.642,108.919 185.819,108.823 186.044,108.791 C 186.044,108.743 186.044,108.694 186.044,108.631 C 186.028,108.229 186.19,108.019 186.527,107.986 C 186.478,107.746 186.494,107.617 186.607,107.585 L 186.623,107.568 C 186.849,107.295 186.881,107.054 186.687,106.86 C 186.687,106.813 186.719,106.764 186.735,106.748 C 187.266,106.298 187.523,105.606 187.492,104.609 C 187.556,104.609 187.572,104.609 187.572,104.592 C 187.652,104.19 187.798,103.868 187.974,103.643 C 187.974,103.273 187.958,102.904 187.877,102.534 C 187.845,102.356 187.893,102.099 188.022,101.729 C 188.054,101.665 188.054,101.617 188.054,101.552 C 188.054,101.455 188.054,101.343 188.07,101.231 C 188.102,100.121 187.893,99.285 187.492,98.657 L 187.572,98.657 C 187.508,98.351 187.475,97.981 187.492,97.531 C 187.395,97.467 187.314,97.419 187.282,97.322 C 187.219,97.193 187.154,97.064 187.073,96.935 C 186.848,96.453 186.719,95.842 186.687,95.118 C 186.527,94.732 186.349,94.394 186.108,94.105 C 185.867,93.751 185.593,93.429 185.32,93.091 C 184.822,92.529 184.386,91.901 183.953,91.257 C 183.904,91.257 183.856,91.241 183.824,91.225 C 183.695,91.144 183.518,91.097 183.309,91.097 C 183.309,91.033 183.309,91 183.293,90.951 C 183.1,90.565 182.73,90.355 182.183,90.292 C 182.183,90.228 182.183,90.195 182.167,90.146 C 182.135,90.083 182.069,90.034 182.021,89.986 C 181.619,89.68 181.201,89.423 180.718,89.214 C 180.155,88.941 179.641,88.667 179.125,88.361 C 179.077,88.361 179.029,88.361 178.98,88.345 C 178.369,88.184 177.822,88.2 177.355,88.361 C 177.355,88.297 177.355,88.264 177.339,88.216 C 177.307,88.152 177.258,88.119 177.21,88.119 C 176.614,88.183 176.229,88.038 176.067,87.717 C 176.02,87.717 175.971,87.717 175.907,87.717 C 175.425,87.781 175.054,87.717 174.781,87.557 C 174.732,87.557 174.7,87.557 174.684,87.588 C 174.652,87.686 174.62,87.717 174.604,87.717 C 174.153,87.781 173.832,87.943 173.67,88.2 C 173.607,88.135 173.558,88.103 173.51,88.038 C 173.446,87.975 173.381,87.942 173.317,87.942 C 173.124,87.894 172.915,87.845 172.738,87.781 C 172.593,87.733 172.432,87.749 172.239,87.797 C 171.724,87.943 171.13,88.055 170.454,88.104 C 170.405,88.12 170.342,88.12 170.294,88.104 C 170.084,88.104 169.698,88.12 169.167,88.201 C 169.167,88.264 169.151,88.281 169.136,88.297 C 168.669,88.506 168.202,88.684 167.72,88.845 C 167.656,88.908 167.623,88.956 167.591,89.022 C 167.559,89.118 167.527,89.182 167.479,89.231 C 167.318,89.343 167.206,89.488 167.125,89.665 C 167.077,89.762 167.045,89.826 166.996,89.891 C 166.933,89.955 166.884,89.988 166.868,90.036 C 166.675,90.374 166.321,90.519 165.79,90.454 C 165.533,90.843 165.21,91.164 164.825,91.438 z "
   id="path71"
   style="fill:#b2bcba" />

		</g>

		<g
   id="g73">
			<path
   d="M 181.264,98.322 C 181.2,98.242 181.167,98.242 181.119,98.242 C 180.958,98.29 180.781,98.274 180.54,98.225 C 180.427,98.193 180.089,98.193 179.559,98.242 C 178.722,98.29 177.902,98.354 177.081,98.434 C 175.698,98.563 174.186,98.58 172.513,98.499 C 172.513,98.434 172.53,98.402 172.562,98.37 C 173.221,97.758 174.154,97.421 175.376,97.373 C 175.972,97.019 176.663,96.728 177.436,96.536 C 177.516,96.52 177.597,96.487 177.677,96.455 C 178.449,96.069 179.221,95.699 179.993,95.378 C 180.234,95.281 180.411,95.105 180.524,94.879 C 180.459,94.22 180.283,93.721 179.977,93.351 C 179.655,92.95 179.446,92.451 179.366,91.839 C 179.302,91.839 179.253,91.823 179.22,91.791 C 178.931,91.517 178.61,91.275 178.223,91.083 C 177.821,91.421 177.306,91.662 176.695,91.807 C 176.566,91.824 176.454,91.871 176.357,91.92 C 175.73,92.209 175.086,92.531 174.443,92.853 C 173.237,93.463 171.901,93.962 170.422,94.381 C 170.004,94.478 169.602,94.653 169.247,94.848 C 168.652,95.201 167.961,95.507 167.205,95.716 C 167.108,95.748 167.044,95.764 166.963,95.764 C 166.545,95.893 166.288,96.166 166.224,96.6 C 166.144,97.019 166.16,97.292 166.321,97.454 C 166.384,97.517 166.433,97.583 166.513,97.614 C 166.659,97.759 166.754,97.921 166.835,98.113 C 166.995,98.643 167.431,98.901 168.121,98.884 C 168.121,98.965 168.105,98.997 168.073,99.046 C 167.494,99.592 166.995,100.252 166.594,100.976 C 166.545,101.62 166.449,102.263 166.336,102.874 C 166.32,102.954 166.32,103.019 166.32,103.083 C 166.32,103.146 166.303,103.195 166.303,103.244 C 166.239,103.453 166.143,103.645 166.03,103.839 C 166.143,104.032 166.239,104.241 166.303,104.45 C 166.303,104.482 166.32,104.531 166.335,104.562 C 166.464,104.9 166.528,105.367 166.561,105.929 C 166.578,106.38 166.561,106.653 166.497,106.749 C 166.433,106.845 166.433,106.927 166.513,106.975 C 166.659,107.087 166.722,107.313 166.706,107.666 C 166.674,108.262 166.706,108.824 166.754,109.372 C 166.803,109.725 166.883,110.047 166.995,110.32 C 167.382,110.498 167.832,110.626 168.315,110.69 C 168.813,110.754 169.328,110.835 169.842,110.899 L 169.842,110.802 C 170.18,110.834 170.373,110.722 170.421,110.513 C 171.177,110.513 171.933,110.481 172.69,110.432 C 172.753,110.416 172.835,110.416 172.899,110.416 C 173.945,110.4 174.765,110.4 175.376,110.4 C 176.084,110.416 176.6,110.4 176.904,110.368 C 177.145,110.351 177.386,110.303 177.629,110.222 C 177.837,110.159 178.159,110.19 178.61,110.319 C 178.61,110.255 178.61,110.222 178.626,110.222 C 179.092,110.19 179.397,110.03 179.559,109.755 C 179.688,109.82 179.817,109.836 179.946,109.836 C 180.009,109.836 180.074,109.836 180.138,109.836 C 180.975,109.852 181.602,109.707 182.036,109.37 C 182.165,109.063 182.213,108.662 182.165,108.227 C 182.148,107.985 182.133,107.712 182.084,107.455 C 182.02,106.602 182.067,105.83 182.229,105.171 L 182.133,105.171 C 182.165,104.833 182.068,104.64 181.843,104.609 C 181.843,104.48 181.859,104.351 181.907,104.239 C 181.924,104.159 181.924,104.11 181.924,104.062 C 181.811,103.611 181.763,103.033 181.843,102.308 L 181.94,102.308 C 181.908,101.987 182.004,101.777 182.229,101.746 C 182.229,101.231 182.197,100.748 182.149,100.234 C 182.133,100.169 182.133,100.105 182.133,100.024 C 182.133,99.143 181.843,98.563 181.264,98.322 z M 180.412,100.606 L 180.412,100.703 C 179.913,100.767 179.624,100.542 179.559,100.027 C 180.154,99.883 180.444,100.075 180.412,100.606 z M 178.224,92.982 C 178.353,92.804 178.513,92.917 178.674,93.336 C 178.787,93.577 178.947,93.786 179.173,93.931 C 178.691,94.269 178.159,94.559 177.629,94.8 C 177.436,94.88 177.387,94.784 177.468,94.51 C 177.822,94.156 178.047,93.658 178.144,92.998 C 178.144,92.982 178.16,92.982 178.224,92.982 z M 170.422,96.795 C 170.422,96.537 170.422,96.296 170.422,96.022 C 170.695,95.621 170.904,95.508 171.066,95.733 C 171.226,95.943 171.226,96.103 171.066,96.184 C 171.017,96.216 170.986,96.296 170.969,96.409 C 170.937,96.827 170.776,97.02 170.422,96.988 C 170.422,96.987 170.422,96.923 170.422,96.795 z M 168.878,96.795 L 168.814,96.923 C 168.46,97.405 168.106,97.422 167.752,96.987 C 168.17,96.891 168.557,96.843 168.878,96.795 z M 168.009,101.396 C 167.961,101.379 167.929,101.298 167.929,101.186 C 168.331,100.591 168.717,100.575 169.136,101.138 C 169.376,101.492 169.247,101.637 168.7,101.588 C 168.444,101.571 168.203,101.508 168.009,101.396 z M 170.052,102.199 C 170.406,102.183 170.712,102.216 170.986,102.311 C 171.533,102.521 171.902,102.456 172.128,102.134 C 172.417,102.231 172.723,102.311 173.061,102.407 C 173.061,102.424 173.078,102.439 173.078,102.52 C 173.722,102.52 174.349,102.52 174.992,102.52 C 175.056,102.52 175.105,102.52 175.169,102.52 C 175.459,102.214 175.974,102.149 176.697,102.31 C 176.761,102.31 176.826,102.31 176.906,102.31 C 177.341,102.712 178.032,102.793 178.965,102.599 C 179.448,102.503 179.963,102.407 180.527,102.31 C 180.575,103.388 180.655,104.417 180.768,105.367 C 180.784,105.625 180.784,105.882 180.784,106.123 C 180.735,106.959 180.639,107.731 180.527,108.424 C 179.98,108.326 179.577,108.359 179.32,108.521 C 179.24,108.584 179.127,108.617 178.998,108.649 C 178.693,108.697 178.436,108.826 178.227,108.987 C 177.825,108.907 177.374,108.826 176.908,108.762 C 176.361,108.697 175.96,108.729 175.686,108.874 C 175.54,108.954 175.379,108.986 175.17,108.986 C 174.703,108.954 174.253,108.937 173.835,108.906 C 173.706,108.906 173.594,108.906 173.465,108.906 C 173.079,108.906 172.709,108.906 172.323,108.906 C 172.259,108.906 172.194,108.906 172.114,108.906 C 171.455,108.97 170.875,108.97 170.408,108.906 C 170.345,108.906 170.28,108.906 170.216,108.906 C 169.588,108.954 168.961,108.986 168.319,108.986 C 168.238,108.632 168.125,108.31 168.045,108.005 C 167.982,107.779 167.965,107.587 168.013,107.426 C 168.03,107.378 168.045,107.329 168.03,107.266 C 167.933,106.478 167.853,105.721 167.789,104.997 C 167.725,104.273 167.644,103.565 167.563,102.89 C 167.675,102.681 167.853,102.584 168.125,102.6 C 168.19,102.6 168.238,102.6 168.287,102.584 C 168.495,102.536 168.721,102.472 168.93,102.424 C 169.171,102.359 169.397,102.311 169.654,102.263 C 169.779,102.231 169.908,102.216 170.052,102.199 z M 175.795,95.459 C 175.731,95.685 175.521,95.765 175.167,95.765 L 175.087,95.749 C 175.007,95.685 174.99,95.588 174.99,95.459 C 175.376,95.459 175.537,95.201 175.472,94.688 C 175.472,94.639 175.489,94.559 175.536,94.495 C 175.729,94.206 175.874,94.141 175.938,94.318 C 175.94,94.768 175.891,95.138 175.795,95.459 z M 173.752,94.8 L 173.72,94.912 C 173.656,95.25 173.591,95.571 173.559,95.846 C 173.559,95.909 173.542,95.943 173.542,95.975 C 173.494,96.087 173.397,96.151 173.269,96.232 C 172.9,96.586 172.707,96.473 172.707,95.846 C 172.707,95.588 172.707,95.347 172.707,95.089 C 173.077,94.96 173.431,94.864 173.752,94.8 z M 175.585,100.027 C 175.569,99.963 175.569,99.915 175.569,99.85 C 176.004,99.947 176.454,99.947 176.904,99.867 C 177.097,99.85 177.194,99.947 177.177,100.237 C 177.145,100.446 177.225,100.606 177.403,100.703 C 177.515,100.767 177.58,100.863 177.661,100.976 C 177.242,101.217 176.727,101.33 176.133,101.363 C 176.052,101.379 176.004,101.379 175.94,101.379 C 175.891,100.912 175.795,100.462 175.585,100.027 z M 174.122,100.574 C 174.122,100.591 174.154,100.606 174.235,100.606 C 174.557,101.025 174.444,101.234 173.833,101.266 C 173.721,101.266 173.592,101.297 173.463,101.378 C 173.061,101.217 172.933,100.959 173.077,100.606 L 172.9,100.59 C 172.546,100.558 172.353,100.381 172.321,100.027 C 173.221,99.883 173.833,100.06 174.122,100.574 z "
   id="path75"
   style="fill:#040404" />

			<path
   d="M 180.412,100.703 L 180.412,100.606 C 180.444,100.075 180.154,99.882 179.559,100.027 C 179.624,100.542 179.913,100.768 180.412,100.703 z "
   id="path77"
   style="fill:#ffffff" />

			<path
   d="M 178.674,93.336 C 178.513,92.917 178.353,92.805 178.224,92.982 C 178.16,92.982 178.144,92.982 178.144,92.998 C 178.047,93.658 177.822,94.156 177.468,94.51 C 177.387,94.784 177.436,94.88 177.629,94.8 C 178.159,94.559 178.691,94.269 179.173,93.931 C 178.948,93.786 178.788,93.577 178.674,93.336 z "
   id="path79"
   style="fill:#ffffff" />

			<path
   d="M 170.422,96.021 C 170.422,96.295 170.422,96.537 170.422,96.794 C 170.422,96.922 170.422,96.986 170.422,96.986 C 170.776,97.018 170.937,96.825 170.969,96.407 C 170.986,96.295 171.017,96.215 171.066,96.182 C 171.226,96.101 171.226,95.941 171.066,95.731 C 170.905,95.508 170.696,95.62 170.422,96.021 z "
   id="path81"
   style="fill:#ffffff" />

			<path
   d="M 168.814,96.923 L 168.878,96.795 C 168.557,96.843 168.17,96.891 167.752,96.987 C 168.106,97.422 168.459,97.405 168.814,96.923 z "
   id="path83"
   style="fill:#ffffff" />

			<path
   d="M 167.929,101.186 C 167.929,101.298 167.961,101.379 168.009,101.396 C 168.202,101.508 168.444,101.572 168.7,101.588 C 169.247,101.637 169.376,101.491 169.136,101.138 C 168.717,100.574 168.332,100.591 167.929,101.186 z "
   id="path85"
   style="fill:#ffffff" />

			<path
   d="M 170.986,102.312 C 170.713,102.216 170.406,102.184 170.052,102.2 C 169.907,102.217 169.779,102.232 169.65,102.264 C 169.393,102.312 169.168,102.36 168.926,102.425 C 168.717,102.473 168.491,102.537 168.283,102.585 C 168.234,102.601 168.186,102.601 168.121,102.601 C 167.849,102.585 167.671,102.682 167.559,102.891 C 167.64,103.567 167.72,104.275 167.785,104.998 C 167.85,105.721 167.93,106.478 168.026,107.267 C 168.042,107.33 168.026,107.379 168.009,107.427 C 167.961,107.588 167.978,107.781 168.041,108.006 C 168.121,108.312 168.234,108.634 168.315,108.987 C 168.958,108.987 169.585,108.955 170.212,108.907 C 170.276,108.907 170.341,108.907 170.404,108.907 C 170.871,108.971 171.451,108.971 172.11,108.907 C 172.19,108.907 172.255,108.907 172.319,108.907 C 172.705,108.907 173.075,108.907 173.461,108.907 C 173.59,108.907 173.702,108.907 173.831,108.907 C 174.249,108.938 174.699,108.955 175.166,108.987 C 175.375,108.987 175.536,108.955 175.682,108.875 C 175.955,108.729 176.357,108.697 176.904,108.763 C 177.371,108.826 177.821,108.908 178.223,108.988 C 178.432,108.827 178.69,108.698 178.994,108.65 C 179.123,108.618 179.236,108.586 179.316,108.522 C 179.573,108.36 179.976,108.328 180.523,108.425 C 180.635,107.733 180.731,106.96 180.78,106.124 C 180.78,105.883 180.78,105.626 180.764,105.368 C 180.651,104.419 180.571,103.389 180.523,102.311 C 179.96,102.408 179.445,102.504 178.961,102.6 C 178.028,102.794 177.337,102.713 176.902,102.311 C 176.822,102.311 176.757,102.311 176.693,102.311 C 175.969,102.15 175.455,102.215 175.165,102.521 C 175.102,102.521 175.053,102.521 174.988,102.521 C 174.344,102.521 173.717,102.521 173.074,102.521 C 173.074,102.44 173.057,102.424 173.057,102.408 C 172.719,102.311 172.413,102.231 172.124,102.135 C 171.902,102.456 171.533,102.521 170.986,102.312 z M 178.771,105.143 C 178.722,105.16 178.674,105.175 178.611,105.175 C 178.353,104.998 177.966,104.902 177.468,104.885 C 177.404,104.885 177.355,104.854 177.339,104.789 C 177.323,104.596 177.178,104.532 176.904,104.612 C 176.663,104.933 176.309,105.03 175.907,104.933 C 175.795,104.901 175.682,104.933 175.569,104.997 C 175.408,104.611 175.054,104.515 174.426,104.643 C 173.864,104.789 172.899,104.884 171.547,104.901 C 170.92,104.917 170.485,104.933 170.212,104.917 C 169.584,104.901 169.198,104.676 169.086,104.226 C 169.215,103.921 169.488,103.808 169.857,103.921 C 169.922,103.921 169.97,103.952 170.003,103.952 C 170.485,104.016 171.129,104.001 171.933,103.872 C 172.368,103.808 172.705,103.824 172.947,103.921 C 172.963,103.921 173.011,103.952 173.076,103.952 C 173.591,103.921 174.283,103.921 175.167,103.952 C 175.247,103.952 175.296,103.921 175.312,103.921 C 175.409,103.872 175.683,103.872 176.133,103.921 C 176.39,103.921 176.631,103.921 176.904,103.84 C 177.001,103.952 177.323,103.969 177.837,103.921 C 178.529,103.872 178.995,104.033 179.173,104.419 C 179.333,104.644 179.189,104.885 178.771,105.143 z M 177.082,107.476 C 176.632,107.459 176.246,107.459 175.925,107.412 C 175.796,107.38 175.684,107.38 175.555,107.412 C 175.313,107.428 175.105,107.428 174.943,107.412 C 174.654,107.315 174.348,107.299 174.043,107.348 C 173.771,107.38 173.609,107.331 173.561,107.187 L 173.449,107.219 C 172.564,107.46 171.744,107.509 170.971,107.38 C 170.923,107.38 170.859,107.38 170.794,107.38 C 170.006,107.412 169.427,107.187 169.089,106.704 C 169.427,106.35 170.006,106.189 170.794,106.222 C 170.858,106.222 170.939,106.222 170.987,106.222 C 171.437,106.141 171.823,106.141 172.145,106.206 C 172.257,106.222 172.385,106.238 172.499,106.254 C 173.433,106.383 174.526,106.414 175.748,106.334 C 176.102,106.285 176.424,106.27 176.714,106.238 C 176.762,106.221 176.826,106.221 176.874,106.221 C 177.631,106.124 178.001,106.366 178.049,106.897 C 177.918,107.282 177.597,107.491 177.082,107.476 z "
   id="path87"
   style="fill:#ffffff" />

			<path
   d="M 178.611,105.175 C 178.674,105.175 178.722,105.159 178.771,105.143 C 179.189,104.885 179.333,104.644 179.173,104.419 C 178.995,104.033 178.529,103.872 177.837,103.921 C 177.323,103.969 177.001,103.952 176.904,103.84 C 176.631,103.921 176.389,103.921 176.133,103.921 C 175.683,103.872 175.408,103.872 175.312,103.921 C 175.296,103.921 175.248,103.952 175.167,103.952 C 174.283,103.921 173.591,103.921 173.076,103.952 C 173.012,103.952 172.963,103.921 172.947,103.921 C 172.706,103.824 172.368,103.808 171.933,103.872 C 171.129,104.001 170.486,104.017 170.003,103.952 C 169.971,103.952 169.923,103.921 169.857,103.921 C 169.488,103.808 169.214,103.921 169.086,104.226 C 169.198,104.676 169.584,104.902 170.212,104.917 C 170.485,104.934 170.92,104.917 171.547,104.901 C 172.899,104.884 173.863,104.789 174.426,104.643 C 175.054,104.515 175.407,104.612 175.569,104.997 C 175.682,104.933 175.795,104.9 175.907,104.933 C 176.309,105.03 176.663,104.933 176.904,104.612 C 177.177,104.532 177.323,104.595 177.339,104.789 C 177.355,104.853 177.403,104.885 177.468,104.885 C 177.966,104.901 178.353,104.998 178.611,105.175 z "
   id="path89" />

			<path
   d="M 175.924,107.411 C 176.245,107.459 176.631,107.459 177.081,107.475 C 177.597,107.491 177.918,107.282 178.047,106.896 C 177.999,106.365 177.629,106.124 176.872,106.22 C 176.824,106.22 176.76,106.22 176.712,106.237 C 176.422,106.268 176.1,106.284 175.746,106.333 C 174.524,106.413 173.431,106.382 172.497,106.253 C 172.384,106.237 172.256,106.221 172.143,106.205 C 171.821,106.14 171.435,106.14 170.985,106.221 C 170.936,106.221 170.856,106.221 170.792,106.221 C 170.004,106.189 169.425,106.35 169.087,106.703 C 169.425,107.185 170.004,107.411 170.792,107.379 C 170.856,107.379 170.921,107.379 170.969,107.379 C 171.741,107.508 172.562,107.459 173.447,107.218 L 173.559,107.186 C 173.608,107.331 173.769,107.379 174.041,107.347 C 174.347,107.298 174.652,107.315 174.941,107.411 C 175.103,107.427 175.311,107.427 175.553,107.411 C 175.683,107.379 175.795,107.379 175.924,107.411 z "
   id="path91" />

			<path
   d="M 175.167,95.765 C 175.521,95.765 175.73,95.685 175.795,95.459 C 175.891,95.138 175.94,94.768 175.94,94.317 C 175.876,94.139 175.731,94.205 175.538,94.494 C 175.49,94.558 175.474,94.639 175.474,94.687 C 175.538,95.201 175.377,95.458 174.992,95.458 C 174.992,95.587 175.009,95.684 175.089,95.748 L 175.167,95.765 z "
   id="path93"
   style="fill:#ffffff" />

			<path
   d="M 173.72,94.912 L 173.752,94.8 C 173.431,94.864 173.076,94.96 172.706,95.089 C 172.706,95.347 172.706,95.588 172.706,95.846 C 172.706,96.473 172.899,96.585 173.268,96.232 C 173.397,96.151 173.494,96.087 173.541,95.975 C 173.541,95.943 173.558,95.91 173.558,95.846 C 173.591,95.571 173.656,95.25 173.72,94.912 z "
   id="path95"
   style="fill:#ffffff" />

			<path
   d="M 175.57,99.851 C 175.57,99.915 175.57,99.963 175.586,100.028 C 175.796,100.463 175.892,100.913 175.94,101.38 C 176.004,101.38 176.052,101.38 176.133,101.364 C 176.728,101.331 177.242,101.218 177.661,100.977 C 177.58,100.864 177.515,100.768 177.403,100.704 C 177.225,100.607 177.145,100.447 177.177,100.238 C 177.194,99.948 177.097,99.851 176.904,99.868 C 176.455,99.947 176.004,99.947 175.57,99.851 z "
   id="path97"
   style="fill:#ffffff" />

			<path
   d="M 174.235,100.606 C 174.154,100.606 174.122,100.59 174.122,100.574 C 173.833,100.059 173.222,99.883 172.321,100.027 C 172.353,100.381 172.546,100.558 172.9,100.59 L 173.077,100.606 C 172.932,100.96 173.06,101.217 173.463,101.378 C 173.592,101.297 173.721,101.266 173.833,101.266 C 174.444,101.234 174.557,101.025 174.235,100.606 z "
   id="path99"
   style="fill:#ffffff" />

		</g>

	</g>

	<g
   id="g101">
		<path
   d="M 185.435,106.219 C 185.343,106.2 185.25,106.2 185.177,106.163 C 185.158,106.163 185.14,106.163 185.12,106.163 C 185.102,106.163 185.065,106.163 185.028,106.163 C 184.862,106.108 184.714,106.071 184.548,106.053 C 184.475,106.034 184.4,106.034 184.345,106.034 C 184.123,106.071 183.883,106.108 183.643,106.126 C 183.533,106.182 183.403,106.219 183.254,106.256 C 183.125,106.293 182.978,106.312 182.866,106.385 C 182.496,106.533 182.127,106.681 181.795,106.884 C 181.702,106.94 181.647,106.977 181.573,107.032 C 181.48,107.088 181.407,107.142 181.313,107.179 C 181.166,107.308 181.018,107.419 180.852,107.567 C 180.575,107.808 180.353,108.103 180.112,108.399 L 180.112,108.399 C 180.094,108.418 180.076,108.418 180.039,108.418 C 180.039,108.418 180.039,108.418 180.039,108.437 C 180.02,108.437 180.002,108.456 179.983,108.474 C 179.983,108.474 179.983,108.474 179.965,108.474 C 179.945,108.474 179.928,108.474 179.908,108.474 C 179.889,108.51 179.835,108.53 179.816,108.566 C 179.76,108.64 179.723,108.695 179.669,108.752 C 179.595,108.844 179.539,108.973 179.484,109.084 C 179.41,109.269 179.354,109.473 179.261,109.656 C 179.261,109.676 179.261,109.713 179.261,109.73 C 179.261,109.767 179.261,109.786 179.243,109.804 C 179.223,109.989 179.186,110.137 179.132,110.284 L 179.132,110.284 C 179.132,110.376 179.113,110.47 179.076,110.561 C 179.076,110.58 179.076,110.58 179.076,110.58 C 179.076,110.727 179.057,110.893 179.02,111.042 C 179.02,111.338 179.02,111.651 179.02,111.947 L 179.02,111.947 C 179.02,112.021 179.057,112.076 179.076,112.169 L 179.076,112.169 C 179.095,112.298 179.113,112.409 179.113,112.502 L 179.113,112.502 C 179.168,112.612 179.206,112.724 179.243,112.816 C 179.316,113.075 179.39,113.278 179.501,113.5 C 179.501,113.5 179.501,113.518 179.52,113.537 L 179.501,113.537 C 179.538,113.573 179.557,113.629 179.575,113.684 C 179.575,113.684 179.575,113.684 179.594,113.684 C 179.594,113.721 179.613,113.739 179.631,113.795 C 179.631,113.813 179.631,113.813 179.631,113.813 C 179.631,113.832 179.649,113.832 179.649,113.832 L 179.649,113.832 C 179.669,113.869 179.669,113.906 179.669,113.925 C 179.669,113.925 179.669,113.925 179.669,113.943 C 179.779,114.11 179.89,114.276 180.02,114.406 C 180.112,114.48 180.186,114.572 180.279,114.683 C 180.482,114.885 180.667,115.089 180.87,115.274 C 180.963,115.348 181.056,115.422 181.147,115.496 C 181.221,115.552 181.277,115.589 181.333,115.643 C 181.313,115.68 181.313,115.717 181.351,115.754 L 181.351,115.754 C 181.554,115.939 181.795,116.068 182.109,116.18 C 182.22,116.216 182.312,116.235 182.405,116.253 C 182.682,116.383 182.978,116.475 183.31,116.549 C 183.421,116.585 183.533,116.605 183.643,116.622 C 183.754,116.642 183.883,116.678 183.994,116.696 C 184.142,116.696 184.271,116.696 184.42,116.696 C 184.42,116.696 184.42,116.696 184.438,116.696 L 184.438,116.696 C 184.697,116.677 184.918,116.641 185.104,116.622 L 185.104,116.604 C 185.197,116.584 185.289,116.567 185.38,116.53 L 185.38,116.53 C 185.713,116.474 186.009,116.383 186.286,116.271 L 186.286,116.252 C 186.379,116.196 186.471,116.142 186.582,116.123 C 186.729,116.03 186.84,115.956 186.988,115.883 C 187.135,115.827 187.247,115.753 187.339,115.642 C 187.413,115.587 187.487,115.513 187.561,115.458 C 187.635,115.365 187.709,115.291 187.801,115.217 C 187.949,115.088 188.097,114.958 188.226,114.811 C 188.245,114.756 188.301,114.682 188.337,114.645 C 188.411,114.534 188.484,114.442 188.559,114.368 C 188.578,114.294 188.615,114.221 188.652,114.165 C 188.763,114.018 188.855,113.851 188.928,113.647 C 188.965,113.628 188.984,113.573 189.002,113.537 C 189.039,113.463 189.058,113.37 189.095,113.297 C 189.151,113.167 189.205,113.056 189.242,112.908 L 189.242,112.908 C 189.242,112.908 189.242,112.889 189.242,112.871 L 189.262,112.871 C 189.262,112.816 189.28,112.797 189.298,112.779 C 189.298,112.759 189.298,112.759 189.298,112.759 C 189.298,112.759 189.298,112.723 189.298,112.704 C 189.354,112.537 189.391,112.353 189.428,112.168 C 189.428,111.983 189.464,111.836 189.52,111.669 C 189.52,111.613 189.52,111.576 189.501,111.54 C 189.464,111.411 189.464,111.281 189.483,111.152 C 189.519,110.966 189.501,110.782 189.463,110.633 L 189.463,110.615 C 189.445,110.559 189.427,110.522 189.408,110.468 C 189.389,110.468 189.389,110.468 189.408,110.468 C 189.408,110.374 189.408,110.282 189.371,110.171 L 189.371,110.171 C 189.352,109.986 189.278,109.802 189.224,109.617 L 189.224,109.617 C 189.224,109.487 189.167,109.358 189.113,109.248 L 189.113,109.248 C 189.094,109.174 189.076,109.118 189.039,109.062 L 189.039,109.062 C 188.946,108.822 188.799,108.6 188.651,108.397 C 188.651,108.397 188.651,108.397 188.651,108.378 C 188.651,108.378 188.651,108.341 188.651,108.285 L 188.632,108.285 C 188.613,108.211 188.576,108.138 188.54,108.064 C 188.52,108.064 188.52,108.064 188.52,108.064 C 188.502,108.044 188.465,108.008 188.446,107.953 L 188.446,107.953 C 188.428,107.934 188.391,107.916 188.354,107.916 C 188.132,107.713 187.929,107.51 187.689,107.324 C 187.578,107.232 187.486,107.139 187.375,107.048 C 187.135,106.9 186.913,106.734 186.654,106.585 C 186.581,106.585 186.507,106.566 186.469,106.53 C 186.413,106.493 186.358,106.474 186.303,106.456 C 186.155,106.419 186.026,106.382 185.915,106.346 L 185.915,106.346 C 185.859,106.309 185.84,106.29 185.804,106.272 C 185.785,106.272 185.785,106.272 185.767,106.272 C 185.748,106.291 185.73,106.272 185.73,106.253 C 185.638,106.237 185.528,106.219 185.435,106.219 z M 185.824,107.513 C 186.193,107.66 186.526,107.864 186.821,108.085 C 186.858,108.122 186.895,108.141 186.932,108.178 C 187.209,108.4 187.45,108.621 187.69,108.88 C 187.727,108.954 187.783,109.028 187.837,109.083 C 187.837,109.083 187.837,109.083 187.856,109.083 C 187.837,109.12 187.856,109.12 187.856,109.157 L 187.856,109.157 C 187.93,109.267 188.004,109.397 188.059,109.545 L 188.059,109.545 C 188.059,109.564 188.079,109.582 188.059,109.601 C 188.059,109.601 188.059,109.601 188.059,109.62 C 188.079,109.62 188.096,109.62 188.096,109.656 L 188.115,109.656 C 188.115,109.713 188.115,109.767 188.115,109.786 C 188.115,109.786 188.115,109.786 188.115,109.805 C 188.152,109.898 188.207,109.99 188.244,110.119 L 188.244,110.138 C 188.263,110.156 188.281,110.194 188.301,110.23 L 188.301,110.23 C 188.301,110.415 188.393,110.563 188.541,110.636 L 188.541,110.636 C 188.577,110.784 188.596,110.969 188.577,111.155 C 188.577,111.174 188.577,111.191 188.577,111.21 C 188.577,111.303 188.596,111.432 188.614,111.524 C 188.614,111.653 188.633,111.764 188.633,111.856 C 188.614,112.023 188.596,112.189 188.559,112.336 C 188.541,112.356 188.541,112.373 188.541,112.392 C 188.504,112.559 188.447,112.706 188.393,112.872 C 188.319,113.002 188.263,113.131 188.207,113.298 C 188.115,113.445 188.022,113.611 187.931,113.76 L 187.931,113.76 C 187.875,113.833 187.801,113.907 187.764,113.981 C 187.691,114.055 187.598,114.129 187.505,114.185 C 187.487,114.203 187.45,114.222 187.432,114.24 C 187.303,114.388 187.173,114.536 187.026,114.665 C 186.933,114.759 186.785,114.851 186.656,114.943 C 186.527,115.016 186.397,115.109 186.25,115.165 C 186.083,115.238 185.918,115.312 185.77,115.386 L 185.77,115.386 C 185.751,115.406 185.733,115.406 185.733,115.406 L 185.733,115.425 C 185.53,115.498 185.308,115.535 185.087,115.572 C 184.607,115.608 184.182,115.591 183.775,115.498 C 183.702,115.498 183.59,115.479 183.499,115.498 C 183.442,115.462 183.388,115.443 183.332,115.462 L 183.332,115.462 C 183.313,115.425 183.258,115.425 183.221,115.425 L 183.221,115.425 C 182.889,115.314 182.593,115.203 182.298,115.092 C 182.278,115.092 182.278,115.092 182.261,115.092 C 182.224,115.055 182.15,115.018 182.095,114.962 L 182.095,114.962 C 181.854,114.944 181.669,114.87 181.522,114.741 C 181.522,114.722 181.503,114.722 181.503,114.703 C 181.3,114.537 181.096,114.315 180.912,114.112 C 180.874,114.056 180.837,114.02 180.819,113.965 C 180.596,113.651 180.43,113.3 180.301,112.911 L 180.301,112.911 C 180.282,112.911 180.264,112.892 180.264,112.874 L 180.264,112.874 C 180.227,112.763 180.209,112.671 180.19,112.578 C 180.19,112.449 180.172,112.338 180.172,112.265 C 180.115,112.209 180.098,112.136 180.061,112.079 L 180.061,112.079 C 180.024,111.894 180.005,111.747 180.005,111.561 C 180.024,111.469 180.005,111.415 180.005,111.377 C 180.024,111.247 180.042,111.155 180.042,111.063 L 180.042,111.063 C 180.079,110.952 180.098,110.878 180.098,110.786 C 180.098,110.786 180.098,110.767 180.116,110.73 C 180.116,110.583 180.136,110.416 180.19,110.287 C 180.227,110.157 180.264,110.01 180.301,109.881 C 180.32,109.881 180.338,109.862 180.338,109.862 L 180.357,109.862 C 180.357,109.732 180.394,109.64 180.43,109.585 C 180.449,109.585 180.449,109.585 180.449,109.585 C 180.412,109.641 180.412,109.678 180.412,109.695 C 180.412,109.715 180.412,109.715 180.412,109.715 C 180.431,109.733 180.468,109.77 180.505,109.788 C 180.505,109.788 180.505,109.788 180.524,109.788 C 180.634,109.715 180.727,109.585 180.801,109.455 C 180.837,109.4 180.857,109.345 180.912,109.289 C 180.948,109.216 181.004,109.16 181.041,109.067 C 181.244,108.715 181.484,108.439 181.779,108.199 L 181.779,108.199 C 181.927,108.07 182.075,107.959 182.242,107.866 C 182.389,107.756 182.537,107.681 182.704,107.607 C 182.851,107.552 182.999,107.478 183.166,107.404 C 183.313,107.385 183.462,107.349 183.628,107.311 C 183.72,107.293 183.813,107.274 183.887,107.274 C 183.906,107.274 183.942,107.274 183.979,107.274 C 184.183,107.238 184.386,107.201 184.626,107.145 C 185.066,107.235 185.454,107.364 185.824,107.513 z "
   id="path103" />

		<path
   d="M 186.821,108.085 C 186.526,107.863 186.193,107.66 185.824,107.513 C 185.454,107.365 185.066,107.236 184.623,107.143 C 184.383,107.199 184.18,107.236 183.976,107.272 C 183.939,107.272 183.903,107.272 183.884,107.272 C 183.81,107.272 183.717,107.292 183.625,107.309 C 183.459,107.347 183.311,107.383 183.163,107.402 C 182.996,107.476 182.849,107.55 182.701,107.605 C 182.534,107.679 182.387,107.753 182.239,107.864 C 182.072,107.957 181.925,108.068 181.776,108.197 L 181.776,108.197 C 181.481,108.437 181.241,108.714 181.038,109.065 C 181.001,109.158 180.945,109.213 180.909,109.287 C 180.853,109.343 180.834,109.398 180.798,109.453 C 180.724,109.583 180.631,109.713 180.521,109.786 C 180.502,109.786 180.502,109.786 180.502,109.786 C 180.465,109.767 180.428,109.73 180.409,109.713 C 180.409,109.713 180.409,109.713 180.409,109.693 C 180.409,109.675 180.409,109.638 180.446,109.583 C 180.446,109.583 180.446,109.583 180.427,109.583 C 180.391,109.639 180.354,109.73 180.354,109.86 L 180.335,109.86 C 180.335,109.86 180.316,109.879 180.298,109.879 C 180.261,110.008 180.224,110.155 180.187,110.285 C 180.132,110.414 180.113,110.581 180.113,110.728 C 180.095,110.765 180.095,110.784 180.095,110.784 C 180.095,110.877 180.076,110.95 180.039,111.061 L 180.039,111.061 C 180.039,111.154 180.02,111.246 180.002,111.375 C 180.002,111.412 180.021,111.467 180.002,111.559 C 180.002,111.745 180.021,111.892 180.058,112.077 L 180.058,112.077 C 180.095,112.134 180.113,112.207 180.169,112.263 C 180.169,112.336 180.187,112.448 180.187,112.576 C 180.207,112.669 180.224,112.761 180.261,112.872 L 180.261,112.872 C 180.261,112.891 180.28,112.909 180.298,112.909 L 180.298,112.909 C 180.427,113.298 180.593,113.648 180.816,113.963 C 180.834,114.019 180.871,114.055 180.909,114.11 C 181.093,114.313 181.297,114.535 181.5,114.701 C 181.5,114.721 181.519,114.721 181.519,114.739 C 181.666,114.868 181.851,114.942 182.092,114.96 L 182.092,114.96 C 182.147,115.016 182.221,115.053 182.258,115.09 C 182.276,115.09 182.276,115.09 182.295,115.09 C 182.59,115.201 182.886,115.312 183.218,115.423 L 183.218,115.423 C 183.255,115.423 183.311,115.423 183.329,115.46 L 183.329,115.46 C 183.385,115.441 183.439,115.46 183.496,115.496 C 183.588,115.477 183.699,115.496 183.772,115.496 C 184.179,115.589 184.604,115.606 185.084,115.57 C 185.306,115.533 185.527,115.496 185.73,115.423 L 185.73,115.404 C 185.73,115.404 185.749,115.404 185.767,115.384 L 185.767,115.384 C 185.915,115.311 186.08,115.237 186.247,115.163 C 186.394,115.107 186.524,115.015 186.653,114.941 C 186.782,114.848 186.93,114.756 187.023,114.663 C 187.17,114.534 187.3,114.387 187.429,114.238 C 187.448,114.22 187.485,114.201 187.502,114.183 C 187.595,114.127 187.688,114.053 187.761,113.979 C 187.798,113.906 187.872,113.832 187.928,113.758 L 187.928,113.758 C 188.02,113.61 188.113,113.444 188.204,113.296 C 188.26,113.129 188.315,113 188.39,112.87 C 188.445,112.704 188.501,112.557 188.538,112.39 C 188.538,112.371 188.538,112.354 188.556,112.334 C 188.593,112.187 188.612,112.021 188.63,111.854 C 188.63,111.762 188.611,111.651 188.611,111.522 C 188.592,111.429 188.574,111.3 188.574,111.208 C 188.574,111.189 188.574,111.172 188.574,111.153 C 188.593,110.967 188.574,110.783 188.538,110.634 L 188.538,110.634 C 188.39,110.561 188.298,110.412 188.298,110.228 L 188.298,110.228 C 188.278,110.192 188.26,110.154 188.241,110.136 L 188.241,110.117 C 188.204,109.987 188.149,109.895 188.112,109.803 C 188.112,109.784 188.112,109.784 188.112,109.784 C 188.112,109.765 188.112,109.711 188.112,109.654 L 188.093,109.654 C 188.093,109.618 188.075,109.618 188.056,109.618 C 188.056,109.599 188.056,109.599 188.056,109.599 C 188.076,109.58 188.056,109.562 188.056,109.543 L 188.056,109.543 C 188.001,109.396 187.927,109.266 187.853,109.155 L 187.853,109.155 C 187.853,109.118 187.834,109.118 187.853,109.081 C 187.834,109.081 187.834,109.081 187.834,109.081 C 187.779,109.026 187.724,108.952 187.687,108.878 C 187.447,108.619 187.207,108.398 186.929,108.176 C 186.895,108.141 186.858,108.122 186.821,108.085 z M 184.789,109.878 L 184.789,109.878 C 184.808,109.859 184.845,109.841 184.881,109.822 L 184.901,109.822 C 184.919,109.822 184.975,109.822 185.011,109.822 L 185.011,109.822 C 185.214,109.712 185.454,109.582 185.676,109.489 C 185.842,109.433 186.028,109.433 186.194,109.489 C 186.36,109.563 186.527,109.619 186.693,109.675 C 186.878,109.785 187.063,109.914 187.211,110.081 C 187.267,110.118 187.322,110.173 187.359,110.228 C 187.377,110.265 187.377,110.302 187.377,110.339 C 187.377,110.358 187.377,110.358 187.377,110.358 C 187.322,110.413 187.285,110.469 187.192,110.505 L 187.192,110.505 C 187.192,110.524 187.173,110.542 187.155,110.542 C 187.155,110.542 187.155,110.542 187.155,110.561 C 187.1,110.58 187.026,110.598 186.989,110.634 C 186.989,110.634 186.989,110.634 186.989,110.654 C 186.878,110.691 186.767,110.727 186.638,110.746 C 186.638,110.746 186.638,110.746 186.618,110.746 C 186.489,110.654 186.379,110.561 186.23,110.47 C 186.193,110.45 186.119,110.413 186.082,110.413 C 186.046,110.413 186.027,110.376 185.99,110.376 L 185.99,110.376 C 185.953,110.376 185.917,110.376 185.897,110.376 L 185.879,110.376 C 185.749,110.45 185.638,110.506 185.509,110.562 C 185.472,110.581 185.435,110.618 185.398,110.655 C 185.362,110.857 185.362,111.061 185.379,111.301 C 185.398,111.393 185.416,111.504 185.453,111.614 C 185.453,111.634 185.472,111.651 185.472,111.67 C 185.546,111.8 185.675,111.892 185.824,111.929 C 185.971,111.985 186.119,112.022 186.286,112.076 C 186.305,112.076 186.322,112.058 186.359,112.058 C 186.359,112.038 186.359,112.038 186.379,112.038 C 186.452,111.946 186.545,111.853 186.655,111.762 L 186.655,111.762 C 186.655,111.706 186.674,111.669 186.674,111.633 L 186.674,111.633 C 186.821,111.633 186.933,111.669 187.007,111.743 C 187.007,111.762 187.026,111.762 187.026,111.762 C 187.155,111.836 187.285,111.928 187.395,112.021 L 187.395,112.039 C 187.322,112.133 187.285,112.206 187.248,112.298 L 187.248,112.298 C 187.174,112.428 187.101,112.538 186.989,112.631 C 186.952,112.668 186.915,112.687 186.859,112.705 C 186.767,112.742 186.693,112.779 186.619,112.834 C 186.397,112.871 186.176,112.908 185.954,112.871 C 185.881,112.871 185.769,112.871 185.659,112.871 C 185.455,112.853 185.27,112.797 185.104,112.686 C 184.938,112.575 184.808,112.446 184.678,112.317 C 184.642,112.279 184.623,112.243 184.605,112.206 C 184.512,112.076 184.438,111.966 184.365,111.837 C 184.328,111.744 184.309,111.634 184.291,111.504 C 184.291,111.485 184.291,111.485 184.291,111.467 C 184.291,111.43 184.31,111.412 184.328,111.393 C 184.328,111.356 184.309,111.319 184.309,111.301 L 184.29,111.301 C 184.309,111.154 184.29,111.024 184.271,110.913 L 184.271,110.913 C 184.29,110.856 184.308,110.783 184.327,110.709 C 184.327,110.617 184.364,110.562 184.437,110.543 C 184.53,110.266 184.623,110.044 184.789,109.878 z M 184.437,112.133 C 184.457,112.133 184.457,112.133 184.457,112.133 C 184.42,112.206 184.383,112.298 184.346,112.355 C 184.346,112.355 184.346,112.355 184.346,112.373 C 184.327,112.392 184.309,112.392 184.29,112.392 L 184.29,112.392 C 184.254,112.448 184.254,112.485 184.254,112.522 C 184.254,112.54 184.254,112.54 184.254,112.54 C 184.234,112.577 184.234,112.597 184.217,112.633 C 184.197,112.633 184.197,112.633 184.197,112.633 C 184.068,112.762 183.884,112.856 183.717,112.947 C 183.644,112.983 183.588,113.003 183.514,113.04 C 183.44,113.077 183.329,113.095 183.238,113.095 C 183.053,113.077 182.886,113.077 182.776,113.058 C 182.702,113.058 182.628,113.058 182.572,113.021 C 182.406,112.984 182.276,112.911 182.147,112.856 C 182.036,112.782 181.944,112.726 181.851,112.652 C 181.832,112.633 181.796,112.597 181.777,112.578 C 181.704,112.505 181.631,112.412 181.555,112.338 C 181.482,112.265 181.463,112.172 181.445,112.062 C 181.426,111.951 181.409,111.84 181.372,111.766 C 181.372,111.562 181.352,111.378 181.335,111.248 C 181.335,111.211 181.335,111.192 181.335,111.156 C 181.353,111.063 181.372,110.97 181.372,110.879 L 181.372,110.879 C 181.39,110.822 181.409,110.749 181.409,110.694 L 181.409,110.674 C 181.538,110.472 181.667,110.305 181.833,110.139 C 181.833,110.139 181.833,110.139 181.852,110.139 C 181.945,109.991 182.093,109.862 182.259,109.787 C 182.388,109.731 182.498,109.677 182.61,109.621 C 182.703,109.584 182.777,109.584 182.869,109.584 C 182.998,109.64 183.146,109.677 183.331,109.714 C 183.441,109.714 183.535,109.732 183.627,109.769 C 183.867,109.916 184.07,110.083 184.236,110.287 L 184.236,110.287 C 184.181,110.453 184.089,110.546 183.959,110.638 L 183.959,110.638 C 183.923,110.638 183.886,110.658 183.83,110.658 L 183.83,110.658 C 183.811,110.676 183.774,110.695 183.757,110.731 L 183.757,110.731 C 183.701,110.75 183.627,110.768 183.571,110.75 C 183.552,110.75 183.552,110.75 183.552,110.769 C 183.46,110.75 183.349,110.732 183.256,110.696 C 183.127,110.603 182.961,110.585 182.794,110.659 C 182.776,110.659 182.757,110.659 182.739,110.677 C 182.572,110.77 182.425,110.899 182.351,111.066 C 182.295,111.213 182.276,111.343 182.313,111.491 C 182.313,111.583 182.333,111.657 182.387,111.768 C 182.424,111.842 182.48,111.934 182.553,111.99 C 182.664,112.064 182.756,112.119 182.886,112.156 C 182.996,112.193 183.126,112.212 183.255,112.175 C 183.255,112.175 183.274,112.175 183.292,112.194 C 183.311,112.175 183.329,112.175 183.348,112.175 L 183.348,112.175 C 183.459,112.082 183.534,111.972 183.588,111.843 C 183.607,111.806 183.607,111.787 183.625,111.769 C 183.791,111.769 183.921,111.806 184.068,111.898 C 184.105,111.935 184.179,111.954 184.271,111.972 C 184.345,111.991 184.382,112.028 184.437,112.082 C 184.437,112.096 184.437,112.113 184.437,112.133 z "
   id="path105"
   style="fill:#fdfdfd" />

		<path
   d="M 184.789,109.878 L 184.789,109.878 C 184.623,110.044 184.53,110.266 184.437,110.543 C 184.364,110.562 184.327,110.617 184.327,110.709 C 184.308,110.783 184.29,110.856 184.271,110.913 L 184.271,110.913 C 184.29,111.023 184.308,111.153 184.29,111.301 L 184.309,111.301 C 184.309,111.319 184.328,111.356 184.328,111.393 C 184.309,111.413 184.291,111.43 184.291,111.467 C 184.291,111.486 184.291,111.486 184.291,111.504 C 184.31,111.634 184.328,111.744 184.365,111.837 C 184.438,111.966 184.512,112.076 184.605,112.206 C 184.624,112.243 184.642,112.279 184.678,112.317 C 184.808,112.446 184.938,112.575 185.104,112.686 C 185.27,112.796 185.455,112.853 185.659,112.871 C 185.769,112.871 185.881,112.871 185.954,112.871 C 186.176,112.908 186.397,112.871 186.619,112.834 C 186.693,112.779 186.767,112.742 186.859,112.705 C 186.915,112.686 186.952,112.668 186.989,112.631 C 187.1,112.538 187.174,112.428 187.248,112.298 L 187.248,112.298 C 187.285,112.206 187.322,112.133 187.395,112.039 L 187.395,112.021 C 187.285,111.928 187.155,111.836 187.026,111.762 C 187.026,111.762 187.007,111.762 187.007,111.743 C 186.933,111.669 186.821,111.633 186.674,111.633 L 186.674,111.633 C 186.674,111.669 186.655,111.706 186.655,111.762 L 186.655,111.762 C 186.545,111.854 186.452,111.947 186.379,112.038 C 186.359,112.038 186.359,112.038 186.359,112.058 C 186.322,112.058 186.304,112.076 186.286,112.076 C 186.119,112.021 185.972,111.984 185.824,111.929 C 185.676,111.892 185.547,111.8 185.472,111.67 C 185.472,111.651 185.453,111.634 185.453,111.614 C 185.416,111.504 185.397,111.392 185.379,111.301 C 185.361,111.061 185.361,110.857 185.398,110.655 C 185.435,110.618 185.472,110.581 185.509,110.562 C 185.638,110.506 185.749,110.451 185.879,110.376 L 185.897,110.376 C 185.917,110.376 185.953,110.376 185.99,110.376 L 185.99,110.376 C 186.027,110.376 186.046,110.413 186.082,110.413 C 186.119,110.413 186.193,110.45 186.23,110.47 C 186.378,110.562 186.489,110.655 186.618,110.746 C 186.638,110.746 186.638,110.746 186.638,110.746 C 186.767,110.727 186.877,110.691 186.989,110.654 C 186.989,110.634 186.989,110.634 186.989,110.634 C 187.026,110.598 187.1,110.579 187.155,110.561 C 187.155,110.542 187.155,110.542 187.155,110.542 C 187.174,110.542 187.192,110.523 187.192,110.505 L 187.192,110.505 C 187.285,110.469 187.322,110.412 187.377,110.358 C 187.377,110.358 187.377,110.358 187.377,110.339 C 187.377,110.302 187.377,110.265 187.359,110.228 C 187.322,110.172 187.266,110.118 187.211,110.081 C 187.064,109.914 186.878,109.785 186.693,109.675 C 186.527,109.619 186.36,109.564 186.194,109.489 C 186.028,109.433 185.842,109.433 185.676,109.489 C 185.454,109.582 185.214,109.712 185.011,109.822 L 185.011,109.822 C 184.975,109.822 184.918,109.822 184.901,109.822 L 184.881,109.822 C 184.844,109.841 184.807,109.859 184.789,109.878 z "
   id="path107" />

		<path
   d="M 184.457,112.133 C 184.457,112.133 184.457,112.133 184.437,112.133 C 184.437,112.113 184.437,112.096 184.437,112.076 C 184.382,112.021 184.345,111.984 184.271,111.966 C 184.179,111.947 184.105,111.929 184.068,111.892 C 183.921,111.8 183.791,111.763 183.625,111.763 C 183.606,111.782 183.606,111.8 183.588,111.837 C 183.533,111.966 183.459,112.076 183.348,112.169 L 183.348,112.169 C 183.329,112.169 183.311,112.169 183.292,112.188 C 183.273,112.169 183.255,112.169 183.255,112.169 C 183.126,112.206 182.996,112.188 182.886,112.15 C 182.756,112.113 182.664,112.058 182.553,111.984 C 182.48,111.928 182.424,111.837 182.387,111.762 C 182.332,111.651 182.313,111.576 182.313,111.485 C 182.276,111.338 182.295,111.208 182.351,111.06 C 182.424,110.893 182.572,110.764 182.739,110.671 C 182.757,110.653 182.776,110.653 182.794,110.653 C 182.961,110.579 183.127,110.597 183.256,110.69 C 183.349,110.726 183.46,110.745 183.552,110.763 C 183.552,110.744 183.552,110.744 183.571,110.744 C 183.627,110.763 183.701,110.744 183.757,110.725 L 183.757,110.725 C 183.775,110.689 183.812,110.669 183.83,110.652 L 183.83,110.652 C 183.886,110.652 183.923,110.632 183.959,110.632 L 183.959,110.632 C 184.089,110.54 184.182,110.447 184.236,110.281 L 184.236,110.281 C 184.07,110.078 183.867,109.911 183.627,109.763 C 183.535,109.726 183.441,109.708 183.331,109.708 C 183.146,109.671 182.998,109.634 182.869,109.578 C 182.777,109.578 182.703,109.578 182.61,109.615 C 182.499,109.671 182.388,109.725 182.259,109.781 C 182.093,109.855 181.945,109.984 181.852,110.133 C 181.833,110.133 181.833,110.133 181.833,110.133 C 181.667,110.299 181.538,110.466 181.409,110.668 L 181.409,110.688 C 181.409,110.743 181.389,110.816 181.372,110.873 L 181.372,110.873 C 181.372,110.965 181.352,111.058 181.335,111.15 C 181.335,111.186 181.335,111.205 181.335,111.242 C 181.353,111.372 181.372,111.555 181.372,111.76 C 181.409,111.834 181.427,111.945 181.445,112.056 C 181.464,112.166 181.482,112.259 181.555,112.332 C 181.63,112.406 181.703,112.499 181.777,112.572 C 181.797,112.592 181.833,112.628 181.851,112.646 C 181.944,112.72 182.036,112.776 182.147,112.85 C 182.276,112.905 182.406,112.978 182.572,113.015 C 182.628,113.052 182.702,113.052 182.776,113.052 C 182.886,113.072 183.053,113.072 183.238,113.089 C 183.33,113.089 183.44,113.071 183.514,113.034 C 183.588,112.997 183.644,112.977 183.717,112.941 C 183.884,112.849 184.069,112.755 184.197,112.627 C 184.197,112.627 184.197,112.627 184.217,112.627 C 184.235,112.591 184.235,112.571 184.254,112.534 C 184.254,112.534 184.254,112.534 184.254,112.516 C 184.254,112.479 184.254,112.442 184.29,112.386 L 184.29,112.386 C 184.309,112.386 184.327,112.386 184.346,112.367 C 184.346,112.349 184.346,112.349 184.346,112.349 C 184.382,112.298 184.419,112.206 184.457,112.133 z "
   id="path109" />

	</g>

</g>
  </g>
</svg>
